URWBookmanL-DemiBoldItal.ufo
<glyph name="exclam" format="1">
  <advance width="320"/>
  <unicode hex="0021"/>
  <outline>
    <contour>
      <point x="239" y="219" type="line"/>
      <point x="258" y="300"/>
      <point x="266" y="326"/>
      <point x="290" y="387" type="curve" smooth="yes"/>
      <point x="342" y="517" type="line" smooth="yes"/>
      <point x="359" y="558"/>
      <point x="366" y="586"/>
      <point x="366" y="611" type="curve" smooth="yes"/>
      <point x="366" y="660"/>
      <point x="332" y="694"/>
      <point x="282" y="694" type="curve" smooth="yes"/>
      <point x="243" y="694"/>
      <point x="204" y="671"/>
      <point x="185" y="635" type="curve" smooth="yes"/>
      <point x="174" y="615"/>
      <point x="167" y="577"/>
      <point x="167" y="536" type="curve" smooth="yes"/>
      <point x="167" y="528"/>
      <point x="168" y="511"/>
      <point x="170" y="486" type="curve" smooth="yes"/>
      <point x="171" y="461"/>
      <point x="172" y="439"/>
      <point x="172" y="417" type="curve" smooth="yes"/>
      <point x="172" y="363"/>
      <point x="172" y="363"/>
      <point x="157" y="219" type="curve"/>
    </contour>
    <contour>
      <point x="183" y="167" type="curve" smooth="yes"/>
      <point x="131" y="167"/>
      <point x="86" y="121"/>
      <point x="86" y="68" type="curve" smooth="yes"/>
      <point x="86" y="22"/>
      <point x="120" y="-13"/>
      <point x="164" y="-13" type="curve" smooth="yes"/>
      <point x="214" y="-13"/>
      <point x="259" y="34"/>
      <point x="259" y="86" type="curve" smooth="yes"/>
      <point x="259" y="133"/>
      <point x="227" y="167"/>
    </contour>
  </outline>
</glyph>
<glyph name="quotedbl" format="1">
  <advance width="380"/>
  <unicode hex="0022"/>
  <outline>
    <contour>
      <point x="184" y="352" type="line"/>
      <point x="297" y="561" type="line" smooth="yes"/>
      <point x="305" y="576"/>
      <point x="309" y="590"/>
      <point x="309" y="606" type="curve" smooth="yes"/>
      <point x="309" y="651"/>
      <point x="274" y="681"/>
      <point x="221" y="681" type="curve" smooth="yes"/>
      <point x="177" y="681"/>
      <point x="155" y="660"/>
      <point x="153" y="613" type="curve"/>
      <point x="153" y="608"/>
      <point x="153" y="601"/>
      <point x="152" y="592" type="curve"/>
      <point x="140" y="365" type="line"/>
    </contour>
    <contour>
      <point x="382" y="352" type="line"/>
      <point x="495" y="561" type="line" smooth="yes"/>
      <point x="503" y="576"/>
      <point x="507" y="590"/>
      <point x="507" y="606" type="curve" smooth="yes"/>
      <point x="507" y="651"/>
      <point x="472" y="681"/>
      <point x="419" y="681" type="curve" smooth="yes"/>
      <point x="375" y="681"/>
      <point x="353" y="660"/>
      <point x="351" y="613" type="curve"/>
      <point x="351" y="608"/>
      <point x="351" y="601"/>
      <point x="350" y="592" type="curve"/>
      <point x="338" y="365" type="line"/>
    </contour>
  </outline>
</glyph>
<glyph name="numbersign" format="1">
  <advance width="680"/>
  <unicode hex="0023"/>
  <outline>
    <contour>
      <point x="531" y="305" type="line"/>
      <point x="544" y="390" type="line"/>
      <point x="649" y="390" type="line"/>
      <point x="649" y="476" type="line"/>
      <point x="556" y="476" type="line"/>
      <point x="587" y="681" type="line"/>
      <point x="500" y="681" type="line"/>
      <point x="470" y="476" type="line"/>
      <point x="383" y="476" type="line"/>
      <point x="414" y="681" type="line"/>
      <point x="327" y="681" type="line"/>
      <point x="297" y="476" type="line"/>
      <point x="185" y="476" type="line"/>
      <point x="185" y="390" type="line"/>
      <point x="284" y="390" type="line"/>
      <point x="271" y="305" type="line"/>
      <point x="157" y="305" type="line"/>
      <point x="157" y="219" type="line"/>
      <point x="259" y="219" type="line"/>
      <point x="227" y="0" type="line"/>
      <point x="313" y="0" type="line"/>
      <point x="346" y="219" type="line"/>
      <point x="432" y="219" type="line"/>
      <point x="400" y="0" type="line"/>
      <point x="486" y="0" type="line"/>
      <point x="519" y="219" type="line"/>
      <point x="621" y="219" type="line"/>
      <point x="621" y="305" type="line"/>
    </contour>
    <contour>
      <point x="444" y="305" type="line"/>
      <point x="358" y="305" type="line"/>
      <point x="371" y="390" type="line"/>
      <point x="457" y="390" type="line"/>
    </contour>
  </outline>
</glyph>
<glyph name="dollar" format="1">
  <advance width="680"/>
  <unicode hex="0024"/>
  <outline>
    <contour>
      <point x="499" y="791" type="line"/>
      <point x="416" y="791" type="line"/>
      <point x="393" y="668" type="line"/>
      <point x="364" y="664"/>
      <point x="340" y="659"/>
      <point x="314" y="652" type="curve" smooth="yes"/>
      <point x="204" y="621"/>
      <point x="140" y="552"/>
      <point x="140" y="464" type="curve" smooth="yes"/>
      <point x="140" y="376"/>
      <point x="204" y="313"/>
      <point x="334" y="275" type="curve" smooth="yes"/>
      <point x="389" y="258"/>
      <point x="393" y="257"/>
      <point x="418" y="246" type="curve" smooth="yes"/>
      <point x="462" y="228"/>
      <point x="482" y="204"/>
      <point x="482" y="170" type="curve" smooth="yes"/>
      <point x="482" y="116"/>
      <point x="421" y="72"/>
      <point x="348" y="72" type="curve" smooth="yes"/>
      <point x="302" y="72"/>
      <point x="272" y="88"/>
      <point x="237" y="129" type="curve" smooth="yes"/>
      <point x="206" y="167"/>
      <point x="201" y="173"/>
      <point x="192" y="180" type="curve" smooth="yes"/>
      <point x="175" y="193"/>
      <point x="155" y="199"/>
      <point x="132" y="199" type="curve" smooth="yes"/>
      <point x="81" y="199"/>
      <point x="45" y="168"/>
      <point x="45" y="123" type="curve" smooth="yes"/>
      <point x="45" y="55"/>
      <point x="129" y="8"/>
      <point x="291" y="-15" type="curve"/>
      <point x="265" y="-164" type="line"/>
      <point x="348" y="-164" type="line"/>
      <point x="374" y="-15" type="line"/>
      <point x="555" y="4"/>
      <point x="669" y="94"/>
      <point x="669" y="219" type="curve" smooth="yes"/>
      <point x="669" y="279"/>
      <point x="642" y="321"/>
      <point x="580" y="355" type="curve" smooth="yes"/>
      <point x="547" y="374"/>
      <point x="506" y="390"/>
      <point x="468" y="401" type="curve" smooth="yes"/>
      <point x="382" y="426"/>
      <point x="380" y="426"/>
      <point x="352" y="441" type="curve" smooth="yes"/>
      <point x="324" y="455"/>
      <point x="308" y="478"/>
      <point x="308" y="504" type="curve" smooth="yes"/>
      <point x="308" y="551"/>
      <point x="358" y="587"/>
      <point x="423" y="587" type="curve" smooth="yes"/>
      <point x="466" y="587"/>
      <point x="496" y="573"/>
      <point x="528" y="539" type="curve" smooth="yes"/>
      <point x="561" y="503"/>
      <point x="561" y="503"/>
      <point x="566" y="498" type="curve"/>
      <point x="582" y="485"/>
      <point x="600" y="478"/>
      <point x="622" y="478" type="curve" smooth="yes"/>
      <point x="665" y="478"/>
      <point x="697" y="507"/>
      <point x="697" y="546" type="curve" smooth="yes"/>
      <point x="697" y="604"/>
      <point x="616" y="649"/>
      <point x="477" y="669" type="curve"/>
    </contour>
  </outline>
</glyph>
<glyph name="ampersand" format="1">
  <advance width="980"/>
  <unicode hex="0026"/>
  <outline>
    <contour>
      <point x="561" y="54" type="line"/>
      <point x="597" y="32"/>
      <point x="614" y="23"/>
      <point x="628" y="16" type="curve" smooth="yes"/>
      <point x="664" y="-1"/>
      <point x="720" y="-13"/>
      <point x="768" y="-13" type="curve" smooth="yes"/>
      <point x="898" y="-13"/>
      <point x="1016" y="72"/>
      <point x="1016" y="165" type="curve" smooth="yes"/>
      <point x="1016" y="198"/>
      <point x="989" y="224"/>
      <point x="955" y="224" type="curve" smooth="yes"/>
      <point x="917" y="224"/>
      <point x="886" y="191"/>
      <point x="882" y="145" type="curve" smooth="yes"/>
      <point x="879" y="118"/>
      <point x="878" y="113"/>
      <point x="869" y="104" type="curve" smooth="yes"/>
      <point x="858" y="92"/>
      <point x="833" y="83"/>
      <point x="809" y="83" type="curve" smooth="yes"/>
      <point x="769" y="83"/>
      <point x="735" y="99"/>
      <point x="690" y="138" type="curve"/>
      <point x="810" y="225"/>
      <point x="898" y="372"/>
      <point x="898" y="485" type="curve" smooth="yes"/>
      <point x="898" y="558"/>
      <point x="859" y="612"/>
      <point x="806" y="612" type="curve" smooth="yes"/>
      <point x="761" y="612"/>
      <point x="726" y="573"/>
      <point x="726" y="524" type="curve" smooth="yes"/>
      <point x="726" y="495"/>
      <point x="733" y="480"/>
      <point x="764" y="449" type="curve" smooth="yes"/>
      <point x="776" y="436"/>
      <point x="781" y="427"/>
      <point x="781" y="413" type="curve" smooth="yes"/>
      <point x="781" y="352"/>
      <point x="721" y="257"/>
      <point x="647" y="200" type="curve"/>
      <point x="639" y="217" type="line" smooth="yes"/>
      <point x="595" y="322"/>
      <point x="564" y="355"/>
      <point x="461" y="403" type="curve"/>
      <point x="505" y="416"/>
      <point x="527" y="425"/>
      <point x="554" y="441" type="curve" smooth="yes"/>
      <point x="599" y="469"/>
      <point x="627" y="516"/>
      <point x="627" y="564" type="curve" smooth="yes"/>
      <point x="627" y="643"/>
      <point x="550" y="694"/>
      <point x="432" y="694" type="curve" smooth="yes"/>
      <point x="290" y="694"/>
      <point x="183" y="612"/>
      <point x="183" y="505" type="curve" smooth="yes"/>
      <point x="183" y="452"/>
      <point x="207" y="421"/>
      <point x="264" y="403" type="curve"/>
      <point x="198" y="394"/>
      <point x="167" y="384"/>
      <point x="134" y="361" type="curve" smooth="yes"/>
      <point x="79" y="322"/>
      <point x="48" y="261"/>
      <point x="48" y="193" type="curve" smooth="yes"/>
      <point x="48" y="130"/>
      <point x="75" y="75"/>
      <point x="123" y="42" type="curve" smooth="yes"/>
      <point x="173" y="7"/>
      <point x="242" y="-13"/>
      <point x="313" y="-13" type="curve" smooth="yes"/>
      <point x="352" y="-13"/>
      <point x="398" y="-6"/>
      <point x="443" y="5" type="curve" smooth="yes"/>
      <point x="477" y="14"/>
      <point x="485" y="18"/>
      <point x="552" y="50" type="curve" smooth="yes"/>
    </contour>
    <contour>
      <point x="428" y="624" type="curve" smooth="yes"/>
      <point x="463" y="624"/>
      <point x="485" y="600"/>
      <point x="485" y="564" type="curve" smooth="yes"/>
      <point x="485" y="545"/>
      <point x="478" y="519"/>
      <point x="468" y="498" type="curve" smooth="yes"/>
      <point x="451" y="463"/>
      <point x="426" y="445"/>
      <point x="397" y="445" type="curve" smooth="yes"/>
      <point x="363" y="445"/>
      <point x="341" y="471"/>
      <point x="341" y="511" type="curve" smooth="yes"/>
      <point x="341" y="535"/>
      <point x="348" y="559"/>
      <point x="360" y="580" type="curve" smooth="yes"/>
      <point x="378" y="611"/>
      <point x="399" y="624"/>
    </contour>
    <contour>
      <point x="509" y="113" type="line"/>
      <point x="458" y="91"/>
      <point x="428" y="83"/>
      <point x="394" y="83" type="curve" smooth="yes"/>
      <point x="300" y="83"/>
      <point x="221" y="155"/>
      <point x="221" y="241" type="curve" smooth="yes"/>
      <point x="221" y="295"/>
      <point x="258" y="336"/>
      <point x="306" y="336" type="curve" smooth="yes"/>
      <point x="325" y="336"/>
      <point x="347" y="328"/>
      <point x="368" y="312" type="curve" smooth="yes"/>
      <point x="390" y="296"/>
      <point x="405" y="275"/>
      <point x="438" y="211" type="curve" smooth="yes"/>
      <point x="459" y="171"/>
      <point x="475" y="148"/>
      <point x="502" y="120" type="curve" smooth="yes"/>
    </contour>
  </outline>
</glyph>
<glyph name="quotesingle" format="1">
  <advance width="180"/>
  <unicode hex="0027"/>
  <outline>
    <contour>
      <point x="170" y="352" type="line"/>
      <point x="283" y="561" type="line" smooth="yes"/>
      <point x="291" y="576"/>
      <point x="295" y="590"/>
      <point x="295" y="606" type="curve" smooth="yes"/>
      <point x="295" y="651"/>
      <point x="260" y="681"/>
      <point x="207" y="681" type="curve" smooth="yes"/>
      <point x="163" y="681"/>
      <point x="141" y="660"/>
      <point x="139" y="613" type="curve"/>
      <point x="139" y="608"/>
      <point x="139" y="601"/>
      <point x="138" y="592" type="curve"/>
      <point x="126" y="365" type="line"/>
    </contour>
  </outline>
</glyph>
<glyph name="parenleft" format="1">
  <advance width="260"/>
  <unicode hex="0028"/>
  <outline>
    <contour>
      <point x="388" y="710" type="line"/>
      <point x="357" y="710"/>
      <point x="335" y="708"/>
      <point x="315" y="704" type="curve" smooth="yes"/>
      <point x="220" y="683"/>
      <point x="141" y="597"/>
      <point x="104" y="472" type="curve" smooth="yes"/>
      <point x="69" y="354"/>
      <point x="31" y="136"/>
      <point x="31" y="56" type="curve" smooth="yes"/>
      <point x="31" y="-13"/>
      <point x="60" y="-79"/>
      <point x="107" y="-112" type="curve" smooth="yes"/>
      <point x="139" y="-136"/>
      <point x="167" y="-144"/>
      <point x="223" y="-145" type="curve" smooth="yes"/>
      <point x="233" y="-145" type="line"/>
      <point x="246" y="-75" type="line"/>
      <point x="195" y="-59"/>
      <point x="174" y="-28"/>
      <point x="174" y="33" type="curve" smooth="yes"/>
      <point x="174" y="169"/>
      <point x="231" y="446"/>
      <point x="280" y="549" type="curve" smooth="yes"/>
      <point x="306" y="604"/>
      <point x="335" y="631"/>
      <point x="375" y="636" type="curve"/>
    </contour>
  </outline>
</glyph>
<glyph name="parenright" format="1">
  <advance width="260"/>
  <unicode hex="0029"/>
  <outline>
    <contour>
      <point x="-35" y="-145" type="line"/>
      <point x="-33" y="-145"/>
      <point x="-28" y="-144"/>
      <point x="-21" y="-145" type="curve"/>
      <point x="27" y="-148"/>
      <point x="89" y="-128"/>
      <point x="132" y="-94" type="curve" smooth="yes"/>
      <point x="197" y="-43"/>
      <point x="237" y="33"/>
      <point x="268" y="165" type="curve" smooth="yes"/>
      <point x="299" y="299"/>
      <point x="322" y="445"/>
      <point x="322" y="509" type="curve" smooth="yes"/>
      <point x="322" y="597"/>
      <point x="278" y="671"/>
      <point x="210" y="697" type="curve" smooth="yes"/>
      <point x="183" y="707"/>
      <point x="163" y="710"/>
      <point x="120" y="710" type="curve"/>
      <point x="107" y="640" type="line"/>
      <point x="158" y="624"/>
      <point x="179" y="592"/>
      <point x="179" y="532" type="curve" smooth="yes"/>
      <point x="179" y="395"/>
      <point x="122" y="118"/>
      <point x="73" y="16" type="curve" smooth="yes"/>
      <point x="47" y="-39"/>
      <point x="18" y="-66"/>
      <point x="-22" y="-72" type="curve"/>
    </contour>
  </outline>
</glyph>
<glyph name="asterisk" format="1">
  <advance width="460"/>
  <unicode hex="002A"/>
  <outline>
    <contour>
      <point x="270" y="540" type="line"/>
      <point x="211" y="562" type="line" smooth="yes"/>
      <point x="194" y="568"/>
      <point x="184" y="571"/>
      <point x="174" y="571" type="curve" smooth="yes"/>
      <point x="148" y="571"/>
      <point x="126" y="544"/>
      <point x="126" y="512" type="curve" smooth="yes"/>
      <point x="126" y="489"/>
      <point x="139" y="475"/>
      <point x="162" y="475" type="curve" smooth="yes"/>
      <point x="171" y="475"/>
      <point x="180" y="477"/>
      <point x="197" y="484" type="curve" smooth="yes"/>
      <point x="264" y="508" type="line"/>
      <point x="270" y="487" type="line"/>
      <point x="212" y="442" type="line" smooth="yes"/>
      <point x="184" y="420"/>
      <point x="173" y="405"/>
      <point x="173" y="386" type="curve" smooth="yes"/>
      <point x="173" y="366"/>
      <point x="195" y="346"/>
      <point x="219" y="346" type="curve" smooth="yes"/>
      <point x="243" y="346"/>
      <point x="260" y="364"/>
      <point x="273" y="403" type="curve" smooth="yes"/>
      <point x="295" y="471" type="line"/>
      <point x="318" y="469" type="line"/>
      <point x="319" y="402" type="line" smooth="yes"/>
      <point x="319" y="363"/>
      <point x="330" y="345"/>
      <point x="352" y="345" type="curve" smooth="yes"/>
      <point x="383" y="345"/>
      <point x="416" y="373"/>
      <point x="416" y="400" type="curve" smooth="yes"/>
      <point x="416" y="413"/>
      <point x="408" y="427"/>
      <point x="393" y="442" type="curve" smooth="yes"/>
      <point x="348" y="485" type="line"/>
      <point x="365" y="504" type="line"/>
      <point x="424" y="482" type="line" smooth="yes"/>
      <point x="439" y="477"/>
      <point x="450" y="474"/>
      <point x="459" y="474" type="curve" smooth="yes"/>
      <point x="486" y="474"/>
      <point x="508" y="500"/>
      <point x="508" y="533" type="curve" smooth="yes"/>
      <point x="508" y="555"/>
      <point x="495" y="569"/>
      <point x="473" y="569" type="curve" smooth="yes"/>
      <point x="465" y="569"/>
      <point x="452" y="566"/>
      <point x="437" y="560" type="curve" smooth="yes"/>
      <point x="370" y="536" type="line"/>
      <point x="364" y="557" type="line"/>
      <point x="422" y="602" type="line" smooth="yes"/>
      <point x="452" y="624"/>
      <point x="462" y="638"/>
      <point x="462" y="657" type="curve" smooth="yes"/>
      <point x="462" y="678"/>
      <point x="440" y="697"/>
      <point x="416" y="697" type="curve" smooth="yes"/>
      <point x="392" y="697"/>
      <point x="374" y="679"/>
      <point x="362" y="641" type="curve" smooth="yes"/>
      <point x="340" y="573" type="line"/>
      <point x="317" y="576" type="line"/>
      <point x="315" y="642" type="line" smooth="yes"/>
      <point x="315" y="657"/>
      <point x="315" y="662"/>
      <point x="313" y="668" type="curve"/>
      <point x="310" y="687"/>
      <point x="298" y="699"/>
      <point x="282" y="699" type="curve" smooth="yes"/>
      <point x="251" y="699"/>
      <point x="219" y="671"/>
      <point x="219" y="644" type="curve" smooth="yes"/>
      <point x="219" y="632"/>
      <point x="227" y="616"/>
      <point x="242" y="602" type="curve" smooth="yes"/>
      <point x="287" y="560" type="line"/>
    </contour>
  </outline>
</glyph>
<glyph name="plus" format="1">
  <advance width="600"/>
  <unicode hex="002B"/>
  <outline>
    <contour>
      <point x="595" y="293" type="line"/>
      <point x="595" y="407" type="line"/>
      <point x="401" y="407" type="line"/>
      <point x="401" y="593" type="line"/>
      <point x="285" y="593" type="line"/>
      <point x="285" y="407" type="line"/>
      <point x="91" y="407" type="line"/>
      <point x="91" y="293" type="line"/>
      <point x="285" y="293" type="line"/>
      <point x="285" y="107" type="line"/>
      <point x="401" y="107" type="line"/>
      <point x="401" y="293" type="line"/>
    </contour>
  </outline>
</glyph>
<glyph name="comma" format="1">
  <advance width="340"/>
  <unicode hex="002C"/>
  <outline>
    <contour>
      <point x="139" y="-130" type="line"/>
      <point x="236" y="-66"/>
      <point x="298" y="24"/>
      <point x="298" y="98" type="curve" smooth="yes"/>
      <point x="298" y="146"/>
      <point x="266" y="179"/>
      <point x="219" y="179" type="curve" smooth="yes"/>
      <point x="157" y="179"/>
      <point x="100" y="124"/>
      <point x="100" y="64" type="curve" smooth="yes"/>
      <point x="100" y="20"/>
      <point x="126" y="-7"/>
      <point x="166" y="-7" type="curve" smooth="yes"/>
      <point x="171" y="-7"/>
      <point x="174" y="-7"/>
      <point x="181" y="-6" type="curve"/>
      <point x="174" y="-23"/>
      <point x="141" y="-59"/>
      <point x="101" y="-94" type="curve"/>
    </contour>
  </outline>
</glyph>
<glyph name="hyphen" format="1">
  <advance width="280"/>
  <unicode hex="002D"/>
  <outline>
    <contour>
      <point x="93" y="314" type="line"/>
      <point x="59" y="224" type="line"/>
      <point x="286" y="224" type="line"/>
      <point x="319" y="314" type="line"/>
    </contour>
  </outline>
</glyph>
<glyph name="period" format="1">
  <advance width="340"/>
  <unicode hex="002E"/>
  <outline>
    <contour>
      <point x="221" y="172" type="curve" smooth="yes"/>
      <point x="160" y="172"/>
      <point x="106" y="120"/>
      <point x="106" y="60" type="curve" smooth="yes"/>
      <point x="106" y="19"/>
      <point x="140" y="-13"/>
      <point x="184" y="-13" type="curve" smooth="yes"/>
      <point x="242" y="-13"/>
      <point x="296" y="39"/>
      <point x="296" y="94" type="curve" smooth="yes"/>
      <point x="296" y="139"/>
      <point x="264" y="172"/>
    </contour>
  </outline>
</glyph>
<glyph name="slash" format="1">
  <advance width="360"/>
  <unicode hex="002F"/>
  <outline>
    <contour>
      <point x="502" y="710" type="line"/>
      <point x="368" y="710" type="line"/>
      <point x="9" y="-145" type="line"/>
      <point x="145" y="-145" type="line"/>
    </contour>
  </outline>
</glyph>
<glyph name="zero" format="1">
  <advance width="680"/>
  <unicode hex="0030"/>
  <outline>
    <contour>
      <point x="454" y="694" type="curve" smooth="yes"/>
      <point x="375" y="694"/>
      <point x="292" y="662"/>
      <point x="228" y="607" type="curve" smooth="yes"/>
      <point x="145" y="535"/>
      <point x="87" y="386"/>
      <point x="87" y="246" type="curve" smooth="yes"/>
      <point x="87" y="88"/>
      <point x="183" y="-13"/>
      <point x="335" y="-13" type="curve" smooth="yes"/>
      <point x="433" y="-13"/>
      <point x="523" y="26"/>
      <point x="586" y="97" type="curve" smooth="yes"/>
      <point x="655" y="174"/>
      <point x="703" y="306"/>
      <point x="703" y="418" type="curve" smooth="yes"/>
      <point x="703" y="592"/>
      <point x="611" y="694"/>
    </contour>
    <contour>
      <point x="441" y="612" type="curve" smooth="yes"/>
      <point x="471" y="612"/>
      <point x="501" y="594"/>
      <point x="515" y="568" type="curve" smooth="yes"/>
      <point x="529" y="542"/>
      <point x="535" y="509"/>
      <point x="535" y="458" type="curve" smooth="yes"/>
      <point x="535" y="379"/>
      <point x="506" y="245"/>
      <point x="475" y="177" type="curve" smooth="yes"/>
      <point x="445" y="112"/>
      <point x="399" y="75"/>
      <point x="348" y="75" type="curve" smooth="yes"/>
      <point x="290" y="75"/>
      <point x="255" y="126"/>
      <point x="255" y="210" type="curve" smooth="yes"/>
      <point x="255" y="308"/>
      <point x="283" y="444"/>
      <point x="318" y="519" type="curve" smooth="yes"/>
      <point x="347" y="579"/>
      <point x="390" y="612"/>
    </contour>
  </outline>
</glyph>
<glyph name="one" format="1">
  <advance width="680"/>
  <unicode hex="0031"/>
  <outline>
    <contour>
      <point x="547" y="681" type="line"/>
      <point x="492" y="681" type="line"/>
      <point x="430" y="659"/>
      <point x="407" y="656"/>
      <point x="260" y="647" type="curve"/>
      <point x="258" y="647"/>
      <point x="251" y="647"/>
      <point x="242" y="648" type="curve"/>
      <point x="228" y="566" type="line"/>
      <point x="277" y="565" type="line" smooth="yes"/>
      <point x="323" y="564"/>
      <point x="344" y="553"/>
      <point x="344" y="531" type="curve" smooth="yes"/>
      <point x="344" y="524"/>
      <point x="342" y="509"/>
      <point x="339" y="492" type="curve" smooth="yes"/>
      <point x="276" y="144" type="line" smooth="yes"/>
      <point x="268" y="99"/>
      <point x="247" y="84"/>
      <point x="192" y="83" type="curve" smooth="yes"/>
      <point x="138" y="81" type="line"/>
      <point x="123" y="0" type="line"/>
      <point x="550" y="0" type="line"/>
      <point x="565" y="81" type="line"/>
      <point x="514" y="83" type="line" smooth="yes"/>
      <point x="465" y="85"/>
      <point x="447" y="94"/>
      <point x="447" y="119" type="curve" smooth="yes"/>
      <point x="447" y="125"/>
      <point x="449" y="139"/>
      <point x="452" y="156" type="curve" smooth="yes"/>
    </contour>
  </outline>
</glyph>
<glyph name="two" format="1">
  <advance width="680"/>
  <unicode hex="0032"/>
  <outline>
    <contour>
      <point x="664" y="207" type="line"/>
      <point x="595" y="232" type="line"/>
      <point x="540" y="143"/>
      <point x="521" y="133"/>
      <point x="405" y="133" type="curve" smooth="yes"/>
      <point x="282" y="133" type="line"/>
      <point x="377" y="191" type="line" smooth="yes"/>
      <point x="510" y="271"/>
      <point x="563" y="310"/>
      <point x="611" y="364" type="curve" smooth="yes"/>
      <point x="654" y="413"/>
      <point x="674" y="461"/>
      <point x="674" y="513" type="curve" smooth="yes"/>
      <point x="674" y="623"/>
      <point x="576" y="694"/>
      <point x="421" y="694" type="curve" smooth="yes"/>
      <point x="325" y="694"/>
      <point x="250" y="666"/>
      <point x="193" y="611" type="curve" smooth="yes"/>
      <point x="153" y="571"/>
      <point x="132" y="528"/>
      <point x="132" y="485" type="curve" smooth="yes"/>
      <point x="132" y="437"/>
      <point x="163" y="404"/>
      <point x="208" y="404" type="curve" smooth="yes"/>
      <point x="254" y="404"/>
      <point x="298" y="446"/>
      <point x="298" y="489" type="curve" smooth="yes"/>
      <point x="298" y="500"/>
      <point x="295" y="507"/>
      <point x="285" y="522" type="curve" smooth="yes"/>
      <point x="277" y="534"/>
      <point x="274" y="541"/>
      <point x="274" y="548" type="curve" smooth="yes"/>
      <point x="274" y="581"/>
      <point x="330" y="612"/>
      <point x="390" y="612" type="curve" smooth="yes"/>
      <point x="445" y="612"/>
      <point x="485" y="576"/>
      <point x="485" y="527" type="curve" smooth="yes"/>
      <point x="485" y="457"/>
      <point x="439" y="375"/>
      <point x="357" y="300" type="curve" smooth="yes"/>
      <point x="286" y="234"/>
      <point x="247" y="207"/>
      <point x="96" y="119" type="curve" smooth="yes"/>
      <point x="67" y="102" type="line"/>
      <point x="75" y="0" type="line"/>
      <point x="570" y="0" type="line"/>
    </contour>
  </outline>
</glyph>
<glyph name="three" format="1">
  <advance width="680"/>
  <unicode hex="0033"/>
  <outline>
    <contour>
      <point x="296" y="325" type="line"/>
      <point x="322" y="325" type="line" smooth="yes"/>
      <point x="429" y="325"/>
      <point x="472" y="295"/>
      <point x="472" y="222" type="curve" smooth="yes"/>
      <point x="472" y="186"/>
      <point x="460" y="151"/>
      <point x="438" y="124" type="curve" smooth="yes"/>
      <point x="412" y="91"/>
      <point x="376" y="75"/>
      <point x="327" y="75" type="curve" smooth="yes"/>
      <point x="273" y="75"/>
      <point x="224" y="99"/>
      <point x="224" y="126" type="curve" smooth="yes"/>
      <point x="224" y="128"/>
      <point x="225" y="131"/>
      <point x="226" y="134" type="curve"/>
      <point x="241" y="170"/>
      <point x="241" y="170"/>
      <point x="241" y="183" type="curve" smooth="yes"/>
      <point x="241" y="218"/>
      <point x="209" y="246"/>
      <point x="168" y="246" type="curve" smooth="yes"/>
      <point x="116" y="246"/>
      <point x="72" y="199"/>
      <point x="72" y="142" type="curve" smooth="yes"/>
      <point x="72" y="51"/>
      <point x="176" y="-13"/>
      <point x="323" y="-13" type="curve" smooth="yes"/>
      <point x="516" y="-13"/>
      <point x="665" y="91"/>
      <point x="665" y="225" type="curve" smooth="yes"/>
      <point x="665" y="293"/>
      <point x="629" y="338"/>
      <point x="554" y="362" type="curve"/>
      <point x="633" y="392"/>
      <point x="683" y="453"/>
      <point x="683" y="522" type="curve" smooth="yes"/>
      <point x="683" y="624"/>
      <point x="580" y="694"/>
      <point x="428" y="694" type="curve" smooth="yes"/>
      <point x="356" y="694"/>
      <point x="288" y="676"/>
      <point x="241" y="645" type="curve" smooth="yes"/>
      <point x="184" y="608"/>
      <point x="152" y="557"/>
      <point x="152" y="506" type="curve" smooth="yes"/>
      <point x="152" y="467"/>
      <point x="183" y="439"/>
      <point x="227" y="439" type="curve" smooth="yes"/>
      <point x="273" y="439"/>
      <point x="318" y="476"/>
      <point x="318" y="514" type="curve" smooth="yes"/>
      <point x="318" y="520"/>
      <point x="316" y="533"/>
      <point x="311" y="551" type="curve"/>
      <point x="310" y="554"/>
      <point x="310" y="557"/>
      <point x="310" y="560" type="curve" smooth="yes"/>
      <point x="310" y="582"/>
      <point x="360" y="606"/>
      <point x="408" y="606" type="curve" smooth="yes"/>
      <point x="469" y="606"/>
      <point x="501" y="578"/>
      <point x="501" y="525" type="curve" smooth="yes"/>
      <point x="501" y="483"/>
      <point x="479" y="444"/>
      <point x="446" y="427" type="curve" smooth="yes"/>
      <point x="421" y="414"/>
      <point x="395" y="409"/>
      <point x="346" y="409" type="curve" smooth="yes"/>
      <point x="312" y="409" type="line"/>
    </contour>
  </outline>
</glyph>
<glyph name="four" format="1">
  <advance width="680"/>
  <unicode hex="0034"/>
  <outline>
    <contour>
      <point x="635" y="681" type="line"/>
      <point x="472" y="681" type="line"/>
      <point x="223" y="423" type="line" smooth="yes"/>
      <point x="161" y="358"/>
      <point x="118" y="316"/>
      <point x="63" y="264" type="curve"/>
      <point x="84" y="183" type="line"/>
      <point x="382" y="183" type="line"/>
      <point x="380" y="170" type="line" smooth="yes"/>
      <point x="368" y="105"/>
      <point x="352" y="88"/>
      <point x="299" y="83" type="curve" smooth="yes"/>
      <point x="271" y="81" type="line"/>
      <point x="257" y="0" type="line"/>
      <point x="603" y="0" type="line"/>
      <point x="618" y="81" type="line"/>
      <point x="593" y="83" type="line" smooth="yes"/>
      <point x="556" y="86"/>
      <point x="536" y="104"/>
      <point x="536" y="132" type="curve" smooth="yes"/>
      <point x="536" y="139"/>
      <point x="536" y="142"/>
      <point x="537" y="147" type="curve" smooth="yes"/>
      <point x="544" y="183" type="line"/>
      <point x="659" y="183" type="line"/>
      <point x="708" y="283" type="line"/>
      <point x="563" y="283" type="line"/>
    </contour>
    <contour>
      <point x="400" y="283" type="line"/>
      <point x="202" y="283" type="line"/>
      <point x="329" y="415" type="line"/>
      <point x="427" y="524" type="line"/>
      <point x="434" y="531"/>
      <point x="443" y="541"/>
      <point x="448" y="547" type="curve"/>
    </contour>
  </outline>
</glyph>
<glyph name="five" format="1">
  <advance width="680"/>
  <unicode hex="0035"/>
  <outline>
    <contour>
      <point x="291" y="548" type="line"/>
      <point x="626" y="548" type="line"/>
      <point x="669" y="681" type="line"/>
      <point x="221" y="681" type="line"/>
      <point x="141" y="319" type="line"/>
      <point x="214" y="294" type="line"/>
      <point x="256" y="350"/>
      <point x="313" y="383"/>
      <point x="367" y="383" type="curve" smooth="yes"/>
      <point x="430" y="383"/>
      <point x="472" y="334"/>
      <point x="472" y="261" type="curve" smooth="yes"/>
      <point x="472" y="156"/>
      <point x="402" y="75"/>
      <point x="311" y="75" type="curve" smooth="yes"/>
      <point x="272" y="75"/>
      <point x="241" y="91"/>
      <point x="241" y="111" type="curve" smooth="yes"/>
      <point x="241" y="114"/>
      <point x="242" y="118"/>
      <point x="243" y="121" type="curve"/>
      <point x="254" y="143"/>
      <point x="258" y="157"/>
      <point x="258" y="170" type="curve" smooth="yes"/>
      <point x="258" y="209"/>
      <point x="222" y="240"/>
      <point x="177" y="240" type="curve" smooth="yes"/>
      <point x="122" y="240"/>
      <point x="78" y="194"/>
      <point x="78" y="135" type="curve" smooth="yes"/>
      <point x="78" y="49"/>
      <point x="178" y="-13"/>
      <point x="318" y="-13" type="curve" smooth="yes"/>
      <point x="409" y="-13"/>
      <point x="494" y="11"/>
      <point x="555" y="54" type="curve" smooth="yes"/>
      <point x="625" y="103"/>
      <point x="669" y="189"/>
      <point x="669" y="274" type="curve" smooth="yes"/>
      <point x="669" y="393"/>
      <point x="575" y="475"/>
      <point x="440" y="475" type="curve" smooth="yes"/>
      <point x="374" y="475"/>
      <point x="310" y="459"/>
      <point x="262" y="431" type="curve"/>
    </contour>
  </outline>
</glyph>
<glyph name="six" format="1">
  <advance width="680"/>
  <unicode hex="0036"/>
  <outline>
    <contour>
      <point x="271" y="392" type="curve"/>
      <point x="282" y="440"/>
      <point x="282" y="442"/>
      <point x="293" y="469" type="curve" smooth="yes"/>
      <point x="329" y="557"/>
      <point x="389" y="606"/>
      <point x="465" y="606" type="curve" smooth="yes"/>
      <point x="487" y="606"/>
      <point x="514" y="600"/>
      <point x="529" y="592" type="curve" smooth="yes"/>
      <point x="541" y="586"/>
      <point x="542" y="584"/>
      <point x="544" y="560" type="curve" smooth="yes"/>
      <point x="546" y="531"/>
      <point x="550" y="519"/>
      <point x="561" y="507" type="curve" smooth="yes"/>
      <point x="574" y="493"/>
      <point x="595" y="484"/>
      <point x="617" y="484" type="curve" smooth="yes"/>
      <point x="664" y="484"/>
      <point x="704" y="524"/>
      <point x="704" y="571" type="curve" smooth="yes"/>
      <point x="704" y="640"/>
      <point x="603" y="694"/>
      <point x="475" y="694" type="curve" smooth="yes"/>
      <point x="348" y="694"/>
      <point x="236" y="641"/>
      <point x="176" y="552" type="curve" smooth="yes"/>
      <point x="122" y="472"/>
      <point x="88" y="355"/>
      <point x="88" y="246" type="curve" smooth="yes"/>
      <point x="88" y="161"/>
      <point x="113" y="93"/>
      <point x="160" y="51" type="curve" smooth="yes"/>
      <point x="205" y="11"/>
      <point x="280" y="-13"/>
      <point x="359" y="-13" type="curve" smooth="yes"/>
      <point x="540" y="-13"/>
      <point x="681" y="103"/>
      <point x="681" y="253" type="curve" smooth="yes"/>
      <point x="681" y="370"/>
      <point x="592" y="448"/>
      <point x="459" y="448" type="curve" smooth="yes"/>
      <point x="385" y="448"/>
      <point x="331" y="432"/>
    </contour>
    <contour>
      <point x="404" y="360" type="curve" smooth="yes"/>
      <point x="474" y="360"/>
      <point x="513" y="320"/>
      <point x="513" y="249" type="curve" smooth="yes"/>
      <point x="513" y="146"/>
      <point x="453" y="75"/>
      <point x="364" y="75" type="curve" smooth="yes"/>
      <point x="294" y="75"/>
      <point x="251" y="118"/>
      <point x="251" y="188" type="curve" smooth="yes"/>
      <point x="251" y="287"/>
      <point x="316" y="360"/>
    </contour>
  </outline>
</glyph>
<glyph name="seven" format="1">
  <advance width="680"/>
  <unicode hex="0037"/>
  <outline>
    <contour>
      <point x="739" y="681" type="line"/>
      <point x="191" y="681" type="line"/>
      <point x="123" y="466" type="line"/>
      <point x="197" y="446" type="line"/>
      <point x="228" y="500"/>
      <point x="254" y="530"/>
      <point x="278" y="540" type="curve" smooth="yes"/>
      <point x="294" y="546"/>
      <point x="313" y="548"/>
      <point x="357" y="548" type="curve" smooth="yes"/>
      <point x="598" y="548" type="line"/>
      <point x="595" y="544"/>
      <point x="592" y="540"/>
      <point x="588" y="537" type="curve"/>
      <point x="466" y="406" type="line" smooth="yes"/>
      <point x="418" y="355"/>
      <point x="369" y="288"/>
      <point x="322" y="207" type="curve" smooth="yes"/>
      <point x="280" y="133"/>
      <point x="251" y="63"/>
      <point x="236" y="0" type="curve"/>
      <point x="437" y="0" type="line"/>
      <point x="473" y="222"/>
      <point x="540" y="355"/>
      <point x="736" y="590" type="curve"/>
    </contour>
  </outline>
</glyph>
<glyph name="eight" format="1">
  <advance width="680"/>
  <unicode hex="0038"/>
  <outline>
    <contour>
      <point x="564" y="378" type="curve"/>
      <point x="650" y="424"/>
      <point x="686" y="471"/>
      <point x="686" y="535" type="curve" smooth="yes"/>
      <point x="686" y="630"/>
      <point x="586" y="694"/>
      <point x="437" y="694" type="curve" smooth="yes"/>
      <point x="331" y="694"/>
      <point x="245" y="658"/>
      <point x="193" y="592" type="curve" smooth="yes"/>
      <point x="164" y="555"/>
      <point x="146" y="507"/>
      <point x="146" y="465" type="curve" smooth="yes"/>
      <point x="146" y="434"/>
      <point x="159" y="400"/>
      <point x="180" y="379" type="curve"/>
      <point x="190" y="370"/>
      <point x="198" y="364"/>
      <point x="220" y="349" type="curve"/>
      <point x="181" y="332"/>
      <point x="164" y="323"/>
      <point x="142" y="309" type="curve" smooth="yes"/>
      <point x="96" y="277"/>
      <point x="68" y="223"/>
      <point x="68" y="166" type="curve" smooth="yes"/>
      <point x="68" y="57"/>
      <point x="176" y="-13"/>
      <point x="342" y="-13" type="curve" smooth="yes"/>
      <point x="534" y="-13"/>
      <point x="674" y="91"/>
      <point x="674" y="234" type="curve" smooth="yes"/>
      <point x="674" y="299"/>
      <point x="643" y="340"/>
    </contour>
    <contour>
      <point x="463" y="422" type="line"/>
      <point x="350" y="469"/>
      <point x="314" y="496"/>
      <point x="314" y="530" type="curve" smooth="yes"/>
      <point x="314" y="572"/>
      <point x="367" y="606"/>
      <point x="432" y="606" type="curve" smooth="yes"/>
      <point x="505" y="606"/>
      <point x="554" y="574"/>
      <point x="554" y="526" type="curve" smooth="yes"/>
      <point x="554" y="483"/>
      <point x="520" y="444"/>
      <point x="467" y="424" type="curve"/>
    </contour>
    <contour>
      <point x="307" y="304" type="curve"/>
      <point x="360" y="286"/>
      <point x="419" y="260"/>
      <point x="459" y="236" type="curve" smooth="yes"/>
      <point x="494" y="215"/>
      <point x="506" y="199"/>
      <point x="506" y="171" type="curve" smooth="yes"/>
      <point x="506" y="114"/>
      <point x="446" y="75"/>
      <point x="358" y="75" type="curve" smooth="yes"/>
      <point x="260" y="75"/>
      <point x="205" y="112"/>
      <point x="205" y="178" type="curve" smooth="yes"/>
      <point x="205" y="232"/>
      <point x="243" y="279"/>
    </contour>
  </outline>
</glyph>
<glyph name="nine" format="1">
  <advance width="680"/>
  <unicode hex="0039"/>
  <outline>
    <contour>
      <point x="521" y="294" type="curve"/>
      <point x="503" y="229"/>
      <point x="490" y="194"/>
      <point x="467" y="157" type="curve" smooth="yes"/>
      <point x="435" y="105"/>
      <point x="376" y="75"/>
      <point x="307" y="75" type="curve" smooth="yes"/>
      <point x="283" y="75"/>
      <point x="263" y="78"/>
      <point x="247" y="85" type="curve"/>
      <point x="237" y="90"/>
      <point x="235" y="94"/>
      <point x="234" y="106" type="curve" smooth="yes"/>
      <point x="230" y="162"/>
      <point x="208" y="188"/>
      <point x="163" y="188" type="curve" smooth="yes"/>
      <point x="114" y="188"/>
      <point x="71" y="147"/>
      <point x="71" y="99" type="curve" smooth="yes"/>
      <point x="71" y="32"/>
      <point x="158" y="-13"/>
      <point x="287" y="-13" type="curve" smooth="yes"/>
      <point x="399" y="-13"/>
      <point x="493" y="20"/>
      <point x="566" y="87" type="curve" smooth="yes"/>
      <point x="657" y="169"/>
      <point x="712" y="302"/>
      <point x="712" y="441" type="curve" smooth="yes"/>
      <point x="712" y="522"/>
      <point x="693" y="582"/>
      <point x="655" y="623" type="curve" smooth="yes"/>
      <point x="613" y="668"/>
      <point x="541" y="694"/>
      <point x="455" y="694" type="curve" smooth="yes"/>
      <point x="268" y="694"/>
      <point x="115" y="569"/>
      <point x="115" y="415" type="curve" smooth="yes"/>
      <point x="115" y="305"/>
      <point x="197" y="235"/>
      <point x="325" y="235" type="curve" smooth="yes"/>
      <point x="397" y="235"/>
      <point x="450" y="251"/>
    </contour>
    <contour>
      <point x="443" y="606" type="curve" smooth="yes"/>
      <point x="506" y="606"/>
      <point x="544" y="566"/>
      <point x="544" y="500" type="curve" smooth="yes"/>
      <point x="544" y="406"/>
      <point x="473" y="331"/>
      <point x="385" y="331" type="curve" smooth="yes"/>
      <point x="321" y="331"/>
      <point x="288" y="367"/>
      <point x="288" y="436" type="curve" smooth="yes"/>
      <point x="288" y="533"/>
      <point x="355" y="606"/>
    </contour>
  </outline>
</glyph>
<glyph name="colon" format="1">
  <advance width="340"/>
  <unicode hex="003A"/>
  <outline>
    <contour>
      <point x="281" y="520" type="curve" smooth="yes"/>
      <point x="220" y="520"/>
      <point x="166" y="468"/>
      <point x="166" y="408" type="curve" smooth="yes"/>
      <point x="166" y="367"/>
      <point x="200" y="335"/>
      <point x="244" y="335" type="curve" smooth="yes"/>
      <point x="302" y="335"/>
      <point x="356" y="387"/>
      <point x="356" y="442" type="curve" smooth="yes"/>
      <point x="356" y="487"/>
      <point x="324" y="520"/>
    </contour>
    <contour>
      <point x="221" y="172" type="curve" smooth="yes"/>
      <point x="160" y="172"/>
      <point x="106" y="120"/>
      <point x="106" y="60" type="curve" smooth="yes"/>
      <point x="106" y="19"/>
      <point x="140" y="-13"/>
      <point x="184" y="-13" type="curve" smooth="yes"/>
      <point x="242" y="-13"/>
      <point x="296" y="39"/>
      <point x="296" y="94" type="curve" smooth="yes"/>
      <point x="296" y="139"/>
      <point x="264" y="172"/>
    </contour>
  </outline>
</glyph>
<glyph name="semicolon" format="1">
  <advance width="340"/>
  <unicode hex="003B"/>
  <outline>
    <contour>
      <point x="139" y="-130" type="line"/>
      <point x="236" y="-66"/>
      <point x="298" y="23"/>
      <point x="298" y="98" type="curve" smooth="yes"/>
      <point x="298" y="146"/>
      <point x="266" y="179"/>
      <point x="219" y="179" type="curve" smooth="yes"/>
      <point x="157" y="179"/>
      <point x="100" y="124"/>
      <point x="100" y="64" type="curve" smooth="yes"/>
      <point x="100" y="20"/>
      <point x="126" y="-7"/>
      <point x="166" y="-7" type="curve" smooth="yes"/>
      <point x="171" y="-7"/>
      <point x="174" y="-7"/>
      <point x="181" y="-6" type="curve"/>
      <point x="174" y="-23"/>
      <point x="140" y="-59"/>
      <point x="101" y="-94" type="curve"/>
    </contour>
    <contour>
      <point x="277" y="520" type="curve" smooth="yes"/>
      <point x="216" y="520"/>
      <point x="162" y="467"/>
      <point x="162" y="408" type="curve" smooth="yes"/>
      <point x="162" y="367"/>
      <point x="196" y="335"/>
      <point x="240" y="335" type="curve" smooth="yes"/>
      <point x="298" y="335"/>
      <point x="352" y="387"/>
      <point x="352" y="442" type="curve" smooth="yes"/>
      <point x="352" y="487"/>
      <point x="320" y="520"/>
    </contour>
  </outline>
</glyph>
<glyph name="less" format="1">
  <advance width="620"/>
  <unicode hex="003C"/>
  <outline>
    <contour>
      <point x="237" y="350" type="line"/>
      <point x="588" y="514" type="line"/>
      <point x="588" y="643" type="line"/>
      <point x="79" y="405" type="line"/>
      <point x="79" y="294" type="line"/>
      <point x="588" y="56" type="line"/>
      <point x="588" y="185" type="line"/>
    </contour>
  </outline>
</glyph>
<glyph name="equal" format="1">
  <advance width="600"/>
  <unicode hex="003D"/>
  <outline>
    <contour>
      <point x="595" y="388" type="line"/>
      <point x="595" y="502" type="line"/>
      <point x="91" y="502" type="line"/>
      <point x="91" y="388" type="line"/>
    </contour>
    <contour>
      <point x="595" y="198" type="line"/>
      <point x="595" y="312" type="line"/>
      <point x="91" y="312" type="line"/>
      <point x="91" y="198" type="line"/>
    </contour>
  </outline>
</glyph>
<glyph name="greater" format="1">
  <advance width="620"/>
  <unicode hex="003E"/>
  <outline>
    <contour>
      <point x="440" y="350" type="line"/>
      <point x="89" y="185" type="line"/>
      <point x="89" y="56" type="line"/>
      <point x="598" y="294" type="line"/>
      <point x="598" y="405" type="line"/>
      <point x="89" y="643" type="line"/>
      <point x="89" y="514" type="line"/>
    </contour>
  </outline>
</glyph>
<glyph name="question" format="1">
  <advance width="620"/>
  <unicode hex="003F"/>
  <outline>
    <contour>
      <point x="417" y="215" type="line"/>
      <point x="425" y="269"/>
      <point x="443" y="288"/>
      <point x="510" y="314" type="curve" smooth="yes"/>
      <point x="609" y="354"/>
      <point x="668" y="433"/>
      <point x="668" y="523" type="curve" smooth="yes"/>
      <point x="668" y="625"/>
      <point x="571" y="694"/>
      <point x="428" y="694" type="curve" smooth="yes"/>
      <point x="274" y="694"/>
      <point x="145" y="607"/>
      <point x="145" y="504" type="curve" smooth="yes"/>
      <point x="145" y="458"/>
      <point x="174" y="429"/>
      <point x="221" y="429" type="curve" smooth="yes"/>
      <point x="264" y="429"/>
      <point x="305" y="468"/>
      <point x="305" y="510" type="curve" smooth="yes"/>
      <point x="305" y="516"/>
      <point x="304" y="523"/>
      <point x="301" y="531" type="curve"/>
      <point x="298" y="543"/>
      <point x="296" y="552"/>
      <point x="296" y="558" type="curve" smooth="yes"/>
      <point x="296" y="586"/>
      <point x="347" y="612"/>
      <point x="400" y="612" type="curve" smooth="yes"/>
      <point x="458" y="612"/>
      <point x="497" y="573"/>
      <point x="497" y="514" type="curve" smooth="yes"/>
      <point x="497" y="493"/>
      <point x="491" y="471"/>
      <point x="480" y="450" type="curve" smooth="yes"/>
      <point x="469" y="430"/>
      <point x="458" y="419"/>
      <point x="424" y="395" type="curve" smooth="yes"/>
      <point x="347" y="339"/>
      <point x="330" y="307"/>
      <point x="326" y="215" type="curve"/>
    </contour>
    <contour>
      <point x="369" y="161" type="curve" smooth="yes"/>
      <point x="318" y="161"/>
      <point x="273" y="116"/>
      <point x="273" y="65" type="curve" smooth="yes"/>
      <point x="273" y="20"/>
      <point x="306" y="-13"/>
      <point x="350" y="-13" type="curve" smooth="yes"/>
      <point x="403" y="-13"/>
      <point x="447" y="32"/>
      <point x="447" y="85" type="curve" smooth="yes"/>
      <point x="447" y="130"/>
      <point x="415" y="161"/>
    </contour>
  </outline>
</glyph>
<glyph name="at" format="1">
  <advance width="780"/>
  <unicode hex="0040"/>
  <outline>
    <contour>
      <point x="532" y="513" type="line"/>
      <point x="527" y="488" type="line"/>
      <point x="504" y="507"/>
      <point x="470" y="519"/>
      <point x="438" y="519" type="curve" smooth="yes"/>
      <point x="332" y="519"/>
      <point x="241" y="422"/>
      <point x="241" y="311" type="curve" smooth="yes"/>
      <point x="241" y="229"/>
      <point x="295" y="170"/>
      <point x="370" y="170" type="curve" smooth="yes"/>
      <point x="412" y="170"/>
      <point x="452" y="189"/>
      <point x="480" y="222" type="curve"/>
      <point x="489" y="188"/>
      <point x="517" y="170"/>
      <point x="560" y="170" type="curve" smooth="yes"/>
      <point x="592" y="170"/>
      <point x="635" y="184"/>
      <point x="671" y="205" type="curve" smooth="yes"/>
      <point x="746" y="249"/>
      <point x="787" y="322"/>
      <point x="787" y="408" type="curve" smooth="yes"/>
      <point x="787" y="487"/>
      <point x="753" y="561"/>
      <point x="693" y="613" type="curve" smooth="yes"/>
      <point x="632" y="666"/>
      <point x="539" y="700"/>
      <point x="454" y="700" type="curve" smooth="yes"/>
      <point x="367" y="700"/>
      <point x="269" y="665"/>
      <point x="203" y="610" type="curve" smooth="yes"/>
      <point x="125" y="545"/>
      <point x="80" y="449"/>
      <point x="80" y="346" type="curve" smooth="yes"/>
      <point x="80" y="147"/>
      <point x="247" y="-13"/>
      <point x="455" y="-13" type="curve" smooth="yes"/>
      <point x="551" y="-13"/>
      <point x="643" y="21"/>
      <point x="711" y="82" type="curve" smooth="yes"/>
      <point x="743" y="111"/>
      <point x="762" y="136"/>
      <point x="790" y="184" type="curve"/>
      <point x="719" y="184" type="line"/>
      <point x="657" y="95"/>
      <point x="571" y="52"/>
      <point x="455" y="52" type="curve" smooth="yes"/>
      <point x="280" y="52"/>
      <point x="152" y="177"/>
      <point x="152" y="347" type="curve" smooth="yes"/>
      <point x="152" y="512"/>
      <point x="281" y="635"/>
      <point x="455" y="635" type="curve" smooth="yes"/>
      <point x="604" y="635"/>
      <point x="716" y="533"/>
      <point x="716" y="397" type="curve" smooth="yes"/>
      <point x="716" y="337"/>
      <point x="694" y="290"/>
      <point x="650" y="259" type="curve" smooth="yes"/>
      <point x="633" y="247"/>
      <point x="617" y="240"/>
      <point x="606" y="240" type="curve" smooth="yes"/>
      <point x="593" y="240"/>
      <point x="582" y="252"/>
      <point x="582" y="267" type="curve" smooth="yes"/>
      <point x="582" y="275"/>
      <point x="582" y="276"/>
      <point x="587" y="300" type="curve" smooth="yes"/>
      <point x="626" y="513" type="line"/>
    </contour>
    <contour>
      <point x="511" y="440" type="curve"/>
      <point x="493" y="350"/>
      <point x="483" y="316"/>
      <point x="466" y="287" type="curve" smooth="yes"/>
      <point x="446" y="252"/>
      <point x="424" y="235"/>
      <point x="398" y="235" type="curve" smooth="yes"/>
      <point x="370" y="235"/>
      <point x="353" y="258"/>
      <point x="353" y="295" type="curve" smooth="yes"/>
      <point x="353" y="382"/>
      <point x="402" y="461"/>
      <point x="456" y="461" type="curve" smooth="yes"/>
      <point x="470" y="461"/>
      <point x="489" y="454"/>
      <point x="506" y="443" type="curve" smooth="yes"/>
      <point x="509" y="441"/>
      <point x="509" y="441"/>
    </contour>
  </outline>
</glyph>
<glyph name="B" format="1">
  <advance width="720"/>
  <unicode hex="0042"/>
  <outline>
    <contour>
      <point x="137" y="681" type="line"/>
      <point x="123" y="600" type="line"/>
      <point x="145" y="598" type="line" smooth="yes"/>
      <point x="181" y="595"/>
      <point x="198" y="580"/>
      <point x="198" y="552" type="curve" smooth="yes"/>
      <point x="198" y="542"/>
      <point x="196" y="525"/>
      <point x="194" y="513" type="curve" smooth="yes"/>
      <point x="131" y="168" type="line" smooth="yes"/>
      <point x="119" y="106"/>
      <point x="104" y="90"/>
      <point x="51" y="83" type="curve" smooth="yes"/>
      <point x="29" y="81" type="line"/>
      <point x="14" y="0" type="line"/>
      <point x="435" y="0" type="line" smooth="yes"/>
      <point x="530" y="0"/>
      <point x="604" y="22"/>
      <point x="657" y="66" type="curve" smooth="yes"/>
      <point x="707" y="108"/>
      <point x="739" y="172"/>
      <point x="739" y="232" type="curve" smooth="yes"/>
      <point x="739" y="310"/>
      <point x="675" y="364"/>
      <point x="581" y="366" type="curve"/>
      <point x="688" y="379"/>
      <point x="762" y="449"/>
      <point x="762" y="538" type="curve" smooth="yes"/>
      <point x="762" y="587"/>
      <point x="737" y="631"/>
      <point x="696" y="654" type="curve" smooth="yes"/>
      <point x="660" y="674"/>
      <point x="614" y="681"/>
      <point x="514" y="681" type="curve" smooth="yes"/>
    </contour>
    <contour>
      <point x="333" y="322" type="line"/>
      <point x="417" y="322" type="line" smooth="yes"/>
      <point x="510" y="322"/>
      <point x="545" y="298"/>
      <point x="545" y="233" type="curve" smooth="yes"/>
      <point x="545" y="192"/>
      <point x="528" y="155"/>
      <point x="495" y="125" type="curve" smooth="yes"/>
      <point x="463" y="95"/>
      <point x="430" y="84"/>
      <point x="378" y="84" type="curve" smooth="yes"/>
      <point x="326" y="84"/>
      <point x="301" y="96"/>
      <point x="301" y="121" type="curve" smooth="yes"/>
      <point x="301" y="124"/>
      <point x="304" y="151"/>
      <point x="311" y="201" type="curve" smooth="yes"/>
    </contour>
    <contour>
      <point x="348" y="405" type="line"/>
      <point x="370" y="525" type="line" smooth="yes"/>
      <point x="378" y="567"/>
      <point x="385" y="583"/>
      <point x="398" y="589" type="curve"/>
      <point x="413" y="597"/>
      <point x="434" y="600"/>
      <point x="465" y="600" type="curve" smooth="yes"/>
      <point x="544" y="600"/>
      <point x="585" y="572"/>
      <point x="585" y="517" type="curve" smooth="yes"/>
      <point x="585" y="444"/>
      <point x="523" y="405"/>
      <point x="410" y="405" type="curve" smooth="yes"/>
    </contour>
  </outline>
</glyph>
<glyph name="F" format="1">
  <advance width="660"/>
  <unicode hex="0046"/>
  <outline>
    <contour>
      <point x="709" y="681" type="line"/>
      <point x="137" y="681" type="line"/>
      <point x="123" y="600" type="line"/>
      <point x="145" y="598" type="line" smooth="yes"/>
      <point x="181" y="595"/>
      <point x="198" y="580"/>
      <point x="198" y="552" type="curve" smooth="yes"/>
      <point x="198" y="542"/>
      <point x="196" y="525"/>
      <point x="194" y="513" type="curve" smooth="yes"/>
      <point x="131" y="168" type="line" smooth="yes"/>
      <point x="119" y="106"/>
      <point x="104" y="90"/>
      <point x="51" y="83" type="curve" smooth="yes"/>
      <point x="29" y="81" type="line"/>
      <point x="14" y="0" type="line"/>
      <point x="374" y="0" type="line"/>
      <point x="389" y="81" type="line"/>
      <point x="361" y="83" type="line" smooth="yes"/>
      <point x="318" y="86"/>
      <point x="302" y="99"/>
      <point x="302" y="129" type="curve" smooth="yes"/>
      <point x="302" y="138"/>
      <point x="304" y="160"/>
      <point x="305" y="168" type="curve"/>
      <point x="332" y="312" type="line"/>
      <point x="377" y="312" type="line" smooth="yes"/>
      <point x="421" y="312"/>
      <point x="439" y="290"/>
      <point x="439" y="235" type="curve" smooth="yes"/>
      <point x="439" y="223"/>
      <point x="439" y="214"/>
      <point x="437" y="195" type="curve"/>
      <point x="505" y="195" type="line"/>
      <point x="563" y="511" type="line"/>
      <point x="494" y="511" type="line"/>
      <point x="489" y="490"/>
      <point x="484" y="475"/>
      <point x="476" y="458" type="curve" smooth="yes"/>
      <point x="456" y="416"/>
      <point x="435" y="402"/>
      <point x="390" y="402" type="curve" smooth="yes"/>
      <point x="380" y="402"/>
      <point x="372" y="402"/>
      <point x="360" y="403" type="curve"/>
      <point x="348" y="403" type="line"/>
      <point x="368" y="511" type="line" smooth="yes"/>
      <point x="380" y="582"/>
      <point x="394" y="593"/>
      <point x="463" y="593" type="curve" smooth="yes"/>
      <point x="521" y="593"/>
      <point x="565" y="578"/>
      <point x="605" y="546" type="curve" smooth="yes"/>
      <point x="636" y="521"/>
      <point x="643" y="512"/>
      <point x="691" y="434" type="curve"/>
      <point x="694" y="427" type="line"/>
      <point x="763" y="445" type="line"/>
    </contour>
  </outline>
</glyph>
<glyph name="K" format="1">
  <advance width="780"/>
  <unicode hex="004B"/>
  <outline>
    <contour>
      <point x="559" y="438" type="line"/>
      <point x="667" y="517" type="line" smooth="yes"/>
      <point x="736" y="567"/>
      <point x="785" y="588"/>
      <point x="864" y="600" type="curve"/>
      <point x="879" y="681" type="line"/>
      <point x="540" y="681" type="line"/>
      <point x="526" y="600" type="line"/>
      <point x="554" y="596" type="line" smooth="yes"/>
      <point x="577" y="593"/>
      <point x="589" y="588"/>
      <point x="589" y="579" type="curve" smooth="yes"/>
      <point x="589" y="572"/>
      <point x="580" y="564"/>
      <point x="550" y="540" type="curve" smooth="yes"/>
      <point x="344" y="378" type="line"/>
      <point x="368" y="513" type="line" smooth="yes"/>
      <point x="381" y="576"/>
      <point x="396" y="591"/>
      <point x="448" y="598" type="curve" smooth="yes"/>
      <point x="471" y="600" type="line"/>
      <point x="486" y="681" type="line"/>
      <point x="137" y="681" type="line"/>
      <point x="123" y="600" type="line"/>
      <point x="145" y="598" type="line" smooth="yes"/>
      <point x="181" y="595"/>
      <point x="198" y="580"/>
      <point x="198" y="552" type="curve" smooth="yes"/>
      <point x="198" y="542"/>
      <point x="196" y="525"/>
      <point x="194" y="513" type="curve" smooth="yes"/>
      <point x="131" y="168" type="line" smooth="yes"/>
      <point x="119" y="106"/>
      <point x="104" y="90"/>
      <point x="51" y="83" type="curve" smooth="yes"/>
      <point x="29" y="81" type="line"/>
      <point x="14" y="0" type="line"/>
      <point x="362" y="0" type="line"/>
      <point x="377" y="81" type="line"/>
      <point x="355" y="83" type="line" smooth="yes"/>
      <point x="319" y="86"/>
      <point x="302" y="101"/>
      <point x="302" y="129" type="curve" smooth="yes"/>
      <point x="302" y="138"/>
      <point x="304" y="159"/>
      <point x="305" y="168" type="curve"/>
      <point x="322" y="260" type="line"/>
      <point x="421" y="335" type="line"/>
      <point x="510" y="164" type="line" smooth="yes"/>
      <point x="522" y="141"/>
      <point x="528" y="124"/>
      <point x="528" y="116" type="curve" smooth="yes"/>
      <point x="528" y="96"/>
      <point x="518" y="90"/>
      <point x="465" y="83" type="curve" smooth="yes"/>
      <point x="454" y="81" type="line"/>
      <point x="440" y="0" type="line"/>
      <point x="798" y="0" type="line"/>
      <point x="813" y="81" type="line"/>
      <point x="751" y="98"/>
      <point x="739" y="109"/>
      <point x="694" y="191" type="curve" smooth="yes"/>
    </contour>
  </outline>
</glyph>
<glyph name="L" format="1">
  <advance width="640"/>
  <unicode hex="004C"/>
  <outline>
    <contour>
      <point x="725" y="234" type="line"/>
      <point x="656" y="271" type="line"/>
      <point x="654" y="268"/>
      <point x="652" y="266"/>
      <point x="651" y="264" type="curve"/>
      <point x="583" y="179"/>
      <point x="580" y="176"/>
      <point x="534" y="144" type="curve" smooth="yes"/>
      <point x="476" y="105"/>
      <point x="424" y="89"/>
      <point x="354" y="89" type="curve" smooth="yes"/>
      <point x="316" y="89"/>
      <point x="297" y="98"/>
      <point x="297" y="115" type="curve" smooth="yes"/>
      <point x="297" y="118"/>
      <point x="300" y="135"/>
      <point x="305" y="167" type="curve" smooth="yes"/>
      <point x="368" y="513" type="line" smooth="yes"/>
      <point x="381" y="575"/>
      <point x="396" y="591"/>
      <point x="448" y="598" type="curve"/>
      <point x="483" y="600" type="line"/>
      <point x="498" y="681" type="line"/>
      <point x="137" y="681" type="line"/>
      <point x="123" y="600" type="line"/>
      <point x="145" y="598" type="line" smooth="yes"/>
      <point x="181" y="595"/>
      <point x="198" y="580"/>
      <point x="198" y="552" type="curve" smooth="yes"/>
      <point x="198" y="542"/>
      <point x="196" y="525"/>
      <point x="194" y="513" type="curve" smooth="yes"/>
      <point x="131" y="168" type="line" smooth="yes"/>
      <point x="119" y="106"/>
      <point x="104" y="90"/>
      <point x="51" y="83" type="curve" smooth="yes"/>
      <point x="29" y="81" type="line"/>
      <point x="14" y="0" type="line"/>
      <point x="607" y="0" type="line"/>
    </contour>
  </outline>
</glyph>
<glyph name="M" format="1">
  <advance width="860"/>
  <unicode hex="004D"/>
  <outline>
    <contour>
      <point x="358" y="0" type="line"/>
      <point x="425" y="0" type="line"/>
      <point x="695" y="553" type="line"/>
      <point x="625" y="168" type="line" smooth="yes"/>
      <point x="612" y="105"/>
      <point x="597" y="90"/>
      <point x="544" y="83" type="curve" smooth="yes"/>
      <point x="522" y="81" type="line"/>
      <point x="507" y="0" type="line"/>
      <point x="846" y="0" type="line"/>
      <point x="861" y="81" type="line"/>
      <point x="846" y="83" type="line" smooth="yes"/>
      <point x="810" y="88"/>
      <point x="795" y="101"/>
      <point x="795" y="129" type="curve" smooth="yes"/>
      <point x="795" y="138"/>
      <point x="797" y="158"/>
      <point x="799" y="168" type="curve" smooth="yes"/>
      <point x="861" y="513" type="line" smooth="yes"/>
      <point x="874" y="575"/>
      <point x="888" y="590"/>
      <point x="940" y="598" type="curve" smooth="yes"/>
      <point x="955" y="600" type="line"/>
      <point x="970" y="681" type="line"/>
      <point x="666" y="681" type="line"/>
      <point x="480" y="303" type="line"/>
      <point x="437" y="681" type="line"/>
      <point x="137" y="681" type="line"/>
      <point x="123" y="600" type="line"/>
      <point x="136" y="598" type="line" smooth="yes"/>
      <point x="176" y="592"/>
      <point x="189" y="581"/>
      <point x="189" y="552" type="curve" smooth="yes"/>
      <point x="189" y="543"/>
      <point x="187" y="524"/>
      <point x="185" y="513" type="curve" smooth="yes"/>
      <point x="123" y="168" type="line" smooth="yes"/>
      <point x="109" y="105"/>
      <point x="96" y="90"/>
      <point x="42" y="83" type="curve" smooth="yes"/>
      <point x="29" y="81" type="line"/>
      <point x="14" y="0" type="line"/>
      <point x="286" y="0" type="line"/>
      <point x="301" y="81" type="line"/>
      <point x="267" y="83" type="line" smooth="yes"/>
      <point x="233" y="85"/>
      <point x="214" y="101"/>
      <point x="214" y="129" type="curve" smooth="yes"/>
      <point x="214" y="138"/>
      <point x="216" y="158"/>
      <point x="218" y="168" type="curve" smooth="yes"/>
      <point x="288" y="553" type="line"/>
    </contour>
  </outline>
</glyph>
<glyph name="Q" format="1">
  <advance width="760"/>
  <unicode hex="0051"/>
  <outline>
    <contour>
      <point x="699" y="114" type="curve"/>
      <point x="763" y="182"/>
      <point x="805" y="293"/>
      <point x="805" y="396" type="curve" smooth="yes"/>
      <point x="805" y="571"/>
      <point x="675" y="694"/>
      <point x="489" y="694" type="curve" smooth="yes"/>
      <point x="261" y="694"/>
      <point x="78" y="513"/>
      <point x="78" y="289" type="curve" smooth="yes"/>
      <point x="78" y="108"/>
      <point x="205" y="-13"/>
      <point x="393" y="-13" type="curve" smooth="yes"/>
      <point x="453" y="-13"/>
      <point x="485" y="-8"/>
      <point x="563" y="16" type="curve"/>
      <point x="566" y="8"/>
      <point x="567" y="4"/>
      <point x="567" y="-4" type="curve" smooth="yes"/>
      <point x="567" y="-75"/>
      <point x="473" y="-130"/>
      <point x="351" y="-130" type="curve" smooth="yes"/>
      <point x="291" y="-130"/>
      <point x="224" y="-115"/>
      <point x="201" y="-96" type="curve"/>
      <point x="190" y="-88"/>
      <point x="188" y="-82"/>
      <point x="188" y="-70" type="curve"/>
      <point x="187" y="-51"/>
      <point x="186" y="-37"/>
      <point x="183" y="-28" type="curve"/>
      <point x="176" y="-1"/>
      <point x="147" y="18"/>
      <point x="116" y="18" type="curve" smooth="yes"/>
      <point x="73" y="18"/>
      <point x="37" y="-16"/>
      <point x="37" y="-56" type="curve" smooth="yes"/>
      <point x="37" y="-91"/>
      <point x="58" y="-122"/>
      <point x="101" y="-154" type="curve" smooth="yes"/>
      <point x="158" y="-195"/>
      <point x="248" y="-218"/>
      <point x="348" y="-218" type="curve" smooth="yes"/>
      <point x="567" y="-218"/>
      <point x="720" y="-116"/>
      <point x="720" y="30" type="curve" smooth="yes"/>
      <point x="720" y="62"/>
      <point x="712" y="93"/>
    </contour>
    <contour>
      <point x="577" y="208" type="curve"/>
      <point x="548" y="219"/>
      <point x="508" y="225"/>
      <point x="472" y="225" type="curve" smooth="yes"/>
      <point x="380" y="225"/>
      <point x="317" y="184"/>
      <point x="317" y="125" type="curve" smooth="yes"/>
      <point x="317" y="121"/>
      <point x="317" y="117"/>
      <point x="319" y="109" type="curve"/>
      <point x="282" y="143"/>
      <point x="265" y="190"/>
      <point x="265" y="263" type="curve" smooth="yes"/>
      <point x="265" y="452"/>
      <point x="362" y="602"/>
      <point x="484" y="602" type="curve" smooth="yes"/>
      <point x="565" y="602"/>
      <point x="618" y="526"/>
      <point x="618" y="411" type="curve" smooth="yes"/>
      <point x="618" y="346"/>
      <point x="604" y="278"/>
    </contour>
    <contour>
      <point x="500" y="99" type="curve"/>
      <point x="473" y="83"/>
      <point x="447" y="75"/>
      <point x="424" y="75" type="curve" smooth="yes"/>
      <point x="395" y="75"/>
      <point x="375" y="86"/>
      <point x="375" y="101" type="curve" smooth="yes"/>
      <point x="375" y="116"/>
      <point x="393" y="125"/>
      <point x="421" y="125" type="curve" smooth="yes"/>
      <point x="449" y="125"/>
      <point x="479" y="116"/>
      <point x="497" y="101" type="curve"/>
      <point x="499" y="100"/>
      <point x="499" y="100"/>
    </contour>
  </outline>
</glyph>
<glyph name="R" format="1">
  <advance width="740"/>
  <unicode hex="0052"/>
  <outline>
    <contour>
      <point x="329" y="299" type="line"/>
      <point x="404" y="299" type="line"/>
      <point x="547" y="0" type="line"/>
      <point x="750" y="0" type="line"/>
      <point x="765" y="81" type="line"/>
      <point x="701" y="95"/>
      <point x="693" y="102"/>
      <point x="655" y="173" type="curve" smooth="yes"/>
      <point x="582" y="324" type="line"/>
      <point x="627" y="334"/>
      <point x="658" y="349"/>
      <point x="689" y="374" type="curve" smooth="yes"/>
      <point x="734" y="410"/>
      <point x="762" y="470"/>
      <point x="762" y="526" type="curve" smooth="yes"/>
      <point x="762" y="577"/>
      <point x="738" y="622"/>
      <point x="699" y="647" type="curve" smooth="yes"/>
      <point x="661" y="671"/>
      <point x="607" y="681"/>
      <point x="512" y="681" type="curve" smooth="yes"/>
      <point x="137" y="681" type="line"/>
      <point x="123" y="600" type="line"/>
      <point x="145" y="598" type="line" smooth="yes"/>
      <point x="181" y="595"/>
      <point x="198" y="580"/>
      <point x="198" y="552" type="curve" smooth="yes"/>
      <point x="198" y="542"/>
      <point x="196" y="525"/>
      <point x="194" y="513" type="curve" smooth="yes"/>
      <point x="131" y="168" type="line" smooth="yes"/>
      <point x="119" y="106"/>
      <point x="104" y="90"/>
      <point x="51" y="83" type="curve" smooth="yes"/>
      <point x="29" y="81" type="line"/>
      <point x="14" y="0" type="line"/>
      <point x="362" y="0" type="line"/>
      <point x="377" y="81" type="line"/>
      <point x="355" y="83" type="line" smooth="yes"/>
      <point x="319" y="86"/>
      <point x="302" y="101"/>
      <point x="302" y="128" type="curve" smooth="yes"/>
      <point x="302" y="137"/>
      <point x="304" y="160"/>
      <point x="305" y="168" type="curve"/>
    </contour>
    <contour>
      <point x="372" y="537" type="line" smooth="yes"/>
      <point x="381" y="577"/>
      <point x="381" y="577"/>
      <point x="387" y="582" type="curve"/>
      <point x="397" y="594"/>
      <point x="422" y="600"/>
      <point x="457" y="600" type="curve" smooth="yes"/>
      <point x="535" y="600"/>
      <point x="576" y="572"/>
      <point x="576" y="517" type="curve" smooth="yes"/>
      <point x="576" y="478"/>
      <point x="553" y="437"/>
      <point x="517" y="415" type="curve" smooth="yes"/>
      <point x="488" y="397"/>
      <point x="446" y="390"/>
      <point x="363" y="390" type="curve" smooth="yes"/>
      <point x="358" y="390"/>
      <point x="354" y="390"/>
      <point x="346" y="391" type="curve"/>
    </contour>
  </outline>
</glyph>
<glyph name="V" format="1">
  <advance width="660"/>
  <unicode hex="0056"/>
  <outline>
    <contour>
      <point x="274" y="0" type="line"/>
      <point x="396" y="0" type="line"/>
      <point x="671" y="499" type="line" smooth="yes"/>
      <point x="715" y="575"/>
      <point x="739" y="592"/>
      <point x="804" y="600" type="curve"/>
      <point x="819" y="681" type="line"/>
      <point x="546" y="681" type="line"/>
      <point x="531" y="600" type="line"/>
      <point x="588" y="591"/>
      <point x="602" y="585"/>
      <point x="602" y="568" type="curve" smooth="yes"/>
      <point x="602" y="557"/>
      <point x="597" y="545"/>
      <point x="575" y="506" type="curve" smooth="yes"/>
      <point x="405" y="183" type="line"/>
      <point x="342" y="537" type="line"/>
      <point x="340" y="545"/>
      <point x="339" y="556"/>
      <point x="339" y="563" type="curve" smooth="yes"/>
      <point x="339" y="591"/>
      <point x="353" y="597"/>
      <point x="428" y="600" type="curve"/>
      <point x="442" y="681" type="line"/>
      <point x="87" y="681" type="line"/>
      <point x="72" y="600" type="line"/>
      <point x="76" y="599"/>
      <point x="79" y="598"/>
      <point x="80" y="598" type="curve"/>
      <point x="147" y="585"/>
      <point x="154" y="577"/>
      <point x="168" y="512" type="curve" smooth="yes"/>
    </contour>
  </outline>
</glyph>
<glyph name="W" format="1">
  <advance width="1000"/>
  <unicode hex="0057"/>
  <outline>
    <contour>
      <point x="222" y="0" type="line"/>
      <point x="344" y="0" type="line"/>
      <point x="529" y="380" type="line"/>
      <point x="583" y="0" type="line"/>
      <point x="707" y="0" type="line"/>
      <point x="945" y="482" type="line" smooth="yes"/>
      <point x="990" y="582"/>
      <point x="1001" y="592"/>
      <point x="1075" y="600" type="curve"/>
      <point x="1090" y="681" type="line"/>
      <point x="826" y="681" type="line"/>
      <point x="811" y="600" type="line"/>
      <point x="823" y="598" type="line"/>
      <point x="871" y="593"/>
      <point x="884" y="586"/>
      <point x="884" y="568" type="curve" smooth="yes"/>
      <point x="884" y="558"/>
      <point x="884" y="558"/>
      <point x="871" y="530" type="curve" smooth="yes"/>
      <point x="725" y="209" type="line"/>
      <point x="679" y="530" type="line"/>
      <point x="677" y="558"/>
      <point x="677" y="558"/>
      <point x="677" y="561" type="curve" smooth="yes"/>
      <point x="677" y="585"/>
      <point x="694" y="595"/>
      <point x="742" y="599" type="curve" smooth="yes"/>
      <point x="754" y="600" type="line"/>
      <point x="768" y="681" type="line"/>
      <point x="453" y="681" type="line"/>
      <point x="439" y="600" type="line"/>
      <point x="465" y="594"/>
      <point x="474" y="591"/>
      <point x="482" y="587" type="curve" smooth="yes"/>
      <point x="501" y="578"/>
      <point x="513" y="555"/>
      <point x="512" y="535" type="curve"/>
      <point x="512" y="534"/>
      <point x="512" y="532"/>
      <point x="511" y="530" type="curve" smooth="yes"/>
      <point x="364" y="209" type="line"/>
      <point x="318" y="530" type="line"/>
      <point x="317" y="534"/>
      <point x="316" y="553"/>
      <point x="316" y="556" type="curve" smooth="yes"/>
      <point x="316" y="589"/>
      <point x="328" y="597"/>
      <point x="383" y="600" type="curve"/>
      <point x="397" y="681" type="line"/>
      <point x="87" y="681" type="line"/>
      <point x="72" y="600" type="line"/>
      <point x="129" y="585"/>
      <point x="140" y="572"/>
      <point x="150" y="506" type="curve" smooth="yes"/>
    </contour>
  </outline>
</glyph>
<glyph name="X" format="1">
  <advance width="740"/>
  <unicode hex="0058"/>
  <outline>
    <contour>
      <point x="523" y="363" type="line"/>
      <point x="641" y="497" type="line" smooth="yes"/>
      <point x="701" y="563"/>
      <point x="754" y="593"/>
      <point x="820" y="600" type="curve"/>
      <point x="835" y="681" type="line"/>
      <point x="537" y="681" type="line"/>
      <point x="523" y="600" type="line"/>
      <point x="575" y="597"/>
      <point x="585" y="594"/>
      <point x="585" y="579" type="curve" smooth="yes"/>
      <point x="585" y="572"/>
      <point x="581" y="564"/>
      <point x="568" y="550" type="curve" smooth="yes"/>
      <point x="473" y="442" type="line"/>
      <point x="422" y="534" type="line" smooth="yes"/>
      <point x="412" y="553"/>
      <point x="406" y="568"/>
      <point x="406" y="576" type="curve" smooth="yes"/>
      <point x="406" y="592"/>
      <point x="423" y="598"/>
      <point x="473" y="600" type="curve"/>
      <point x="487" y="681" type="line"/>
      <point x="130" y="681" type="line"/>
      <point x="115" y="600" type="line"/>
      <point x="120" y="599"/>
      <point x="125" y="598"/>
      <point x="127" y="597" type="curve"/>
      <point x="179" y="588"/>
      <point x="194" y="575"/>
      <point x="241" y="500" type="curve" smooth="yes"/>
      <point x="326" y="348" type="line"/>
      <point x="182" y="186" type="line"/>
      <point x="104" y="108"/>
      <point x="94" y="102"/>
      <point x="8" y="81" type="curve"/>
      <point x="-7" y="0" type="line"/>
      <point x="299" y="0" type="line"/>
      <point x="314" y="81" type="line"/>
      <point x="303" y="82" type="line" smooth="yes"/>
      <point x="258" y="88"/>
      <point x="245" y="94"/>
      <point x="245" y="108" type="curve" smooth="yes"/>
      <point x="245" y="118"/>
      <point x="251" y="129"/>
      <point x="270" y="150" type="curve" smooth="yes"/>
      <point x="374" y="269" type="line"/>
      <point x="440" y="143" type="line" smooth="yes"/>
      <point x="450" y="122"/>
      <point x="455" y="110"/>
      <point x="455" y="103" type="curve" smooth="yes"/>
      <point x="455" y="89"/>
      <point x="444" y="85"/>
      <point x="390" y="81" type="curve"/>
      <point x="375" y="0" type="line"/>
      <point x="751" y="0" type="line"/>
      <point x="766" y="81" type="line"/>
      <point x="705" y="88"/>
      <point x="667" y="115"/>
      <point x="627" y="180" type="curve" smooth="yes"/>
    </contour>
  </outline>
</glyph>
<glyph name="bracketleft" format="1">
  <advance width="260"/>
  <unicode hex="005B"/>
  <outline>
    <contour>
      <point x="374" y="710" type="line"/>
      <point x="164" y="710" type="line"/>
      <point x="9" y="-145" type="line"/>
      <point x="219" y="-145" type="line"/>
      <point x="233" y="-67" type="line"/>
      <point x="195" y="-67" type="line" smooth="yes"/>
      <point x="169" y="-67"/>
      <point x="161" y="-62"/>
      <point x="161" y="-45" type="curve" smooth="yes"/>
      <point x="161" y="-40"/>
      <point x="163" y="-25"/>
      <point x="165" y="-14" type="curve" smooth="yes"/>
      <point x="276" y="598" type="line" smooth="yes"/>
      <point x="282" y="630"/>
      <point x="284" y="632"/>
      <point x="318" y="632" type="curve" smooth="yes"/>
      <point x="360" y="632" type="line"/>
    </contour>
  </outline>
</glyph>
<glyph name="bracketright" format="1">
  <advance width="260"/>
  <unicode hex="005D"/>
  <outline>
    <contour>
      <point x="-18" y="-145" type="line"/>
      <point x="192" y="-145" type="line"/>
      <point x="347" y="710" type="line"/>
      <point x="137" y="710" type="line"/>
      <point x="123" y="632" type="line"/>
      <point x="161" y="632" type="line" smooth="yes"/>
      <point x="187" y="632"/>
      <point x="195" y="627"/>
      <point x="195" y="610" type="curve" smooth="yes"/>
      <point x="195" y="605"/>
      <point x="193" y="590"/>
      <point x="191" y="579" type="curve" smooth="yes"/>
      <point x="80" y="-33" type="line" smooth="yes"/>
      <point x="74" y="-65"/>
      <point x="72" y="-67"/>
      <point x="38" y="-67" type="curve" smooth="yes"/>
      <point x="-4" y="-67" type="line"/>
    </contour>
  </outline>
</glyph>
<glyph name="asciicircum" format="1">
  <advance width="620"/>
  <unicode hex="005E"/>
  <outline>
    <contour>
      <point x="594" y="318" type="line"/>
      <point x="386" y="722" type="line"/>
      <point x="301" y="722" type="line"/>
      <point x="92" y="318" type="line"/>
      <point x="211" y="318" type="line"/>
      <point x="344" y="568" type="line"/>
      <point x="475" y="318" type="line"/>
    </contour>
  </outline>
</glyph>
<glyph name="grave" format="1">
  <advance width="380"/>
  <unicode hex="0060"/>
  <outline>
    <contour>
      <point x="424" y="605" type="line"/>
      <point x="390" y="650"/>
      <point x="356" y="689"/>
      <point x="328" y="715" type="curve" smooth="yes"/>
      <point x="303" y="739"/>
      <point x="286" y="748"/>
      <point x="262" y="748" type="curve" smooth="yes"/>
      <point x="223" y="748"/>
      <point x="193" y="722"/>
      <point x="193" y="688" type="curve" smooth="yes"/>
      <point x="193" y="660"/>
      <point x="211" y="636"/>
      <point x="248" y="615" type="curve" smooth="yes"/>
      <point x="274" y="600"/>
      <point x="314" y="585"/>
      <point x="383" y="561" type="curve"/>
    </contour>
  </outline>
</glyph>
<glyph name="b" format="1">
  <advance width="600"/>
  <unicode hex="0062"/>
  <outline>
    <contour>
      <point x="328" y="732" type="line"/>
      <point x="295" y="732" type="line"/>
      <point x="241" y="708"/>
      <point x="172" y="694"/>
      <point x="106" y="694" type="curve"/>
      <point x="91" y="612" type="line"/>
      <point x="102" y="612" type="line" smooth="yes"/>
      <point x="119" y="612"/>
      <point x="145" y="604"/>
      <point x="154" y="596" type="curve"/>
      <point x="157" y="593"/>
      <point x="160" y="585"/>
      <point x="160" y="577" type="curve" smooth="yes"/>
      <point x="160" y="571"/>
      <point x="158" y="556"/>
      <point x="155" y="539" type="curve" smooth="yes"/>
      <point x="57" y="0" type="line"/>
      <point x="195" y="0" type="line"/>
      <point x="201" y="35" type="line"/>
      <point x="250" y="6"/>
      <point x="295" y="-9"/>
      <point x="337" y="-9" type="curve" smooth="yes"/>
      <point x="490" y="-9"/>
      <point x="633" y="143"/>
      <point x="633" y="305" type="curve" smooth="yes"/>
      <point x="633" y="429"/>
      <point x="546" y="520"/>
      <point x="427" y="520" type="curve" smooth="yes"/>
      <point x="364" y="520"/>
      <point x="310" y="494"/>
      <point x="276" y="447" type="curve"/>
    </contour>
    <contour>
      <point x="235" y="110" type="curve"/>
      <point x="253" y="246"/>
      <point x="274" y="313"/>
      <point x="315" y="374" type="curve" smooth="yes"/>
      <point x="337" y="406"/>
      <point x="365" y="424"/>
      <point x="395" y="424" type="curve" smooth="yes"/>
      <point x="437" y="424"/>
      <point x="465" y="388"/>
      <point x="465" y="333" type="curve" smooth="yes"/>
      <point x="465" y="255"/>
      <point x="433" y="165"/>
      <point x="386" y="116" type="curve" smooth="yes"/>
      <point x="366" y="94"/>
      <point x="332" y="79"/>
      <point x="303" y="79" type="curve" smooth="yes"/>
      <point x="280" y="79"/>
      <point x="254" y="91"/>
      <point x="238" y="108" type="curve"/>
      <point x="237" y="108"/>
      <point x="236" y="109"/>
    </contour>
  </outline>
</glyph>
<glyph name="e" format="1">
  <advance width="560"/>
  <unicode hex="0065"/>
  <outline>
    <contour>
      <point x="516" y="174" type="line"/>
      <point x="447" y="115"/>
      <point x="388" y="87"/>
      <point x="328" y="87" type="curve" smooth="yes"/>
      <point x="268" y="87"/>
      <point x="229" y="124"/>
      <point x="229" y="180" type="curve" smooth="yes"/>
      <point x="229" y="193"/>
      <point x="230" y="206"/>
      <point x="232" y="223" type="curve"/>
      <point x="243" y="222"/>
      <point x="254" y="222"/>
      <point x="258" y="222" type="curve" smooth="yes"/>
      <point x="343" y="222"/>
      <point x="418" y="235"/>
      <point x="485" y="261" type="curve" smooth="yes"/>
      <point x="557" y="289"/>
      <point x="596" y="337"/>
      <point x="596" y="397" type="curve" smooth="yes"/>
      <point x="596" y="471"/>
      <point x="526" y="520"/>
      <point x="420" y="520" type="curve" smooth="yes"/>
      <point x="223" y="520"/>
      <point x="59" y="376"/>
      <point x="59" y="203" type="curve" smooth="yes"/>
      <point x="59" y="78"/>
      <point x="155" y="-9"/>
      <point x="295" y="-9" type="curve" smooth="yes"/>
      <point x="364" y="-9"/>
      <point x="426" y="11"/>
      <point x="499" y="58" type="curve" smooth="yes"/>
      <point x="531" y="79"/>
      <point x="552" y="95"/>
      <point x="570" y="115" type="curve"/>
    </contour>
    <contour>
      <point x="246" y="292" type="line"/>
      <point x="252" y="321"/>
      <point x="268" y="354"/>
      <point x="291" y="383" type="curve" smooth="yes"/>
      <point x="320" y="421"/>
      <point x="356" y="442"/>
      <point x="392" y="442" type="curve" smooth="yes"/>
      <point x="425" y="442"/>
      <point x="448" y="422"/>
      <point x="448" y="394" type="curve" smooth="yes"/>
      <point x="448" y="338"/>
      <point x="362" y="292"/>
      <point x="258" y="292" type="curve" smooth="yes"/>
    </contour>
  </outline>
</glyph>
<glyph name="h" format="1">
  <advance width="700"/>
  <unicode hex="0068"/>
  <outline>
    <contour>
      <point x="93" y="0" type="line"/>
      <point x="251" y="0" type="line"/>
      <point x="320" y="379" type="line"/>
      <point x="346" y="396"/>
      <point x="387" y="408"/>
      <point x="419" y="408" type="curve" smooth="yes"/>
      <point x="457" y="408"/>
      <point x="483" y="390"/>
      <point x="483" y="364" type="curve" smooth="yes"/>
      <point x="483" y="356"/>
      <point x="480" y="337"/>
      <point x="476" y="312" type="curve" smooth="yes"/>
      <point x="448" y="160" type="line" smooth="yes"/>
      <point x="439" y="110"/>
      <point x="439" y="110"/>
      <point x="439" y="93" type="curve" smooth="yes"/>
      <point x="439" y="32"/>
      <point x="490" y="-9"/>
      <point x="567" y="-9" type="curve" smooth="yes"/>
      <point x="624" y="-9"/>
      <point x="688" y="18"/>
      <point x="736" y="61" type="curve"/>
      <point x="694" y="118" type="line"/>
      <point x="672" y="105"/>
      <point x="652" y="99"/>
      <point x="635" y="99" type="curve" smooth="yes"/>
      <point x="616" y="99"/>
      <point x="602" y="111"/>
      <point x="602" y="127" type="curve" smooth="yes"/>
      <point x="602" y="135"/>
      <point x="603" y="142"/>
      <point x="609" y="177" type="curve" smooth="yes"/>
      <point x="646" y="379" type="line" smooth="yes"/>
      <point x="648" y="389"/>
      <point x="649" y="399"/>
      <point x="649" y="404" type="curve" smooth="yes"/>
      <point x="649" y="473"/>
      <point x="589" y="520"/>
      <point x="501" y="520" type="curve" smooth="yes"/>
      <point x="443" y="520"/>
      <point x="387" y="502"/>
      <point x="336" y="468" type="curve"/>
      <point x="384" y="732" type="line"/>
      <point x="331" y="732" type="line"/>
      <point x="277" y="708"/>
      <point x="208" y="694"/>
      <point x="142" y="694" type="curve"/>
      <point x="127" y="612" type="line"/>
      <point x="139" y="612" type="line" smooth="yes"/>
      <point x="155" y="612"/>
      <point x="181" y="604"/>
      <point x="190" y="596" type="curve"/>
      <point x="193" y="593"/>
      <point x="196" y="585"/>
      <point x="196" y="577" type="curve" smooth="yes"/>
      <point x="196" y="570"/>
      <point x="194" y="556"/>
      <point x="191" y="539" type="curve" smooth="yes"/>
    </contour>
  </outline>
</glyph>
<glyph name="j" format="1">
  <advance width="320"/>
  <unicode hex="006A"/>
  <outline>
    <contour>
      <point x="98" y="394" type="line"/>
      <point x="110" y="394" type="line" smooth="yes"/>
      <point x="127" y="394"/>
      <point x="154" y="385"/>
      <point x="163" y="378" type="curve"/>
      <point x="166" y="374"/>
      <point x="169" y="366"/>
      <point x="169" y="358" type="curve" smooth="yes"/>
      <point x="169" y="351"/>
      <point x="167" y="336"/>
      <point x="164" y="320" type="curve" smooth="yes"/>
      <point x="106" y="0" type="line" smooth="yes"/>
      <point x="101" y="-28"/>
      <point x="89" y="-77"/>
      <point x="83" y="-88" type="curve"/>
      <point x="73" y="-111"/>
      <point x="51" y="-126"/>
      <point x="26" y="-126" type="curve" smooth="yes"/>
      <point x="11" y="-126"/>
      <point x="2" y="-120"/>
      <point x="-12" y="-100" type="curve" smooth="yes"/>
      <point x="-35" y="-70"/>
      <point x="-61" y="-54"/>
      <point x="-88" y="-54" type="curve" smooth="yes"/>
      <point x="-125" y="-54"/>
      <point x="-160" y="-88"/>
      <point x="-160" y="-125" type="curve" smooth="yes"/>
      <point x="-160" y="-173"/>
      <point x="-95" y="-208"/>
      <point x="-5" y="-208" type="curve" smooth="yes"/>
      <point x="66" y="-208"/>
      <point x="136" y="-185"/>
      <point x="184" y="-147" type="curve" smooth="yes"/>
      <point x="233" y="-108"/>
      <point x="252" y="-69"/>
      <point x="270" y="34" type="curve" smooth="yes"/>
      <point x="357" y="511" type="line"/>
      <point x="305" y="511" type="line"/>
      <point x="229" y="487"/>
      <point x="188" y="480"/>
      <point x="113" y="476" type="curve"/>
    </contour>
    <contour>
      <point x="312" y="762" type="curve" smooth="yes"/>
      <point x="255" y="762"/>
      <point x="199" y="707"/>
      <point x="199" y="649" type="curve" smooth="yes"/>
      <point x="199" y="602"/>
      <point x="231" y="569"/>
      <point x="277" y="569" type="curve" smooth="yes"/>
      <point x="335" y="569"/>
      <point x="392" y="625"/>
      <point x="392" y="682" type="curve" smooth="yes"/>
      <point x="392" y="729"/>
      <point x="360" y="762"/>
    </contour>
  </outline>
</glyph>
<glyph name="k" format="1">
  <advance width="700"/>
  <unicode hex="006B"/>
  <outline>
    <contour>
      <point x="97" y="0" type="line"/>
      <point x="255" y="0" type="line"/>
      <point x="258" y="11" type="line"/>
      <point x="289" y="124" type="line" smooth="yes"/>
      <point x="295" y="146"/>
      <point x="305" y="169"/>
      <point x="319" y="194" type="curve" smooth="yes"/>
      <point x="329" y="210"/>
      <point x="340" y="224"/>
      <point x="356" y="243" type="curve"/>
      <point x="355" y="159"/>
      <point x="367" y="115"/>
      <point x="405" y="65" type="curve" smooth="yes"/>
      <point x="441" y="17"/>
      <point x="488" y="-9"/>
      <point x="540" y="-9" type="curve" smooth="yes"/>
      <point x="597" y="-9"/>
      <point x="691" y="32"/>
      <point x="727" y="73" type="curve"/>
      <point x="685" y="132" type="line"/>
      <point x="676" y="127" type="line" smooth="yes"/>
      <point x="645" y="111"/>
      <point x="637" y="108"/>
      <point x="620" y="108" type="curve" smooth="yes"/>
      <point x="594" y="108"/>
      <point x="575" y="119"/>
      <point x="555" y="146" type="curve" smooth="yes"/>
      <point x="525" y="187"/>
      <point x="512" y="235"/>
      <point x="497" y="360" type="curve"/>
      <point x="533" y="397"/>
      <point x="555" y="412"/>
      <point x="576" y="412" type="curve" smooth="yes"/>
      <point x="582" y="412"/>
      <point x="587" y="410"/>
      <point x="595" y="404" type="curve"/>
      <point x="619" y="388"/>
      <point x="632" y="383"/>
      <point x="656" y="383" type="curve" smooth="yes"/>
      <point x="701" y="383"/>
      <point x="732" y="414"/>
      <point x="732" y="456" type="curve" smooth="yes"/>
      <point x="732" y="493"/>
      <point x="698" y="520"/>
      <point x="650" y="520" type="curve" smooth="yes"/>
      <point x="593" y="520"/>
      <point x="530" y="493"/>
      <point x="457" y="438" type="curve" smooth="yes"/>
      <point x="400" y="395"/>
      <point x="356" y="345"/>
      <point x="303" y="261" type="curve"/>
      <point x="388" y="732" type="line"/>
      <point x="335" y="732" type="line"/>
      <point x="281" y="708"/>
      <point x="212" y="694"/>
      <point x="146" y="694" type="curve"/>
      <point x="131" y="612" type="line"/>
      <point x="143" y="612" type="line" smooth="yes"/>
      <point x="159" y="612"/>
      <point x="185" y="604"/>
      <point x="194" y="596" type="curve"/>
      <point x="197" y="593"/>
      <point x="200" y="585"/>
      <point x="200" y="577" type="curve" smooth="yes"/>
      <point x="200" y="570"/>
      <point x="198" y="556"/>
      <point x="195" y="539" type="curve" smooth="yes"/>
    </contour>
  </outline>
</glyph>
<glyph name="o" format="1">
  <advance width="600"/>
  <unicode hex="006F"/>
  <outline>
    <contour>
      <point x="384" y="520" type="curve" smooth="yes"/>
      <point x="296" y="520"/>
      <point x="217" y="491"/>
      <point x="162" y="439" type="curve" smooth="yes"/>
      <point x="99" y="379"/>
      <point x="59" y="284"/>
      <point x="59" y="195" type="curve" smooth="yes"/>
      <point x="59" y="70"/>
      <point x="152" y="-9"/>
      <point x="301" y="-9" type="curve" smooth="yes"/>
      <point x="395" y="-9"/>
      <point x="479" y="25"/>
      <point x="537" y="87" type="curve" smooth="yes"/>
      <point x="590" y="143"/>
      <point x="627" y="233"/>
      <point x="627" y="308" type="curve" smooth="yes"/>
      <point x="627" y="444"/>
      <point x="540" y="520"/>
    </contour>
    <contour>
      <point x="380" y="432" type="curve" smooth="yes"/>
      <point x="435" y="432"/>
      <point x="459" y="403"/>
      <point x="459" y="337" type="curve" smooth="yes"/>
      <point x="459" y="289"/>
      <point x="436" y="197"/>
      <point x="413" y="153" type="curve" smooth="yes"/>
      <point x="388" y="104"/>
      <point x="353" y="79"/>
      <point x="309" y="79" type="curve" smooth="yes"/>
      <point x="260" y="79"/>
      <point x="232" y="111"/>
      <point x="232" y="165" type="curve" smooth="yes"/>
      <point x="232" y="220"/>
      <point x="254" y="312"/>
      <point x="278" y="358" type="curve" smooth="yes"/>
      <point x="305" y="410"/>
      <point x="335" y="432"/>
    </contour>
  </outline>
</glyph>
<glyph name="q" format="1">
  <advance width="620"/>
  <unicode hex="0071"/>
  <outline>
    <contour>
      <point x="640" y="511" type="line"/>
      <point x="502" y="511" type="line"/>
      <point x="495" y="473" type="line"/>
      <point x="464" y="502"/>
      <point x="412" y="520"/>
      <point x="359" y="520" type="curve" smooth="yes"/>
      <point x="203" y="520"/>
      <point x="60" y="369"/>
      <point x="60" y="206" type="curve" smooth="yes"/>
      <point x="60" y="81"/>
      <point x="142" y="-9"/>
      <point x="255" y="-9" type="curve" smooth="yes"/>
      <point x="318" y="-9"/>
      <point x="360" y="12"/>
      <point x="401" y="63" type="curve"/>
      <point x="377" y="-69" type="line" smooth="yes"/>
      <point x="373" y="-87"/>
      <point x="365" y="-106"/>
      <point x="357" y="-113" type="curve" smooth="yes"/>
      <point x="346" y="-123"/>
      <point x="320" y="-131"/>
      <point x="298" y="-131" type="curve" smooth="yes"/>
      <point x="271" y="-131" type="line"/>
      <point x="257" y="-213" type="line"/>
      <point x="593" y="-213" type="line"/>
      <point x="607" y="-131" type="line"/>
      <point x="591" y="-131" type="line" smooth="yes"/>
      <point x="578" y="-131"/>
      <point x="560" y="-127"/>
      <point x="550" y="-123" type="curve" smooth="yes"/>
      <point x="539" y="-118"/>
      <point x="533" y="-106"/>
      <point x="533" y="-88" type="curve" smooth="yes"/>
      <point x="533" y="-82"/>
      <point x="534" y="-75"/>
      <point x="535" y="-69" type="curve" smooth="yes"/>
    </contour>
    <contour>
      <point x="463" y="405" type="line"/>
      <point x="446" y="284"/>
      <point x="431" y="225"/>
      <point x="402" y="167" type="curve" smooth="yes"/>
      <point x="378" y="119"/>
      <point x="338" y="87"/>
      <point x="301" y="87" type="curve" smooth="yes"/>
      <point x="258" y="87"/>
      <point x="233" y="122"/>
      <point x="233" y="183" type="curve" smooth="yes"/>
      <point x="233" y="247"/>
      <point x="256" y="330"/>
      <point x="287" y="374" type="curve" smooth="yes"/>
      <point x="314" y="413"/>
      <point x="346" y="432"/>
      <point x="382" y="432" type="curve" smooth="yes"/>
      <point x="408" y="432"/>
      <point x="444" y="420"/>
      <point x="460" y="407" type="curve"/>
      <point x="461" y="406" type="line"/>
    </contour>
  </outline>
</glyph>
<glyph name="r" format="1">
  <advance width="500"/>
  <unicode hex="0072"/>
  <outline>
    <contour>
      <point x="92" y="0" type="line"/>
      <point x="250" y="0" type="line"/>
      <point x="271" y="112" type="line" smooth="yes"/>
      <point x="276" y="139"/>
      <point x="287" y="193"/>
      <point x="295" y="227" type="curve" smooth="yes"/>
      <point x="312" y="297"/>
      <point x="321" y="323"/>
      <point x="341" y="355" type="curve" smooth="yes"/>
      <point x="357" y="379"/>
      <point x="380" y="396"/>
      <point x="399" y="396" type="curve" smooth="yes"/>
      <point x="409" y="396"/>
      <point x="415" y="393"/>
      <point x="428" y="383" type="curve" smooth="yes"/>
      <point x="452" y="365"/>
      <point x="468" y="359"/>
      <point x="492" y="359" type="curve" smooth="yes"/>
      <point x="543" y="359"/>
      <point x="582" y="395"/>
      <point x="582" y="442" type="curve" smooth="yes"/>
      <point x="582" y="487"/>
      <point x="541" y="520"/>
      <point x="484" y="520" type="curve" smooth="yes"/>
      <point x="428" y="520"/>
      <point x="374" y="491"/>
      <point x="329" y="435" type="curve"/>
      <point x="343" y="511" type="line"/>
      <point x="291" y="511" type="line"/>
      <point x="215" y="487"/>
      <point x="174" y="480"/>
      <point x="99" y="476" type="curve"/>
      <point x="84" y="394" type="line"/>
      <point x="96" y="394" type="line" smooth="yes"/>
      <point x="113" y="394"/>
      <point x="140" y="385"/>
      <point x="149" y="378" type="curve"/>
      <point x="153" y="374"/>
      <point x="155" y="367"/>
      <point x="155" y="358" type="curve" smooth="yes"/>
      <point x="155" y="351"/>
      <point x="153" y="334"/>
      <point x="151" y="321" type="curve" smooth="yes"/>
    </contour>
  </outline>
</glyph>
<glyph name="v" format="1">
  <advance width="540"/>
  <unicode hex="0076"/>
  <outline>
    <contour>
      <point x="56" y="394" type="line"/>
      <point x="68" y="394" type="line" smooth="yes"/>
      <point x="85" y="394"/>
      <point x="112" y="385"/>
      <point x="121" y="378" type="curve"/>
      <point x="125" y="374"/>
      <point x="127" y="367"/>
      <point x="127" y="358" type="curve" smooth="yes"/>
      <point x="127" y="351"/>
      <point x="125" y="334"/>
      <point x="123" y="321" type="curve" smooth="yes"/>
      <point x="89" y="136" type="line" smooth="yes"/>
      <point x="87" y="125"/>
      <point x="86" y="114"/>
      <point x="86" y="102" type="curve" smooth="yes"/>
      <point x="86" y="33"/>
      <point x="144" y="-9"/>
      <point x="239" y="-9" type="curve" smooth="yes"/>
      <point x="309" y="-9"/>
      <point x="382" y="21"/>
      <point x="440" y="74" type="curve" smooth="yes"/>
      <point x="518" y="145"/>
      <point x="572" y="276"/>
      <point x="572" y="394" type="curve" smooth="yes"/>
      <point x="572" y="469"/>
      <point x="538" y="520"/>
      <point x="487" y="520" type="curve" smooth="yes"/>
      <point x="434" y="520"/>
      <point x="393" y="481"/>
      <point x="393" y="431" type="curve" smooth="yes"/>
      <point x="393" y="408"/>
      <point x="401" y="392"/>
      <point x="423" y="370" type="curve" smooth="yes"/>
      <point x="445" y="348"/>
      <point x="450" y="334"/>
      <point x="450" y="295" type="curve" smooth="yes"/>
      <point x="450" y="255"/>
      <point x="439" y="218"/>
      <point x="418" y="184" type="curve" smooth="yes"/>
      <point x="389" y="139"/>
      <point x="344" y="108"/>
      <point x="307" y="108" type="curve" smooth="yes"/>
      <point x="277" y="108"/>
      <point x="254" y="129"/>
      <point x="254" y="158" type="curve" smooth="yes"/>
      <point x="254" y="167"/>
      <point x="256" y="187"/>
      <point x="259" y="203" type="curve" smooth="yes"/>
      <point x="315" y="511" type="line"/>
      <point x="263" y="511" type="line"/>
      <point x="187" y="487"/>
      <point x="146" y="480"/>
      <point x="71" y="476" type="curve"/>
    </contour>
  </outline>
</glyph>
<glyph name="w" format="1">
  <advance width="860"/>
  <unicode hex="0077"/>
  <outline>
    <contour>
      <point x="400" y="123" type="line"/>
      <point x="377" y="109"/>
      <point x="342" y="99"/>
      <point x="315" y="99" type="curve" smooth="yes"/>
      <point x="277" y="99"/>
      <point x="251" y="119"/>
      <point x="251" y="148" type="curve" smooth="yes"/>
      <point x="251" y="155"/>
      <point x="252" y="161"/>
      <point x="256" y="186" type="curve" smooth="yes"/>
      <point x="315" y="511" type="line"/>
      <point x="263" y="511" type="line"/>
      <point x="187" y="487"/>
      <point x="146" y="480"/>
      <point x="71" y="476" type="curve"/>
      <point x="56" y="394" type="line"/>
      <point x="68" y="394" type="line" smooth="yes"/>
      <point x="85" y="394"/>
      <point x="112" y="385"/>
      <point x="121" y="378" type="curve"/>
      <point x="125" y="374"/>
      <point x="127" y="367"/>
      <point x="127" y="358" type="curve" smooth="yes"/>
      <point x="127" y="351"/>
      <point x="125" y="334"/>
      <point x="123" y="321" type="curve" smooth="yes"/>
      <point x="87" y="123" type="line" smooth="yes"/>
      <point x="86" y="117"/>
      <point x="85" y="111"/>
      <point x="85" y="105" type="curve" smooth="yes"/>
      <point x="85" y="40"/>
      <point x="148" y="-9"/>
      <point x="232" y="-9" type="curve" smooth="yes"/>
      <point x="294" y="-9"/>
      <point x="353" y="10"/>
      <point x="412" y="48" type="curve"/>
      <point x="450" y="7"/>
      <point x="490" y="-9"/>
      <point x="552" y="-9" type="curve" smooth="yes"/>
      <point x="625" y="-9"/>
      <point x="704" y="21"/>
      <point x="757" y="68" type="curve" smooth="yes"/>
      <point x="838" y="142"/>
      <point x="891" y="263"/>
      <point x="891" y="377" type="curve" smooth="yes"/>
      <point x="891" y="464"/>
      <point x="852" y="520"/>
      <point x="792" y="520" type="curve" smooth="yes"/>
      <point x="740" y="520"/>
      <point x="696" y="478"/>
      <point x="696" y="429" type="curve" smooth="yes"/>
      <point x="696" y="411"/>
      <point x="705" y="391"/>
      <point x="721" y="375" type="curve" smooth="yes"/>
      <point x="759" y="338"/>
      <point x="764" y="328"/>
      <point x="764" y="286" type="curve" smooth="yes"/>
      <point x="764" y="188"/>
      <point x="704" y="103"/>
      <point x="634" y="103" type="curve" smooth="yes"/>
      <point x="595" y="103"/>
      <point x="566" y="128"/>
      <point x="566" y="161" type="curve" smooth="yes"/>
      <point x="566" y="167"/>
      <point x="567" y="175"/>
      <point x="570" y="190" type="curve" smooth="yes"/>
      <point x="628" y="511" type="line"/>
      <point x="470" y="511" type="line"/>
    </contour>
  </outline>
</glyph>
<glyph name="braceleft" format="1">
  <advance width="300"/>
  <unicode hex="007B"/>
  <outline>
    <contour>
      <point x="306" y="568" type="line" smooth="yes"/>
      <point x="315" y="609"/>
      <point x="338" y="626"/>
      <point x="396" y="638" type="curve"/>
      <point x="409" y="710" type="line"/>
      <point x="368" y="710" type="line"/>
      <point x="334" y="709" type="line" smooth="yes"/>
      <point x="291" y="709"/>
      <point x="276" y="706"/>
      <point x="251" y="694" type="curve" smooth="yes"/>
      <point x="213" y="676"/>
      <point x="194" y="649"/>
      <point x="183" y="598" type="curve" smooth="yes"/>
      <point x="149" y="403" type="line" smooth="yes"/>
      <point x="140" y="361"/>
      <point x="110" y="332"/>
      <point x="67" y="321" type="curve"/>
      <point x="53" y="243" type="line"/>
      <point x="88" y="234"/>
      <point x="108" y="212"/>
      <point x="108" y="182" type="curve" smooth="yes"/>
      <point x="108" y="175"/>
      <point x="107" y="163"/>
      <point x="105" y="152" type="curve" smooth="yes"/>
      <point x="75" y="-20" type="line" smooth="yes"/>
      <point x="71" y="-40"/>
      <point x="70" y="-49"/>
      <point x="70" y="-60" type="curve" smooth="yes"/>
      <point x="70" y="-104"/>
      <point x="92" y="-132"/>
      <point x="132" y="-140" type="curve" smooth="yes"/>
      <point x="154" y="-144"/>
      <point x="154" y="-144"/>
      <point x="256" y="-145" type="curve"/>
      <point x="268" y="-73" type="line"/>
      <point x="223" y="-65"/>
      <point x="204" y="-49"/>
      <point x="204" y="-16" type="curve" smooth="yes"/>
      <point x="204" y="-10" type="line"/>
      <point x="236" y="170" type="line" smooth="yes"/>
      <point x="238" y="181"/>
      <point x="239" y="192"/>
      <point x="239" y="202" type="curve" smooth="yes"/>
      <point x="239" y="245"/>
      <point x="216" y="270"/>
      <point x="162" y="282" type="curve"/>
      <point x="242" y="298"/>
      <point x="263" y="318"/>
      <point x="274" y="388" type="curve" smooth="yes"/>
    </contour>
  </outline>
</glyph>
<glyph name="braceright" format="1">
  <advance width="300"/>
  <unicode hex="007D"/>
  <outline>
    <contour>
      <point x="99" y="-3" type="line" smooth="yes"/>
      <point x="90" y="-44"/>
      <point x="67" y="-61"/>
      <point x="9" y="-73" type="curve"/>
      <point x="-4" y="-145" type="line"/>
      <point x="71" y="-144" type="line" smooth="yes"/>
      <point x="114" y="-144"/>
      <point x="129" y="-141"/>
      <point x="154" y="-129" type="curve" smooth="yes"/>
      <point x="192" y="-111"/>
      <point x="211" y="-84"/>
      <point x="222" y="-33" type="curve" smooth="yes"/>
      <point x="256" y="162" type="line" smooth="yes"/>
      <point x="265" y="204"/>
      <point x="295" y="233"/>
      <point x="338" y="244" type="curve"/>
      <point x="352" y="322" type="line"/>
      <point x="317" y="331"/>
      <point x="297" y="353"/>
      <point x="297" y="383" type="curve" smooth="yes"/>
      <point x="297" y="390"/>
      <point x="298" y="403"/>
      <point x="300" y="413" type="curve" smooth="yes"/>
      <point x="330" y="585" type="line" smooth="yes"/>
      <point x="334" y="605"/>
      <point x="335" y="614"/>
      <point x="335" y="625" type="curve" smooth="yes"/>
      <point x="335" y="669"/>
      <point x="313" y="698"/>
      <point x="273" y="705" type="curve"/>
      <point x="251" y="710"/>
      <point x="251" y="710"/>
      <point x="149" y="710" type="curve"/>
      <point x="137" y="638" type="line"/>
      <point x="182" y="630"/>
      <point x="201" y="614"/>
      <point x="201" y="581" type="curve" smooth="yes"/>
      <point x="201" y="575" type="line"/>
      <point x="169" y="395" type="line" smooth="yes"/>
      <point x="167" y="384"/>
      <point x="166" y="373"/>
      <point x="166" y="363" type="curve" smooth="yes"/>
      <point x="166" y="320"/>
      <point x="189" y="295"/>
      <point x="243" y="283" type="curve"/>
      <point x="163" y="267"/>
      <point x="142" y="247"/>
      <point x="131" y="177" type="curve" smooth="yes"/>
    </contour>
  </outline>
</glyph>
<glyph name="asciitilde" format="1">
  <advance width="620"/>
  <unicode hex="007E"/>
  <outline>
    <contour>
      <point x="163" y="251" type="line"/>
      <point x="199" y="308"/>
      <point x="218" y="324"/>
      <point x="252" y="324" type="curve" smooth="yes"/>
      <point x="270" y="324"/>
      <point x="292" y="319"/>
      <point x="317" y="308" type="curve" smooth="yes"/>
      <point x="372" y="286" type="line" smooth="yes"/>
      <point x="422" y="265"/>
      <point x="439" y="260"/>
      <point x="463" y="260" type="curve" smooth="yes"/>
      <point x="516" y="260"/>
      <point x="571" y="303"/>
      <point x="605" y="372" type="curve"/>
      <point x="541" y="443" type="line"/>
      <point x="512" y="399"/>
      <point x="485" y="377"/>
      <point x="458" y="377" type="curve" smooth="yes"/>
      <point x="441" y="377"/>
      <point x="412" y="384"/>
      <point x="386" y="395" type="curve" smooth="yes"/>
      <point x="321" y="423" type="line" smooth="yes"/>
      <point x="289" y="436"/>
      <point x="269" y="441"/>
      <point x="247" y="441" type="curve" smooth="yes"/>
      <point x="189" y="441"/>
      <point x="149" y="409"/>
      <point x="101" y="321" type="curve"/>
    </contour>
  </outline>
</glyph>
<glyph name="exclamdown" format="1">
  <advance width="320"/>
  <unicode hex="00A1"/>
  <outline>
    <contour>
      <point x="191" y="288" type="line"/>
      <point x="172" y="207"/>
      <point x="164" y="181"/>
      <point x="140" y="120" type="curve" smooth="yes"/>
      <point x="88" y="-10" type="line" smooth="yes"/>
      <point x="71" y="-51"/>
      <point x="64" y="-79"/>
      <point x="64" y="-104" type="curve" smooth="yes"/>
      <point x="64" y="-153"/>
      <point x="98" y="-187"/>
      <point x="148" y="-187" type="curve" smooth="yes"/>
      <point x="187" y="-187"/>
      <point x="226" y="-164"/>
      <point x="245" y="-128" type="curve" smooth="yes"/>
      <point x="256" y="-108"/>
      <point x="263" y="-70"/>
      <point x="263" y="-29" type="curve" smooth="yes"/>
      <point x="263" y="-21"/>
      <point x="262" y="-4"/>
      <point x="260" y="21" type="curve" smooth="yes"/>
      <point x="259" y="46"/>
      <point x="258" y="68"/>
      <point x="258" y="90" type="curve" smooth="yes"/>
      <point x="258" y="144"/>
      <point x="258" y="144"/>
      <point x="273" y="288" type="curve"/>
    </contour>
    <contour>
      <point x="266" y="520" type="curve" smooth="yes"/>
      <point x="216" y="520"/>
      <point x="171" y="473"/>
      <point x="171" y="421" type="curve" smooth="yes"/>
      <point x="171" y="374"/>
      <point x="204" y="340"/>
      <point x="247" y="340" type="curve" smooth="yes"/>
      <point x="299" y="340"/>
      <point x="344" y="386"/>
      <point x="344" y="439" type="curve" smooth="yes"/>
      <point x="344" y="485"/>
      <point x="310" y="520"/>
    </contour>
  </outline>
</glyph>
<glyph name="cent" format="1">
  <advance width="680"/>
  <unicode hex="00A2"/>
  <outline>
    <contour>
      <point x="557" y="326" type="line"/>
      <point x="512" y="289"/>
      <point x="458" y="266"/>
      <point x="414" y="266" type="curve" smooth="yes"/>
      <point x="354" y="266"/>
      <point x="314" y="305"/>
      <point x="314" y="364" type="curve" smooth="yes"/>
      <point x="314" y="437"/>
      <point x="372" y="510"/>
      <point x="429" y="510" type="curve" smooth="yes"/>
      <point x="452" y="510"/>
      <point x="467" y="500"/>
      <point x="467" y="484" type="curve" smooth="yes"/>
      <point x="467" y="456"/>
      <point x="468" y="450"/>
      <point x="474" y="436" type="curve" smooth="yes"/>
      <point x="482" y="416"/>
      <point x="505" y="403"/>
      <point x="532" y="403" type="curve" smooth="yes"/>
      <point x="577" y="403"/>
      <point x="616" y="444"/>
      <point x="616" y="490" type="curve" smooth="yes"/>
      <point x="616" y="547"/>
      <point x="564" y="586"/>
      <point x="477" y="595" type="curve"/>
      <point x="500" y="718" type="line"/>
      <point x="417" y="718" type="line"/>
      <point x="394" y="595" type="line"/>
      <point x="262" y="569"/>
      <point x="161" y="463"/>
      <point x="161" y="349" type="curve" smooth="yes"/>
      <point x="161" y="261"/>
      <point x="221" y="192"/>
      <point x="317" y="171" type="curve"/>
      <point x="291" y="25" type="line"/>
      <point x="374" y="25" type="line"/>
      <point x="400" y="171" type="line"/>
      <point x="478" y="183"/>
      <point x="559" y="231"/>
      <point x="598" y="286" type="curve"/>
    </contour>
  </outline>
</glyph>
<glyph name="sterling" format="1">
  <advance width="680"/>
  <unicode hex="00A3"/>
  <outline>
    <contour>
      <point x="563" y="346" type="line"/>
      <point x="594" y="429" type="line"/>
      <point x="440" y="429" type="line"/>
      <point x="470" y="553"/>
      <point x="520" y="616"/>
      <point x="588" y="616" type="curve" smooth="yes"/>
      <point x="624" y="616"/>
      <point x="655" y="596"/>
      <point x="655" y="573" type="curve" smooth="yes"/>
      <point x="655" y="569"/>
      <point x="654" y="564"/>
      <point x="651" y="559" type="curve"/>
      <point x="638" y="532"/>
      <point x="636" y="525"/>
      <point x="636" y="508" type="curve" smooth="yes"/>
      <point x="636" y="475"/>
      <point x="664" y="449"/>
      <point x="700" y="449" type="curve" smooth="yes"/>
      <point x="747" y="449"/>
      <point x="787" y="497"/>
      <point x="787" y="554" type="curve" smooth="yes"/>
      <point x="787" y="639"/>
      <point x="716" y="694"/>
      <point x="608" y="694" type="curve" smooth="yes"/>
      <point x="507" y="694"/>
      <point x="403" y="647"/>
      <point x="348" y="576" type="curve" smooth="yes"/>
      <point x="318" y="537"/>
      <point x="301" y="494"/>
      <point x="288" y="429" type="curve"/>
      <point x="193" y="429" type="line"/>
      <point x="164" y="346" type="line"/>
      <point x="273" y="346" type="line"/>
      <point x="246" y="198" type="line"/>
      <point x="213" y="207"/>
      <point x="181" y="211"/>
      <point x="154" y="211" type="curve" smooth="yes"/>
      <point x="66" y="211"/>
      <point x="0" y="161"/>
      <point x="0" y="94" type="curve" smooth="yes"/>
      <point x="0" y="28"/>
      <point x="54" y="-13"/>
      <point x="139" y="-13" type="curve" smooth="yes"/>
      <point x="218" y="-13"/>
      <point x="297" y="26"/>
      <point x="329" y="82" type="curve"/>
      <point x="346" y="73"/>
      <point x="356" y="68"/>
      <point x="373" y="58" type="curve" smooth="yes"/>
      <point x="480" y="-3"/>
      <point x="504" y="-13"/>
      <point x="546" y="-13" type="curve" smooth="yes"/>
      <point x="623" y="-13"/>
      <point x="692" y="55"/>
      <point x="692" y="131" type="curve" smooth="yes"/>
      <point x="692" y="195"/>
      <point x="645" y="238"/>
      <point x="575" y="238" type="curve" smooth="yes"/>
      <point x="548" y="238"/>
      <point x="526" y="232"/>
      <point x="504" y="219" type="curve"/>
      <point x="517" y="166" type="line"/>
      <point x="531" y="167"/>
      <point x="538" y="168"/>
      <point x="546" y="168" type="curve" smooth="yes"/>
      <point x="571" y="168"/>
      <point x="590" y="154"/>
      <point x="590" y="136" type="curve" smooth="yes"/>
      <point x="590" y="119"/>
      <point x="572" y="104"/>
      <point x="552" y="104" type="curve" smooth="yes"/>
      <point x="543" y="104"/>
      <point x="529" y="107"/>
      <point x="514" y="113" type="curve" smooth="yes"/>
      <point x="492" y="121"/>
      <point x="470" y="129"/>
      <point x="448" y="136" type="curve"/>
      <point x="394" y="157" type="line"/>
      <point x="393" y="158"/>
      <point x="387" y="160"/>
      <point x="377" y="163" type="curve"/>
      <point x="389" y="189"/>
      <point x="412" y="277"/>
      <point x="425" y="346" type="curve"/>
    </contour>
    <contour>
      <point x="213" y="120" type="curve"/>
      <point x="193" y="96"/>
      <point x="159" y="79"/>
      <point x="131" y="79" type="curve" smooth="yes"/>
      <point x="110" y="79"/>
      <point x="93" y="90"/>
      <point x="93" y="103" type="curve" smooth="yes"/>
      <point x="93" y="120"/>
      <point x="120" y="133"/>
      <point x="157" y="133" type="curve" smooth="yes"/>
      <point x="181" y="133"/>
      <point x="194" y="130"/>
    </contour>
  </outline>
</glyph>
<glyph name="currency" format="1">
  <advance width="680"/>
  <unicode hex="00A4"/>
  <outline>
    <contour>
      <point x="148" y="173" type="line"/>
      <point x="212" y="109" type="line"/>
      <point x="259" y="155" type="line"/>
      <point x="303" y="125"/>
      <point x="343" y="112"/>
      <point x="393" y="112" type="curve" smooth="yes"/>
      <point x="443" y="112"/>
      <point x="482" y="124"/>
      <point x="527" y="155" type="curve"/>
      <point x="574" y="109" type="line"/>
      <point x="637" y="173" type="line"/>
      <point x="591" y="220" type="line"/>
      <point x="620" y="261"/>
      <point x="632" y="300"/>
      <point x="632" y="351" type="curve" smooth="yes"/>
      <point x="632" y="402"/>
      <point x="620" y="441"/>
      <point x="590" y="484" type="curve"/>
      <point x="636" y="529" type="line"/>
      <point x="573" y="595" type="line"/>
      <point x="526" y="549" type="line"/>
      <point x="485" y="576"/>
      <point x="441" y="589"/>
      <point x="394" y="589" type="curve" smooth="yes"/>
      <point x="346" y="589"/>
      <point x="300" y="575"/>
      <point x="259" y="548" type="curve"/>
      <point x="212" y="595" type="line"/>
      <point x="148" y="529" type="line"/>
      <point x="195" y="483" type="line"/>
      <point x="165" y="440"/>
      <point x="154" y="403"/>
      <point x="154" y="351" type="curve" smooth="yes"/>
      <point x="154" y="301"/>
      <point x="164" y="269"/>
      <point x="194" y="220" type="curve"/>
    </contour>
    <contour>
      <point x="395" y="488" type="curve" smooth="yes"/>
      <point x="468" y="488"/>
      <point x="530" y="425"/>
      <point x="530" y="351" type="curve" smooth="yes"/>
      <point x="530" y="275"/>
      <point x="468" y="213"/>
      <point x="393" y="213" type="curve" smooth="yes"/>
      <point x="317" y="213"/>
      <point x="256" y="275"/>
      <point x="256" y="352" type="curve" smooth="yes"/>
      <point x="256" y="427"/>
      <point x="318" y="488"/>
    </contour>
  </outline>
</glyph>
<glyph name="yen" format="1">
  <advance width="680"/>
  <unicode hex="00A5"/>
  <outline>
    <contour>
      <point x="782" y="681" type="line"/>
      <point x="536" y="681" type="line"/>
      <point x="522" y="601" type="line"/>
      <point x="549" y="598"/>
      <point x="564" y="590"/>
      <point x="564" y="578" type="curve" smooth="yes"/>
      <point x="564" y="569"/>
      <point x="564" y="569"/>
      <point x="548" y="547" type="curve" smooth="yes"/>
      <point x="434" y="381" type="line"/>
      <point x="374" y="552" type="line"/>
      <point x="371" y="559"/>
      <point x="368" y="572"/>
      <point x="368" y="576" type="curve" smooth="yes"/>
      <point x="368" y="589"/>
      <point x="383" y="596"/>
      <point x="427" y="601" type="curve"/>
      <point x="442" y="681" type="line"/>
      <point x="129" y="681" type="line"/>
      <point x="115" y="601" type="line"/>
      <point x="162" y="595"/>
      <point x="195" y="559"/>
      <point x="227" y="476" type="curve" smooth="yes"/>
      <point x="241" y="442" type="line"/>
      <point x="136" y="442" type="line"/>
      <point x="121" y="359" type="line"/>
      <point x="278" y="359" type="line"/>
      <point x="300" y="305" type="line"/>
      <point x="296" y="284" type="line"/>
      <point x="107" y="284" type="line"/>
      <point x="92" y="201" type="line"/>
      <point x="282" y="201" type="line"/>
      <point x="274" y="164" type="line" smooth="yes"/>
      <point x="264" y="116"/>
      <point x="257" y="102"/>
      <point x="234" y="91" type="curve" smooth="yes"/>
      <point x="220" y="84"/>
      <point x="198" y="79"/>
      <point x="182" y="79" type="curve" smooth="yes"/>
      <point x="171" y="79" type="line"/>
      <point x="157" y="0" type="line"/>
      <point x="504" y="0" type="line"/>
      <point x="518" y="79" type="line"/>
      <point x="504" y="79" type="line" smooth="yes"/>
      <point x="463" y="79"/>
      <point x="437" y="96"/>
      <point x="437" y="123" type="curve" smooth="yes"/>
      <point x="437" y="130"/>
      <point x="439" y="145"/>
      <point x="442" y="164" type="curve" smooth="yes"/>
      <point x="449" y="201" type="line"/>
      <point x="640" y="201" type="line"/>
      <point x="656" y="284" type="line"/>
      <point x="464" y="284" type="line"/>
      <point x="467" y="302" type="line"/>
      <point x="508" y="359" type="line"/>
      <point x="668" y="359" type="line"/>
      <point x="683" y="442" type="line"/>
      <point x="573" y="442" type="line"/>
      <point x="647" y="543"/>
      <point x="708" y="594"/>
      <point x="767" y="601" type="curve"/>
    </contour>
  </outline>
</glyph>
<glyph name="brokenbar" format="1">
  <advance width="620"/>
  <unicode hex="00A6"/>
  <outline>
    <contour>
      <point x="422" y="293" type="line"/>
      <point x="303" y="293" type="line"/>
      <point x="303" y="0" type="line"/>
      <point x="422" y="0" type="line"/>
    </contour>
    <contour>
      <point x="422" y="722" type="line"/>
      <point x="303" y="722" type="line"/>
      <point x="303" y="429" type="line"/>
      <point x="422" y="429" type="line"/>
    </contour>
  </outline>
</glyph>
<glyph name="section" format="1">
  <advance width="620"/>
  <unicode hex="00A7"/>
  <outline>
    <contour>
      <point x="544" y="153" type="curve"/>
      <point x="593" y="200"/>
      <point x="617" y="250"/>
      <point x="617" y="302" type="curve" smooth="yes"/>
      <point x="617" y="348"/>
      <point x="589" y="393"/>
      <point x="545" y="416" type="curve" smooth="yes"/>
      <point x="515" y="432"/>
      <point x="470" y="448"/>
      <point x="398" y="468" type="curve" smooth="yes"/>
      <point x="314" y="490"/>
      <point x="293" y="504"/>
      <point x="293" y="533" type="curve" smooth="yes"/>
      <point x="293" y="577"/>
      <point x="346" y="612"/>
      <point x="414" y="612" type="curve" smooth="yes"/>
      <point x="461" y="612"/>
      <point x="496" y="596"/>
      <point x="496" y="575" type="curve" smooth="yes"/>
      <point x="496" y="572"/>
      <point x="496" y="568"/>
      <point x="495" y="564" type="curve"/>
      <point x="492" y="535"/>
      <point x="492" y="531"/>
      <point x="492" y="523" type="curve" smooth="yes"/>
      <point x="492" y="494"/>
      <point x="521" y="468"/>
      <point x="555" y="468" type="curve" smooth="yes"/>
      <point x="601" y="468"/>
      <point x="638" y="505"/>
      <point x="638" y="551" type="curve" smooth="yes"/>
      <point x="638" y="632"/>
      <point x="544" y="694"/>
      <point x="421" y="694" type="curve" smooth="yes"/>
      <point x="272" y="694"/>
      <point x="156" y="601"/>
      <point x="156" y="482" type="curve" smooth="yes"/>
      <point x="156" y="447"/>
      <point x="166" y="426"/>
      <point x="197" y="393" type="curve"/>
      <point x="142" y="354"/>
      <point x="104" y="295"/>
      <point x="104" y="250" type="curve" smooth="yes"/>
      <point x="104" y="216"/>
      <point x="124" y="179"/>
      <point x="153" y="159" type="curve" smooth="yes"/>
      <point x="178" y="141"/>
      <point x="201" y="131"/>
      <point x="271" y="108" type="curve" smooth="yes"/>
      <point x="348" y="83"/>
      <point x="378" y="73"/>
      <point x="398" y="65" type="curve"/>
      <point x="442" y="50"/>
      <point x="450" y="42"/>
      <point x="450" y="16" type="curve" smooth="yes"/>
      <point x="450" y="-35"/>
      <point x="388" y="-73"/>
      <point x="302" y="-73" type="curve" smooth="yes"/>
      <point x="233" y="-73"/>
      <point x="178" y="-52"/>
      <point x="178" y="-25" type="curve" smooth="yes"/>
      <point x="178" y="-21"/>
      <point x="179" y="-16"/>
      <point x="181" y="-10" type="curve" smooth="yes"/>
      <point x="188" y="11"/>
      <point x="190" y="21"/>
      <point x="190" y="32" type="curve" smooth="yes"/>
      <point x="190" y="62"/>
      <point x="161" y="89"/>
      <point x="128" y="89" type="curve" smooth="yes"/>
      <point x="84" y="89"/>
      <point x="46" y="46"/>
      <point x="46" y="-2" type="curve" smooth="yes"/>
      <point x="46" y="-87"/>
      <point x="144" y="-147"/>
      <point x="280" y="-147" type="curve" smooth="yes"/>
      <point x="379" y="-147"/>
      <point x="465" y="-118"/>
      <point x="518" y="-68" type="curve" smooth="yes"/>
      <point x="554" y="-34"/>
      <point x="578" y="18"/>
      <point x="578" y="61" type="curve" smooth="yes"/>
      <point x="578" y="94"/>
      <point x="566" y="126"/>
    </contour>
    <contour>
      <point x="401" y="311" type="line" smooth="yes"/>
      <point x="464" y="292"/>
      <point x="485" y="275"/>
      <point x="485" y="245" type="curve" smooth="yes"/>
      <point x="485" y="227"/>
      <point x="479" y="208"/>
      <point x="471" y="196" type="curve"/>
      <point x="346" y="238"/>
      <point x="282" y="260"/>
      <point x="278" y="262" type="curve"/>
      <point x="255" y="271"/>
      <point x="246" y="281"/>
      <point x="246" y="296" type="curve" smooth="yes"/>
      <point x="246" y="316"/>
      <point x="257" y="335"/>
      <point x="277" y="350" type="curve"/>
    </contour>
  </outline>
</glyph>
<glyph name="dieresis" format="1">
  <advance width="520"/>
  <unicode hex="00A8"/>
  <outline>
    <contour>
      <point x="275" y="729" type="curve" smooth="yes"/>
      <point x="226" y="729"/>
      <point x="180" y="683"/>
      <point x="180" y="634" type="curve" smooth="yes"/>
      <point x="180" y="597"/>
      <point x="207" y="569"/>
      <point x="244" y="569" type="curve" smooth="yes"/>
      <point x="291" y="569"/>
      <point x="340" y="617"/>
      <point x="340" y="664" type="curve" smooth="yes"/>
      <point x="340" y="703"/>
      <point x="314" y="729"/>
    </contour>
    <contour>
      <point x="504" y="729" type="curve" smooth="yes"/>
      <point x="455" y="729"/>
      <point x="409" y="683"/>
      <point x="409" y="634" type="curve" smooth="yes"/>
      <point x="409" y="597"/>
      <point x="436" y="569"/>
      <point x="473" y="569" type="curve" smooth="yes"/>
      <point x="520" y="569"/>
      <point x="569" y="617"/>
      <point x="569" y="664" type="curve" smooth="yes"/>
      <point x="569" y="703"/>
      <point x="543" y="729"/>
    </contour>
  </outline>
</glyph>
<glyph name="copyright" format="1">
  <advance width="780"/>
  <unicode hex="00A9"/>
  <outline>
    <contour>
      <point x="575" y="288" type="line"/>
      <point x="539" y="227"/>
      <point x="501" y="199"/>
      <point x="452" y="199" type="curve" smooth="yes"/>
      <point x="387" y="199"/>
      <point x="345" y="256"/>
      <point x="345" y="344" type="curve" smooth="yes"/>
      <point x="345" y="434"/>
      <point x="383" y="492"/>
      <point x="443" y="492" type="curve" smooth="yes"/>
      <point x="470" y="492"/>
      <point x="496" y="479"/>
      <point x="521" y="453" type="curve" smooth="yes"/>
      <point x="535" y="439"/>
      <point x="541" y="430"/>
      <point x="568" y="385" type="curve"/>
      <point x="610" y="401" type="line"/>
      <point x="564" y="532" type="line"/>
      <point x="525" y="532" type="line"/>
      <point x="521" y="519" type="line"/>
      <point x="495" y="532"/>
      <point x="462" y="539"/>
      <point x="429" y="539" type="curve" smooth="yes"/>
      <point x="316" y="539"/>
      <point x="239" y="459"/>
      <point x="239" y="343" type="curve" smooth="yes"/>
      <point x="239" y="229"/>
      <point x="322" y="147"/>
      <point x="438" y="147" type="curve" smooth="yes"/>
      <point x="522" y="147"/>
      <point x="595" y="194"/>
      <point x="621" y="264" type="curve"/>
    </contour>
    <contour>
      <point x="432" y="700" type="curve" smooth="yes"/>
      <point x="241" y="700"/>
      <point x="83" y="541"/>
      <point x="83" y="350" type="curve" smooth="yes"/>
      <point x="83" y="158"/>
      <point x="241" y="0"/>
      <point x="433" y="0" type="curve" smooth="yes"/>
      <point x="623" y="0"/>
      <point x="783" y="158"/>
      <point x="783" y="346" type="curve" smooth="yes"/>
      <point x="783" y="543"/>
      <point x="627" y="700"/>
    </contour>
    <contour>
      <point x="432" y="653" type="curve" smooth="yes"/>
      <point x="600" y="653"/>
      <point x="732" y="518"/>
      <point x="732" y="346" type="curve" smooth="yes"/>
      <point x="732" y="183"/>
      <point x="596" y="47"/>
      <point x="433" y="47" type="curve" smooth="yes"/>
      <point x="268" y="47"/>
      <point x="134" y="183"/>
      <point x="134" y="350" type="curve" smooth="yes"/>
      <point x="134" y="517"/>
      <point x="268" y="653"/>
    </contour>
  </outline>
</glyph>
<glyph name="ordfeminine" format="1">
  <advance width="440"/>
  <unicode hex="00AA"/>
  <outline>
    <contour>
      <point x="444" y="693" type="line"/>
      <point x="362" y="693" type="line"/>
      <point x="358" y="671" type="line"/>
      <point x="341" y="687"/>
      <point x="308" y="698"/>
      <point x="280" y="698" type="curve" smooth="yes"/>
      <point x="187" y="698"/>
      <point x="107" y="614"/>
      <point x="107" y="516" type="curve" smooth="yes"/>
      <point x="107" y="445"/>
      <point x="154" y="393"/>
      <point x="220" y="393" type="curve" smooth="yes"/>
      <point x="258" y="393"/>
      <point x="284" y="405"/>
      <point x="316" y="439" type="curve"/>
      <point x="325" y="409"/>
      <point x="349" y="393"/>
      <point x="386" y="393" type="curve" smooth="yes"/>
      <point x="419" y="393"/>
      <point x="452" y="409"/>
      <point x="483" y="439" type="curve"/>
      <point x="458" y="469" type="line"/>
      <point x="445" y="461"/>
      <point x="438" y="458"/>
      <point x="429" y="458" type="curve" smooth="yes"/>
      <point x="416" y="458"/>
      <point x="406" y="468"/>
      <point x="406" y="481" type="curve" smooth="yes"/>
      <point x="406" y="487"/>
      <point x="406" y="487"/>
      <point x="410" y="507" type="curve" smooth="yes"/>
    </contour>
    <contour>
      <point x="350" y="629" type="curve"/>
      <point x="322" y="536"/>
      <point x="315" y="515"/>
      <point x="305" y="496" type="curve" smooth="yes"/>
      <point x="289" y="465"/>
      <point x="270" y="450"/>
      <point x="248" y="450" type="curve" smooth="yes"/>
      <point x="224" y="450"/>
      <point x="209" y="471"/>
      <point x="209" y="504" type="curve" smooth="yes"/>
      <point x="209" y="581"/>
      <point x="252" y="651"/>
      <point x="300" y="651" type="curve" smooth="yes"/>
      <point x="315" y="651"/>
      <point x="330" y="644"/>
    </contour>
    <contour>
      <point x="66" y="362" type="line"/>
      <point x="55" y="300" type="line"/>
      <point x="484" y="300" type="line"/>
      <point x="495" y="362" type="line"/>
    </contour>
  </outline>
</glyph>
<glyph name="guillemotleft" format="1">
  <advance width="380"/>
  <unicode hex="00AB"/>
  <outline>
    <contour>
      <point x="150" y="57" type="line"/>
      <point x="206" y="93" type="line"/>
      <point x="165" y="252" type="line"/>
      <point x="249" y="442" type="line"/>
      <point x="206" y="477" type="line"/>
      <point x="62" y="258" type="line"/>
    </contour>
    <contour>
      <point x="307" y="57" type="line"/>
      <point x="363" y="93" type="line"/>
      <point x="322" y="252" type="line"/>
      <point x="406" y="442" type="line"/>
      <point x="363" y="477" type="line"/>
      <point x="219" y="258" type="line"/>
    </contour>
  </outline>
</glyph>
<glyph name="logicalnot" format="1">
  <advance width="620"/>
  <unicode hex="00AC"/>
  <outline>
    <contour>
      <point x="81" y="367" type="line"/>
      <point x="81" y="267" type="line"/>
      <point x="485" y="267" type="line"/>
      <point x="485" y="80" type="line"/>
      <point x="585" y="80" type="line"/>
      <point x="585" y="367" type="line"/>
    </contour>
  </outline>
</glyph>
<glyph name="registered" format="1">
  <advance width="780"/>
  <unicode hex="00AE"/>
  <outline>
    <contour>
      <point x="527" y="354" type="line"/>
      <point x="586" y="368"/>
      <point x="620" y="406"/>
      <point x="620" y="457" type="curve" smooth="yes"/>
      <point x="620" y="492"/>
      <point x="599" y="525"/>
      <point x="569" y="539" type="curve" smooth="yes"/>
      <point x="541" y="553"/>
      <point x="507" y="558"/>
      <point x="454" y="558" type="curve" smooth="yes"/>
      <point x="237" y="558" type="line"/>
      <point x="237" y="512" type="line"/>
      <point x="248" y="511" type="line" smooth="yes"/>
      <point x="279" y="508"/>
      <point x="286" y="500"/>
      <point x="286" y="465" type="curve" smooth="yes"/>
      <point x="286" y="272" type="line" smooth="yes"/>
      <point x="286" y="236"/>
      <point x="279" y="228"/>
      <point x="248" y="225" type="curve" smooth="yes"/>
      <point x="237" y="224" type="line"/>
      <point x="237" y="178" type="line"/>
      <point x="433" y="178" type="line"/>
      <point x="433" y="224" type="line"/>
      <point x="422" y="225" type="line" smooth="yes"/>
      <point x="391" y="228"/>
      <point x="384" y="236"/>
      <point x="384" y="272" type="curve" smooth="yes"/>
      <point x="384" y="342" type="line"/>
      <point x="413" y="342" type="line"/>
      <point x="533" y="178" type="line"/>
      <point x="663" y="178" type="line"/>
      <point x="663" y="224" type="line"/>
      <point x="631" y="227"/>
      <point x="619" y="233"/>
      <point x="597" y="263" type="curve" smooth="yes"/>
    </contour>
    <contour>
      <point x="384" y="395" type="line"/>
      <point x="384" y="481" type="line" smooth="yes"/>
      <point x="384" y="502"/>
      <point x="391" y="506"/>
      <point x="432" y="506" type="curve" smooth="yes"/>
      <point x="482" y="506"/>
      <point x="508" y="488"/>
      <point x="508" y="451" type="curve" smooth="yes"/>
      <point x="508" y="414"/>
      <point x="479" y="395"/>
      <point x="423" y="395" type="curve" smooth="yes"/>
    </contour>
    <contour>
      <point x="432" y="700" type="curve" smooth="yes"/>
      <point x="241" y="700"/>
      <point x="83" y="541"/>
      <point x="83" y="350" type="curve" smooth="yes"/>
      <point x="83" y="158"/>
      <point x="241" y="0"/>
      <point x="433" y="0" type="curve" smooth="yes"/>
      <point x="623" y="0"/>
      <point x="783" y="158"/>
      <point x="783" y="346" type="curve" smooth="yes"/>
      <point x="783" y="543"/>
      <point x="627" y="700"/>
    </contour>
    <contour>
      <point x="432" y="653" type="curve" smooth="yes"/>
      <point x="600" y="653"/>
      <point x="732" y="518"/>
      <point x="732" y="346" type="curve" smooth="yes"/>
      <point x="732" y="183"/>
      <point x="596" y="47"/>
      <point x="433" y="47" type="curve" smooth="yes"/>
      <point x="268" y="47"/>
      <point x="134" y="183"/>
      <point x="134" y="350" type="curve" smooth="yes"/>
      <point x="134" y="517"/>
      <point x="268" y="653"/>
    </contour>
  </outline>
</glyph>
<glyph name="macron" format="1">
  <advance width="480"/>
  <unicode hex="00AF"/>
  <outline>
    <contour>
      <point x="505" y="603" type="line"/>
      <point x="531" y="691" type="line"/>
      <point x="203" y="691" type="line"/>
      <point x="177" y="603" type="line"/>
    </contour>
  </outline>
</glyph>
<glyph name="degree" format="1">
  <advance width="400"/>
  <unicode hex="00B0"/>
  <outline>
    <contour>
      <point x="283" y="686" type="curve" smooth="yes"/>
      <point x="198" y="686"/>
      <point x="130" y="619"/>
      <point x="130" y="534" type="curve" smooth="yes"/>
      <point x="130" y="448"/>
      <point x="196" y="380"/>
      <point x="280" y="380" type="curve" smooth="yes"/>
      <point x="364" y="380"/>
      <point x="430" y="447"/>
      <point x="430" y="533" type="curve" smooth="yes"/>
      <point x="430" y="619"/>
      <point x="366" y="686"/>
    </contour>
    <contour>
      <point x="282" y="629" type="curve" smooth="yes"/>
      <point x="332" y="629"/>
      <point x="373" y="586"/>
      <point x="373" y="533" type="curve" smooth="yes"/>
      <point x="373" y="479"/>
      <point x="332" y="437"/>
      <point x="280" y="437" type="curve" smooth="yes"/>
      <point x="229" y="437"/>
      <point x="186" y="480"/>
      <point x="186" y="533" type="curve" smooth="yes"/>
      <point x="186" y="586"/>
      <point x="228" y="629"/>
    </contour>
  </outline>
</glyph>
<glyph name="plusminus" format="1">
  <advance width="600"/>
  <unicode hex="00B1"/>
  <outline>
    <contour>
      <point x="595" y="328" type="line"/>
      <point x="595" y="442" type="line"/>
      <point x="401" y="442" type="line"/>
      <point x="401" y="628" type="line"/>
      <point x="285" y="628" type="line"/>
      <point x="285" y="442" type="line"/>
      <point x="91" y="442" type="line"/>
      <point x="91" y="328" type="line"/>
      <point x="285" y="328" type="line"/>
      <point x="285" y="160" type="line"/>
      <point x="401" y="160" type="line"/>
      <point x="401" y="328" type="line"/>
    </contour>
    <contour>
      <point x="595" y="0" type="line"/>
      <point x="595" y="114" type="line"/>
      <point x="91" y="114" type="line"/>
      <point x="91" y="0" type="line"/>
    </contour>
  </outline>
</glyph>
<glyph name="acute" format="1">
  <advance width="340"/>
  <unicode hex="00B4"/>
  <outline>
    <contour>
      <point x="217" y="561" type="line"/>
      <point x="276" y="581"/>
      <point x="316" y="596"/>
      <point x="340" y="609" type="curve" smooth="yes"/>
      <point x="386" y="632"/>
      <point x="407" y="657"/>
      <point x="407" y="688" type="curve" smooth="yes"/>
      <point x="407" y="722"/>
      <point x="377" y="748"/>
      <point x="338" y="748" type="curve" smooth="yes"/>
      <point x="314" y="748"/>
      <point x="297" y="739"/>
      <point x="272" y="715" type="curve" smooth="yes"/>
      <point x="244" y="689"/>
      <point x="210" y="650"/>
      <point x="176" y="605" type="curve"/>
    </contour>
  </outline>
</glyph>
<glyph name="paragraph" format="1">
  <advance width="680"/>
  <unicode hex="00B6"/>
  <outline>
    <contour>
      <point x="726" y="681" type="line"/>
      <point x="397" y="681" type="line" smooth="yes"/>
      <point x="312" y="681"/>
      <point x="288" y="678"/>
      <point x="248" y="663" type="curve" smooth="yes"/>
      <point x="144" y="623"/>
      <point x="70" y="506"/>
      <point x="70" y="384" type="curve" smooth="yes"/>
      <point x="70" y="293"/>
      <point x="108" y="220"/>
      <point x="174" y="187" type="curve" smooth="yes"/>
      <point x="209" y="169"/>
      <point x="250" y="163"/>
      <point x="334" y="163" type="curve"/>
      <point x="298" y="-33" type="line" smooth="yes"/>
      <point x="288" y="-98"/>
      <point x="275" y="-111"/>
      <point x="214" y="-114" type="curve" smooth="yes"/>
      <point x="199" y="-115" type="line"/>
      <point x="184" y="-201" type="line"/>
      <point x="652" y="-201" type="line"/>
      <point x="667" y="-115" type="line"/>
      <point x="650" y="-114" type="line" smooth="yes"/>
      <point x="602" y="-110"/>
      <point x="589" y="-104"/>
      <point x="589" y="-84" type="curve" smooth="yes"/>
      <point x="589" y="-79"/>
      <point x="592" y="-55"/>
      <point x="593" y="-46" type="curve"/>
    </contour>
    <contour>
      <point x="353" y="264" type="line"/>
      <point x="340" y="264" type="line" smooth="yes"/>
      <point x="269" y="264"/>
      <point x="243" y="290"/>
      <point x="243" y="361" type="curve" smooth="yes"/>
      <point x="243" y="435"/>
      <point x="263" y="508"/>
      <point x="296" y="551" type="curve" smooth="yes"/>
      <point x="316" y="578"/>
      <point x="346" y="592"/>
      <point x="385" y="592" type="curve" smooth="yes"/>
      <point x="391" y="592"/>
      <point x="402" y="592"/>
      <point x="412" y="591" type="curve"/>
    </contour>
    <contour>
      <point x="594" y="591" type="line"/>
      <point x="466" y="-111" type="line"/>
      <point x="401" y="-111" type="line"/>
      <point x="529" y="591" type="line"/>
    </contour>
  </outline>
</glyph>
<glyph name="periodcentered" format="1">
  <advance width="340"/>
  <unicode hex="00B7"/>
  <outline>
    <contour>
      <point x="241" y="358" type="curve" smooth="yes"/>
      <point x="180" y="358"/>
      <point x="126" y="306"/>
      <point x="126" y="246" type="curve" smooth="yes"/>
      <point x="126" y="205"/>
      <point x="160" y="173"/>
      <point x="204" y="173" type="curve" smooth="yes"/>
      <point x="262" y="173"/>
      <point x="316" y="225"/>
      <point x="316" y="280" type="curve" smooth="yes"/>
      <point x="316" y="325"/>
      <point x="284" y="358"/>
    </contour>
  </outline>
</glyph>
<glyph name="cedilla" format="1">
  <advance width="360"/>
  <unicode hex="00B8"/>
  <outline>
    <contour>
      <point x="165" y="0" type="line"/>
      <point x="134" y="-69" type="line"/>
      <point x="158" y="-93" type="line"/>
      <point x="169" y="-88"/>
      <point x="175" y="-86"/>
      <point x="182" y="-86" type="curve" smooth="yes"/>
      <point x="199" y="-86"/>
      <point x="211" y="-99"/>
      <point x="211" y="-119" type="curve" smooth="yes"/>
      <point x="211" y="-146"/>
      <point x="191" y="-168"/>
      <point x="166" y="-168" type="curve" smooth="yes"/>
      <point x="152" y="-168"/>
      <point x="141" y="-161"/>
      <point x="136" y="-150" type="curve" smooth="yes"/>
      <point x="126" y="-128"/>
      <point x="120" y="-123"/>
      <point x="105" y="-123" type="curve" smooth="yes"/>
      <point x="85" y="-123"/>
      <point x="68" y="-141"/>
      <point x="68" y="-162" type="curve" smooth="yes"/>
      <point x="68" y="-194"/>
      <point x="107" y="-215"/>
      <point x="165" y="-215" type="curve" smooth="yes"/>
      <point x="238" y="-215"/>
      <point x="289" y="-173"/>
      <point x="289" y="-114" type="curve" smooth="yes"/>
      <point x="289" y="-77"/>
      <point x="263" y="-53"/>
      <point x="224" y="-53" type="curve" smooth="yes"/>
      <point x="213" y="-53"/>
      <point x="204" y="-55"/>
      <point x="186" y="-60" type="curve"/>
      <point x="213" y="0" type="line"/>
    </contour>
  </outline>
</glyph>
<glyph name="ordmasculine" format="1">
  <advance width="440"/>
  <unicode hex="00BA"/>
  <outline>
    <contour>
      <point x="319" y="698" type="curve" smooth="yes"/>
      <point x="269" y="698"/>
      <point x="223" y="681"/>
      <point x="191" y="651" type="curve" smooth="yes"/>
      <point x="155" y="617"/>
      <point x="132" y="562"/>
      <point x="132" y="511" type="curve" smooth="yes"/>
      <point x="132" y="439"/>
      <point x="186" y="393"/>
      <point x="272" y="393" type="curve" smooth="yes"/>
      <point x="326" y="393"/>
      <point x="375" y="413"/>
      <point x="408" y="448" type="curve" smooth="yes"/>
      <point x="439" y="480"/>
      <point x="460" y="533"/>
      <point x="460" y="576" type="curve" smooth="yes"/>
      <point x="460" y="654"/>
      <point x="410" y="698"/>
    </contour>
    <contour>
      <point x="315" y="651" type="curve" smooth="yes"/>
      <point x="345" y="651"/>
      <point x="358" y="634"/>
      <point x="358" y="594" type="curve" smooth="yes"/>
      <point x="358" y="565"/>
      <point x="346" y="512"/>
      <point x="333" y="484" type="curve" smooth="yes"/>
      <point x="319" y="455"/>
      <point x="300" y="440"/>
      <point x="276" y="440" type="curve" smooth="yes"/>
      <point x="250" y="440"/>
      <point x="234" y="459"/>
      <point x="234" y="491" type="curve" smooth="yes"/>
      <point x="234" y="525"/>
      <point x="245" y="578"/>
      <point x="259" y="607" type="curve" smooth="yes"/>
      <point x="274" y="638"/>
      <point x="290" y="651"/>
    </contour>
    <contour>
      <point x="58" y="362" type="line"/>
      <point x="47" y="300" type="line"/>
      <point x="456" y="300" type="line"/>
      <point x="467" y="362" type="line"/>
    </contour>
  </outline>
</glyph>
<glyph name="guillemotright" format="1">
  <advance width="380"/>
  <unicode hex="00BB"/>
  <outline>
    <contour>
      <point x="161" y="477" type="line"/>
      <point x="105" y="440" type="line"/>
      <point x="146" y="282" type="line"/>
      <point x="62" y="91" type="line"/>
      <point x="105" y="57" type="line"/>
      <point x="249" y="275" type="line"/>
    </contour>
    <contour>
      <point x="318" y="477" type="line"/>
      <point x="262" y="440" type="line"/>
      <point x="303" y="282" type="line"/>
      <point x="219" y="91" type="line"/>
      <point x="262" y="57" type="line"/>
      <point x="406" y="275" type="line"/>
    </contour>
  </outline>
</glyph>
<glyph name="onequarter" format="1">
  <advance width="1020"/>
  <unicode hex="00BC"/>
  <outline>
    <contour>
      <point x="390" y="681" type="line"/>
      <point x="350" y="681" type="line"/>
      <point x="311" y="668"/>
      <point x="298" y="666"/>
      <point x="206" y="661" type="curve"/>
      <point x="205" y="661"/>
      <point x="201" y="661"/>
      <point x="195" y="662" type="curve"/>
      <point x="189" y="662" type="line"/>
      <point x="179" y="603" type="line"/>
      <point x="215" y="603" type="line" smooth="yes"/>
      <point x="239" y="603"/>
      <point x="253" y="597"/>
      <point x="253" y="586" type="curve" smooth="yes"/>
      <point x="253" y="583"/>
      <point x="252" y="575"/>
      <point x="250" y="565" type="curve" smooth="yes"/>
      <point x="213" y="362" type="line" smooth="yes"/>
      <point x="209" y="339"/>
      <point x="199" y="333"/>
      <point x="167" y="332" type="curve" smooth="yes"/>
      <point x="129" y="331" type="line"/>
      <point x="118" y="273" type="line"/>
      <point x="395" y="273" type="line"/>
      <point x="406" y="331" type="line"/>
      <point x="369" y="332" type="line" smooth="yes"/>
      <point x="341" y="333"/>
      <point x="331" y="337"/>
      <point x="331" y="349" type="curve" smooth="yes"/>
      <point x="331" y="352"/>
      <point x="332" y="359"/>
      <point x="334" y="369" type="curve" smooth="yes"/>
    </contour>
    <contour>
      <point x="840" y="681" type="line"/>
      <point x="757" y="681" type="line"/>
      <point x="314" y="0" type="line"/>
      <point x="398" y="0" type="line"/>
    </contour>
    <contour>
      <point x="1004" y="408" type="line"/>
      <point x="894" y="408" type="line"/>
      <point x="637" y="161" type="line"/>
      <point x="653" y="107" type="line"/>
      <point x="837" y="107" type="line"/>
      <point x="830" y="70"/>
      <point x="823" y="62"/>
      <point x="793" y="59" type="curve"/>
      <point x="770" y="58" type="line"/>
      <point x="760" y="0" type="line"/>
      <point x="987" y="0" type="line"/>
      <point x="998" y="58" type="line"/>
      <point x="977" y="59" type="line"/>
      <point x="957" y="61"/>
      <point x="945" y="70"/>
      <point x="945" y="84" type="curve" smooth="yes"/>
      <point x="945" y="86"/>
      <point x="945" y="89"/>
      <point x="946" y="91" type="curve"/>
      <point x="949" y="107" type="line"/>
      <point x="1018" y="107" type="line"/>
      <point x="1054" y="177" type="line"/>
      <point x="962" y="177" type="line"/>
    </contour>
    <contour>
      <point x="849" y="177" type="line"/>
      <point x="743" y="177" type="line"/>
      <point x="806" y="239"/>
      <point x="816" y="248"/>
      <point x="874" y="310" type="curve"/>
    </contour>
  </outline>
</glyph>
<glyph name="onehalf" format="1">
  <advance width="1020"/>
  <unicode hex="00BD"/>
  <outline>
    <contour>
      <point x="390" y="681" type="line"/>
      <point x="350" y="681" type="line"/>
      <point x="311" y="668"/>
      <point x="298" y="666"/>
      <point x="206" y="661" type="curve"/>
      <point x="205" y="661"/>
      <point x="201" y="661"/>
      <point x="195" y="662" type="curve"/>
      <point x="189" y="662" type="line"/>
      <point x="179" y="603" type="line"/>
      <point x="215" y="603" type="line" smooth="yes"/>
      <point x="239" y="603"/>
      <point x="253" y="597"/>
      <point x="253" y="586" type="curve" smooth="yes"/>
      <point x="253" y="583"/>
      <point x="252" y="575"/>
      <point x="250" y="565" type="curve" smooth="yes"/>
      <point x="213" y="362" type="line" smooth="yes"/>
      <point x="209" y="339"/>
      <point x="199" y="333"/>
      <point x="167" y="332" type="curve" smooth="yes"/>
      <point x="129" y="331" type="line"/>
      <point x="118" y="273" type="line"/>
      <point x="395" y="273" type="line"/>
      <point x="406" y="331" type="line"/>
      <point x="369" y="332" type="line" smooth="yes"/>
      <point x="341" y="333"/>
      <point x="331" y="337"/>
      <point x="331" y="349" type="curve" smooth="yes"/>
      <point x="331" y="352"/>
      <point x="332" y="359"/>
      <point x="334" y="369" type="curve" smooth="yes"/>
    </contour>
    <contour>
      <point x="828" y="681" type="line"/>
      <point x="745" y="681" type="line"/>
      <point x="302" y="0" type="line"/>
      <point x="386" y="0" type="line"/>
    </contour>
    <contour>
      <point x="1033" y="131" type="line"/>
      <point x="981" y="148" type="line"/>
      <point x="978" y="144" type="line"/>
      <point x="947" y="95"/>
      <point x="936" y="90"/>
      <point x="866" y="90" type="curve" smooth="yes"/>
      <point x="807" y="90" type="line"/>
      <point x="849" y="114" type="line" smooth="yes"/>
      <point x="991" y="193"/>
      <point x="1036" y="239"/>
      <point x="1036" y="305" type="curve" smooth="yes"/>
      <point x="1036" y="372"/>
      <point x="972" y="416"/>
      <point x="872" y="416" type="curve" smooth="yes"/>
      <point x="811" y="416"/>
      <point x="762" y="399"/>
      <point x="725" y="366" type="curve" smooth="yes"/>
      <point x="699" y="342"/>
      <point x="686" y="315"/>
      <point x="686" y="289" type="curve" smooth="yes"/>
      <point x="686" y="257"/>
      <point x="708" y="236"/>
      <point x="739" y="236" type="curve" smooth="yes"/>
      <point x="771" y="236"/>
      <point x="801" y="263"/>
      <point x="801" y="292" type="curve" smooth="yes"/>
      <point x="801" y="299"/>
      <point x="800" y="303"/>
      <point x="793" y="314" type="curve"/>
      <point x="790" y="320"/>
      <point x="788" y="324"/>
      <point x="788" y="326" type="curve" smooth="yes"/>
      <point x="788" y="342"/>
      <point x="819" y="357"/>
      <point x="851" y="357" type="curve" smooth="yes"/>
      <point x="882" y="357"/>
      <point x="904" y="337"/>
      <point x="904" y="309" type="curve" smooth="yes"/>
      <point x="904" y="265"/>
      <point x="866" y="211"/>
      <point x="799" y="160" type="curve" smooth="yes"/>
      <point x="750" y="124"/>
      <point x="690" y="89"/>
      <point x="642" y="69" type="curve"/>
      <point x="649" y="0" type="line"/>
      <point x="972" y="0" type="line"/>
    </contour>
  </outline>
</glyph>
<glyph name="threequarters" format="1">
  <advance width="1020"/>
  <unicode hex="00BE"/>
  <outline>
    <contour>
      <point x="227" y="463" type="line"/>
      <point x="248" y="463" type="line" smooth="yes"/>
      <point x="313" y="463"/>
      <point x="338" y="447"/>
      <point x="338" y="407" type="curve" smooth="yes"/>
      <point x="338" y="360"/>
      <point x="305" y="330"/>
      <point x="254" y="330" type="curve" smooth="yes"/>
      <point x="224" y="330"/>
      <point x="193" y="343"/>
      <point x="193" y="355" type="curve" smooth="yes"/>
      <point x="193" y="357"/>
      <point x="195" y="363"/>
      <point x="199" y="372" type="curve" smooth="yes"/>
      <point x="201" y="376"/>
      <point x="202" y="381"/>
      <point x="202" y="386" type="curve" smooth="yes"/>
      <point x="202" y="410"/>
      <point x="180" y="428"/>
      <point x="151" y="428" type="curve" smooth="yes"/>
      <point x="116" y="428"/>
      <point x="86" y="398"/>
      <point x="86" y="361" type="curve" smooth="yes"/>
      <point x="86" y="305"/>
      <point x="154" y="265"/>
      <point x="249" y="265" type="curve" smooth="yes"/>
      <point x="375" y="265"/>
      <point x="470" y="327"/>
      <point x="470" y="409" type="curve" smooth="yes"/>
      <point x="470" y="443"/>
      <point x="456" y="466"/>
      <point x="423" y="485" type="curve"/>
      <point x="410" y="491" type="line"/>
      <point x="422" y="497" type="line"/>
      <point x="464" y="522"/>
      <point x="483" y="549"/>
      <point x="483" y="585" type="curve" smooth="yes"/>
      <point x="483" y="646"/>
      <point x="413" y="689"/>
      <point x="314" y="689" type="curve" smooth="yes"/>
      <point x="216" y="689"/>
      <point x="136" y="638"/>
      <point x="136" y="575" type="curve" smooth="yes"/>
      <point x="136" y="547"/>
      <point x="157" y="529"/>
      <point x="188" y="529" type="curve" smooth="yes"/>
      <point x="222" y="529"/>
      <point x="251" y="552"/>
      <point x="251" y="579" type="curve" smooth="yes"/>
      <point x="251" y="587"/>
      <point x="250" y="593"/>
      <point x="248" y="600" type="curve"/>
      <point x="248" y="603" type="line" smooth="yes"/>
      <point x="248" y="613"/>
      <point x="276" y="624"/>
      <point x="300" y="624" type="curve" smooth="yes"/>
      <point x="337" y="624"/>
      <point x="356" y="609"/>
      <point x="356" y="582" type="curve" smooth="yes"/>
      <point x="356" y="542"/>
      <point x="327" y="523"/>
      <point x="265" y="523" type="curve" smooth="yes"/>
      <point x="238" y="523" type="line"/>
    </contour>
    <contour>
      <point x="850" y="681" type="line"/>
      <point x="767" y="681" type="line"/>
      <point x="324" y="0" type="line"/>
      <point x="408" y="0" type="line"/>
    </contour>
    <contour>
      <point x="1004" y="408" type="line"/>
      <point x="894" y="408" type="line"/>
      <point x="637" y="161" type="line"/>
      <point x="653" y="107" type="line"/>
      <point x="837" y="107" type="line"/>
      <point x="830" y="70"/>
      <point x="823" y="62"/>
      <point x="793" y="59" type="curve"/>
      <point x="770" y="58" type="line"/>
      <point x="760" y="0" type="line"/>
      <point x="987" y="0" type="line"/>
      <point x="998" y="58" type="line"/>
      <point x="977" y="59" type="line"/>
      <point x="957" y="61"/>
      <point x="945" y="70"/>
      <point x="945" y="84" type="curve" smooth="yes"/>
      <point x="945" y="86"/>
      <point x="945" y="89"/>
      <point x="946" y="91" type="curve"/>
      <point x="949" y="107" type="line"/>
      <point x="1018" y="107" type="line"/>
      <point x="1054" y="177" type="line"/>
      <point x="962" y="177" type="line"/>
    </contour>
    <contour>
      <point x="849" y="177" type="line"/>
      <point x="743" y="177" type="line"/>
      <point x="806" y="239"/>
      <point x="816" y="248"/>
      <point x="874" y="310" type="curve"/>
    </contour>
  </outline>
</glyph>
<glyph name="questiondown" format="1">
  <advance width="620"/>
  <unicode hex="00BF"/>
  <outline>
    <contour>
      <point x="334" y="295" type="line"/>
      <point x="326" y="241"/>
      <point x="308" y="222"/>
      <point x="241" y="197" type="curve" smooth="yes"/>
      <point x="142" y="156"/>
      <point x="83" y="78"/>
      <point x="83" y="-12" type="curve" smooth="yes"/>
      <point x="83" y="-114"/>
      <point x="181" y="-183"/>
      <point x="323" y="-183" type="curve" smooth="yes"/>
      <point x="478" y="-183"/>
      <point x="606" y="-97"/>
      <point x="606" y="7" type="curve" smooth="yes"/>
      <point x="606" y="52"/>
      <point x="577" y="81"/>
      <point x="531" y="81" type="curve" smooth="yes"/>
      <point x="487" y="81"/>
      <point x="446" y="41"/>
      <point x="446" y="0" type="curve" smooth="yes"/>
      <point x="446" y="-7"/>
      <point x="448" y="-15"/>
      <point x="451" y="-23" type="curve" smooth="yes"/>
      <point x="455" y="-35"/>
      <point x="458" y="-45"/>
      <point x="458" y="-50" type="curve" smooth="yes"/>
      <point x="458" y="-78"/>
      <point x="406" y="-105"/>
      <point x="351" y="-105" type="curve" smooth="yes"/>
      <point x="295" y="-105"/>
      <point x="256" y="-64"/>
      <point x="256" y="-6" type="curve" smooth="yes"/>
      <point x="256" y="15"/>
      <point x="262" y="37"/>
      <point x="273" y="58" type="curve" smooth="yes"/>
      <point x="284" y="79"/>
      <point x="294" y="89"/>
      <point x="328" y="114" type="curve" smooth="yes"/>
      <point x="403" y="170"/>
      <point x="420" y="201"/>
      <point x="425" y="295" type="curve"/>
    </contour>
    <contour>
      <point x="403" y="524" type="curve" smooth="yes"/>
      <point x="349" y="524"/>
      <point x="306" y="478"/>
      <point x="306" y="422" type="curve" smooth="yes"/>
      <point x="306" y="379"/>
      <point x="339" y="346"/>
      <point x="383" y="346" type="curve" smooth="yes"/>
      <point x="433" y="346"/>
      <point x="477" y="392"/>
      <point x="477" y="444" type="curve" smooth="yes"/>
      <point x="477" y="490"/>
      <point x="445" y="524"/>
    </contour>
  </outline>
</glyph>
<glyph name="Agrave" format="1">
  <advance width="720"/>
  <unicode hex="00C0"/>
  <outline>
    <contour>
      <point x="564" y="681" type="line"/>
      <point x="413" y="681" type="line"/>
      <point x="135" y="210" type="line" smooth="yes"/>
      <point x="130" y="202"/>
      <point x="124" y="190"/>
      <point x="116" y="177" type="curve"/>
      <point x="86" y="120"/>
      <point x="55" y="97"/>
      <point x="-12" y="81" type="curve"/>
      <point x="-27" y="0" type="line"/>
      <point x="262" y="0" type="line"/>
      <point x="277" y="81" type="line"/>
      <point x="258" y="83" type="line" smooth="yes"/>
      <point x="217" y="88"/>
      <point x="200" y="96"/>
      <point x="200" y="113" type="curve" smooth="yes"/>
      <point x="200" y="125"/>
      <point x="201" y="126"/>
      <point x="216" y="155" type="curve" smooth="yes"/>
      <point x="262" y="242" type="line"/>
      <point x="484" y="242" type="line"/>
      <point x="500" y="165" type="line" smooth="yes"/>
      <point x="504" y="146"/>
      <point x="507" y="128"/>
      <point x="507" y="119" type="curve" smooth="yes"/>
      <point x="507" y="99"/>
      <point x="493" y="91"/>
      <point x="450" y="85" type="curve" smooth="yes"/>
      <point x="431" y="83" type="line"/>
      <point x="417" y="81" type="line"/>
      <point x="402" y="0" type="line"/>
      <point x="754" y="0" type="line"/>
      <point x="769" y="81" type="line"/>
      <point x="764" y="82"/>
      <point x="759" y="84"/>
      <point x="757" y="84" type="curve"/>
      <point x="715" y="94"/>
      <point x="712" y="95"/>
      <point x="701" y="112" type="curve" smooth="yes"/>
      <point x="696" y="119"/>
      <point x="691" y="134"/>
      <point x="680" y="178" type="curve" smooth="yes"/>
    </contour>
    <contour>
      <point x="469" y="320" type="line"/>
      <point x="305" y="320" type="line"/>
      <point x="428" y="538" type="line"/>
    </contour>
    <contour>
      <point x="567" y="771" type="line"/>
      <point x="533" y="816"/>
      <point x="499" y="855"/>
      <point x="471" y="881" type="curve" smooth="yes"/>
      <point x="446" y="906"/>
      <point x="429" y="914"/>
      <point x="405" y="914" type="curve" smooth="yes"/>
      <point x="366" y="914"/>
      <point x="336" y="888"/>
      <point x="336" y="854" type="curve" smooth="yes"/>
      <point x="336" y="826"/>
      <point x="354" y="802"/>
      <point x="391" y="781" type="curve" smooth="yes"/>
      <point x="417" y="767"/>
      <point x="457" y="751"/>
      <point x="526" y="727" type="curve"/>
    </contour>
  </outline>
</glyph>
<glyph name="Aacute" format="1">
  <advance width="720"/>
  <unicode hex="00C1"/>
  <outline>
    <contour>
      <point x="564" y="681" type="line"/>
      <point x="413" y="681" type="line"/>
      <point x="135" y="210" type="line" smooth="yes"/>
      <point x="130" y="202"/>
      <point x="124" y="190"/>
      <point x="116" y="177" type="curve"/>
      <point x="86" y="120"/>
      <point x="55" y="97"/>
      <point x="-12" y="81" type="curve"/>
      <point x="-27" y="0" type="line"/>
      <point x="262" y="0" type="line"/>
      <point x="277" y="81" type="line"/>
      <point x="258" y="83" type="line" smooth="yes"/>
      <point x="217" y="88"/>
      <point x="200" y="96"/>
      <point x="200" y="113" type="curve" smooth="yes"/>
      <point x="200" y="125"/>
      <point x="201" y="126"/>
      <point x="216" y="155" type="curve" smooth="yes"/>
      <point x="262" y="242" type="line"/>
      <point x="484" y="242" type="line"/>
      <point x="500" y="165" type="line" smooth="yes"/>
      <point x="504" y="146"/>
      <point x="507" y="128"/>
      <point x="507" y="119" type="curve" smooth="yes"/>
      <point x="507" y="99"/>
      <point x="493" y="91"/>
      <point x="450" y="85" type="curve" smooth="yes"/>
      <point x="431" y="83" type="line"/>
      <point x="417" y="81" type="line"/>
      <point x="402" y="0" type="line"/>
      <point x="754" y="0" type="line"/>
      <point x="769" y="81" type="line"/>
      <point x="764" y="82"/>
      <point x="759" y="84"/>
      <point x="757" y="84" type="curve"/>
      <point x="715" y="94"/>
      <point x="712" y="95"/>
      <point x="701" y="112" type="curve" smooth="yes"/>
      <point x="696" y="119"/>
      <point x="691" y="134"/>
      <point x="680" y="178" type="curve" smooth="yes"/>
    </contour>
    <contour>
      <point x="469" y="320" type="line"/>
      <point x="305" y="320" type="line"/>
      <point x="428" y="538" type="line"/>
    </contour>
    <contour>
      <point x="474" y="727" type="line"/>
      <point x="533" y="747"/>
      <point x="573" y="762"/>
      <point x="597" y="775" type="curve" smooth="yes"/>
      <point x="643" y="798"/>
      <point x="664" y="823"/>
      <point x="664" y="854" type="curve" smooth="yes"/>
      <point x="664" y="888"/>
      <point x="634" y="914"/>
      <point x="595" y="914" type="curve" smooth="yes"/>
      <point x="571" y="914"/>
      <point x="554" y="905"/>
      <point x="529" y="881" type="curve" smooth="yes"/>
      <point x="501" y="855"/>
      <point x="467" y="816"/>
      <point x="433" y="771" type="curve"/>
    </contour>
  </outline>
</glyph>
<glyph name="Acircumflex" format="1">
  <advance width="720"/>
  <unicode hex="00C2"/>
  <outline>
    <contour>
      <point x="564" y="681" type="line"/>
      <point x="413" y="681" type="line"/>
      <point x="135" y="210" type="line" smooth="yes"/>
      <point x="130" y="202"/>
      <point x="124" y="190"/>
      <point x="116" y="177" type="curve"/>
      <point x="86" y="120"/>
      <point x="55" y="97"/>
      <point x="-12" y="81" type="curve"/>
      <point x="-27" y="0" type="line"/>
      <point x="262" y="0" type="line"/>
      <point x="277" y="81" type="line"/>
      <point x="258" y="83" type="line" smooth="yes"/>
      <point x="217" y="88"/>
      <point x="200" y="96"/>
      <point x="200" y="113" type="curve" smooth="yes"/>
      <point x="200" y="125"/>
      <point x="201" y="126"/>
      <point x="216" y="155" type="curve" smooth="yes"/>
      <point x="262" y="242" type="line"/>
      <point x="484" y="242" type="line"/>
      <point x="500" y="165" type="line" smooth="yes"/>
      <point x="504" y="146"/>
      <point x="507" y="128"/>
      <point x="507" y="119" type="curve" smooth="yes"/>
      <point x="507" y="99"/>
      <point x="493" y="91"/>
      <point x="450" y="85" type="curve" smooth="yes"/>
      <point x="431" y="83" type="line"/>
      <point x="417" y="81" type="line"/>
      <point x="402" y="0" type="line"/>
      <point x="754" y="0" type="line"/>
      <point x="769" y="81" type="line"/>
      <point x="764" y="82"/>
      <point x="759" y="84"/>
      <point x="757" y="84" type="curve"/>
      <point x="715" y="94"/>
      <point x="712" y="95"/>
      <point x="701" y="112" type="curve" smooth="yes"/>
      <point x="696" y="119"/>
      <point x="691" y="134"/>
      <point x="680" y="178" type="curve" smooth="yes"/>
    </contour>
    <contour>
      <point x="469" y="320" type="line"/>
      <point x="305" y="320" type="line"/>
      <point x="428" y="538" type="line"/>
    </contour>
    <contour>
      <point x="320" y="797" type="line"/>
      <point x="351" y="730" type="line"/>
      <point x="488" y="786" type="line"/>
      <point x="618" y="730" type="line"/>
      <point x="660" y="791" type="line"/>
      <point x="504" y="900" type="line"/>
    </contour>
  </outline>
</glyph>
<glyph name="Atilde" format="1">
  <advance width="720"/>
  <unicode hex="00C3"/>
  <outline>
    <contour>
      <point x="564" y="681" type="line"/>
      <point x="413" y="681" type="line"/>
      <point x="135" y="210" type="line" smooth="yes"/>
      <point x="130" y="202"/>
      <point x="124" y="190"/>
      <point x="116" y="177" type="curve"/>
      <point x="86" y="120"/>
      <point x="55" y="97"/>
      <point x="-12" y="81" type="curve"/>
      <point x="-27" y="0" type="line"/>
      <point x="262" y="0" type="line"/>
      <point x="277" y="81" type="line"/>
      <point x="258" y="83" type="line" smooth="yes"/>
      <point x="217" y="88"/>
      <point x="200" y="96"/>
      <point x="200" y="113" type="curve" smooth="yes"/>
      <point x="200" y="125"/>
      <point x="201" y="126"/>
      <point x="216" y="155" type="curve" smooth="yes"/>
      <point x="262" y="242" type="line"/>
      <point x="484" y="242" type="line"/>
      <point x="500" y="165" type="line" smooth="yes"/>
      <point x="504" y="146"/>
      <point x="507" y="128"/>
      <point x="507" y="119" type="curve" smooth="yes"/>
      <point x="507" y="99"/>
      <point x="493" y="91"/>
      <point x="450" y="85" type="curve" smooth="yes"/>
      <point x="431" y="83" type="line"/>
      <point x="417" y="81" type="line"/>
      <point x="402" y="0" type="line"/>
      <point x="754" y="0" type="line"/>
      <point x="769" y="81" type="line"/>
      <point x="764" y="82"/>
      <point x="759" y="84"/>
      <point x="757" y="84" type="curve"/>
      <point x="715" y="94"/>
      <point x="712" y="95"/>
      <point x="701" y="112" type="curve" smooth="yes"/>
      <point x="696" y="119"/>
      <point x="691" y="134"/>
      <point x="680" y="178" type="curve" smooth="yes"/>
    </contour>
    <contour>
      <point x="469" y="320" type="line"/>
      <point x="305" y="320" type="line"/>
      <point x="428" y="538" type="line"/>
    </contour>
    <contour>
      <point x="627" y="859" type="line"/>
      <point x="606" y="835"/>
      <point x="598" y="831"/>
      <point x="574" y="831" type="curve" smooth="yes"/>
      <point x="559" y="831"/>
      <point x="546" y="834"/>
      <point x="518" y="845" type="curve" smooth="yes"/>
      <point x="482" y="859"/>
      <point x="462" y="863"/>
      <point x="436" y="863" type="curve" smooth="yes"/>
      <point x="382" y="863"/>
      <point x="349" y="839"/>
      <point x="318" y="780" type="curve"/>
      <point x="364" y="744" type="line"/>
      <point x="379" y="764"/>
      <point x="394" y="772"/>
      <point x="419" y="772" type="curve" smooth="yes"/>
      <point x="434" y="772"/>
      <point x="446" y="769"/>
      <point x="472" y="760" type="curve" smooth="yes"/>
      <point x="523" y="742"/>
      <point x="533" y="740"/>
      <point x="557" y="740" type="curve" smooth="yes"/>
      <point x="611" y="740"/>
      <point x="632" y="755"/>
      <point x="673" y="823" type="curve"/>
    </contour>
  </outline>
</glyph>
<glyph name="AE" format="1">
  <advance width="1140"/>
  <unicode hex="00C6"/>
  <outline>
    <contour>
      <point x="1189" y="226" type="line"/>
      <point x="1122" y="253" type="line"/>
      <point x="1081" y="209"/>
      <point x="1057" y="186"/>
      <point x="1026" y="162" type="curve" smooth="yes"/>
      <point x="964" y="114"/>
      <point x="878" y="84"/>
      <point x="801" y="84" type="curve" smooth="yes"/>
      <point x="752" y="84"/>
      <point x="720" y="96"/>
      <point x="720" y="116" type="curve" smooth="yes"/>
      <point x="720" y="117"/>
      <point x="722" y="134"/>
      <point x="727" y="167" type="curve" smooth="yes"/>
      <point x="757" y="331" type="line"/>
      <point x="790" y="331" type="line" smooth="yes"/>
      <point x="845" y="331"/>
      <point x="873" y="303"/>
      <point x="873" y="247" type="curve" smooth="yes"/>
      <point x="873" y="243"/>
      <point x="873" y="233"/>
      <point x="872" y="220" type="curve"/>
      <point x="872" y="208" type="line"/>
      <point x="941" y="208" type="line"/>
      <point x="996" y="511" type="line"/>
      <point x="927" y="511" type="line"/>
      <point x="901" y="423"/>
      <point x="883" y="406"/>
      <point x="816" y="406" type="curve" smooth="yes"/>
      <point x="771" y="406" type="line"/>
      <point x="794" y="532" type="line" smooth="yes"/>
      <point x="803" y="586"/>
      <point x="827" y="600"/>
      <point x="912" y="600" type="curve" smooth="yes"/>
      <point x="1012" y="600"/>
      <point x="1102" y="536"/>
      <point x="1137" y="438" type="curve"/>
      <point x="1207" y="460" type="line"/>
      <point x="1152" y="681" type="line"/>
      <point x="658" y="681" type="line"/>
      <point x="194" y="208" type="line" smooth="yes"/>
      <point x="93" y="104"/>
      <point x="75" y="93"/>
      <point x="-12" y="81" type="curve"/>
      <point x="-27" y="0" type="line"/>
      <point x="307" y="0" type="line"/>
      <point x="322" y="81" type="line"/>
      <point x="313" y="82" type="line" smooth="yes"/>
      <point x="268" y="86"/>
      <point x="266" y="86"/>
      <point x="253" y="92" type="curve"/>
      <point x="243" y="96"/>
      <point x="236" y="106"/>
      <point x="236" y="114" type="curve" smooth="yes"/>
      <point x="236" y="127"/>
      <point x="241" y="134"/>
      <point x="274" y="167" type="curve" smooth="yes"/>
      <point x="353" y="253" type="line"/>
      <point x="580" y="253" type="line"/>
      <point x="565" y="168" type="line" smooth="yes"/>
      <point x="552" y="107"/>
      <point x="537" y="91"/>
      <point x="488" y="83" type="curve" smooth="yes"/>
      <point x="472" y="81" type="line"/>
      <point x="457" y="0" type="line"/>
      <point x="1076" y="0" type="line"/>
    </contour>
    <contour>
      <point x="594" y="331" type="line"/>
      <point x="425" y="331" type="line"/>
      <point x="633" y="545" type="line"/>
    </contour>
  </outline>
</glyph>
<glyph name="Ccedilla" format="1">
  <advance width="700"/>
  <unicode hex="00C7"/>
  <outline>
    <contour>
      <point x="397" y="-13" type="line"/>
      <point x="540" y="-12"/>
      <point x="659" y="54"/>
      <point x="738" y="179" type="curve"/>
      <point x="669" y="224" type="line"/>
      <point x="611" y="136"/>
      <point x="519" y="79"/>
      <point x="436" y="79" type="curve" smooth="yes"/>
      <point x="332" y="79"/>
      <point x="270" y="150"/>
      <point x="270" y="270" type="curve" smooth="yes"/>
      <point x="270" y="356"/>
      <point x="295" y="446"/>
      <point x="336" y="509" type="curve" smooth="yes"/>
      <point x="377" y="571"/>
      <point x="426" y="602"/>
      <point x="483" y="602" type="curve" smooth="yes"/>
      <point x="535" y="602"/>
      <point x="585" y="574"/>
      <point x="620" y="527" type="curve" smooth="yes"/>
      <point x="651" y="485"/>
      <point x="674" y="437"/>
      <point x="680" y="403" type="curve"/>
      <point x="754" y="419" type="line"/>
      <point x="704" y="681" type="line"/>
      <point x="648" y="681" type="line"/>
      <point x="636" y="651" type="line"/>
      <point x="569" y="682"/>
      <point x="523" y="694"/>
      <point x="468" y="694" type="curve" smooth="yes"/>
      <point x="349" y="694"/>
      <point x="246" y="644"/>
      <point x="175" y="552" type="curve" smooth="yes"/>
      <point x="114" y="473"/>
      <point x="78" y="374"/>
      <point x="78" y="282" type="curve" smooth="yes"/>
      <point x="78" y="188"/>
      <point x="125" y="96"/>
      <point x="198" y="45" type="curve" smooth="yes"/>
      <point x="242" y="15"/>
      <point x="287" y="-2"/>
      <point x="351" y="-10" type="curve"/>
      <point x="324" y="-69" type="line"/>
      <point x="348" y="-93" type="line"/>
      <point x="359" y="-88"/>
      <point x="365" y="-86"/>
      <point x="372" y="-86" type="curve" smooth="yes"/>
      <point x="389" y="-86"/>
      <point x="401" y="-99"/>
      <point x="401" y="-119" type="curve" smooth="yes"/>
      <point x="401" y="-146"/>
      <point x="381" y="-168"/>
      <point x="356" y="-168" type="curve" smooth="yes"/>
      <point x="342" y="-168"/>
      <point x="331" y="-161"/>
      <point x="326" y="-150" type="curve" smooth="yes"/>
      <point x="316" y="-128"/>
      <point x="310" y="-123"/>
      <point x="295" y="-123" type="curve" smooth="yes"/>
      <point x="275" y="-123"/>
      <point x="258" y="-141"/>
      <point x="258" y="-162" type="curve" smooth="yes"/>
      <point x="258" y="-194"/>
      <point x="297" y="-215"/>
      <point x="355" y="-215" type="curve" smooth="yes"/>
      <point x="428" y="-215"/>
      <point x="479" y="-173"/>
      <point x="479" y="-114" type="curve" smooth="yes"/>
      <point x="479" y="-77"/>
      <point x="453" y="-53"/>
      <point x="414" y="-53" type="curve" smooth="yes"/>
      <point x="403" y="-53"/>
      <point x="394" y="-55"/>
      <point x="376" y="-59" type="curve"/>
    </contour>
  </outline>
</glyph>
<glyph name="Igrave" format="1">
  <advance width="380"/>
  <unicode hex="00CC"/>
  <outline>
    <contour>
      <point x="123" y="600" type="line"/>
      <point x="144" y="598" type="line" smooth="yes"/>
      <point x="180" y="595"/>
      <point x="197" y="580"/>
      <point x="197" y="552" type="curve" smooth="yes"/>
      <point x="197" y="543"/>
      <point x="195" y="521"/>
      <point x="194" y="513" type="curve"/>
      <point x="131" y="168" type="line" smooth="yes"/>
      <point x="118" y="106"/>
      <point x="104" y="90"/>
      <point x="51" y="83" type="curve" smooth="yes"/>
      <point x="29" y="81" type="line"/>
      <point x="14" y="0" type="line"/>
      <point x="361" y="0" type="line"/>
      <point x="376" y="81" type="line"/>
      <point x="355" y="83" type="line" smooth="yes"/>
      <point x="319" y="86"/>
      <point x="302" y="101"/>
      <point x="302" y="128" type="curve" smooth="yes"/>
      <point x="302" y="137"/>
      <point x="304" y="161"/>
      <point x="305" y="168" type="curve" smooth="yes"/>
      <point x="368" y="513" type="line" smooth="yes"/>
      <point x="381" y="575"/>
      <point x="395" y="591"/>
      <point x="448" y="598" type="curve" smooth="yes"/>
      <point x="470" y="600" type="line"/>
      <point x="485" y="681" type="line"/>
      <point x="137" y="681" type="line"/>
    </contour>
    <contour>
      <point x="384" y="771" type="line"/>
      <point x="350" y="816"/>
      <point x="316" y="855"/>
      <point x="288" y="881" type="curve" smooth="yes"/>
      <point x="263" y="906"/>
      <point x="246" y="914"/>
      <point x="222" y="914" type="curve" smooth="yes"/>
      <point x="183" y="914"/>
      <point x="153" y="888"/>
      <point x="153" y="854" type="curve" smooth="yes"/>
      <point x="153" y="826"/>
      <point x="171" y="802"/>
      <point x="208" y="781" type="curve" smooth="yes"/>
      <point x="234" y="767"/>
      <point x="274" y="751"/>
      <point x="343" y="727" type="curve"/>
    </contour>
  </outline>
</glyph>
<glyph name="Iacute" format="1">
  <advance width="380"/>
  <unicode hex="00CD"/>
  <outline>
    <contour>
      <point x="123" y="600" type="line"/>
      <point x="144" y="598" type="line" smooth="yes"/>
      <point x="180" y="595"/>
      <point x="197" y="580"/>
      <point x="197" y="552" type="curve" smooth="yes"/>
      <point x="197" y="543"/>
      <point x="195" y="521"/>
      <point x="194" y="513" type="curve"/>
      <point x="131" y="168" type="line" smooth="yes"/>
      <point x="118" y="106"/>
      <point x="104" y="90"/>
      <point x="51" y="83" type="curve" smooth="yes"/>
      <point x="29" y="81" type="line"/>
      <point x="14" y="0" type="line"/>
      <point x="361" y="0" type="line"/>
      <point x="376" y="81" type="line"/>
      <point x="355" y="83" type="line" smooth="yes"/>
      <point x="319" y="86"/>
      <point x="302" y="101"/>
      <point x="302" y="128" type="curve" smooth="yes"/>
      <point x="302" y="137"/>
      <point x="304" y="161"/>
      <point x="305" y="168" type="curve" smooth="yes"/>
      <point x="368" y="513" type="line" smooth="yes"/>
      <point x="381" y="575"/>
      <point x="395" y="591"/>
      <point x="448" y="598" type="curve" smooth="yes"/>
      <point x="470" y="600" type="line"/>
      <point x="485" y="681" type="line"/>
      <point x="137" y="681" type="line"/>
    </contour>
    <contour>
      <point x="237" y="727" type="line"/>
      <point x="296" y="747"/>
      <point x="336" y="762"/>
      <point x="360" y="775" type="curve" smooth="yes"/>
      <point x="406" y="798"/>
      <point x="427" y="823"/>
      <point x="427" y="854" type="curve" smooth="yes"/>
      <point x="427" y="888"/>
      <point x="397" y="914"/>
      <point x="358" y="914" type="curve" smooth="yes"/>
      <point x="334" y="914"/>
      <point x="317" y="905"/>
      <point x="292" y="881" type="curve" smooth="yes"/>
      <point x="264" y="855"/>
      <point x="230" y="816"/>
      <point x="196" y="771" type="curve"/>
    </contour>
  </outline>
</glyph>
<glyph name="Eth" format="1">
  <advance width="760"/>
  <unicode hex="00D0"/>
  <outline>
    <contour>
      <point x="160" y="323" type="line"/>
      <point x="131" y="168" type="line" smooth="yes"/>
      <point x="119" y="106"/>
      <point x="104" y="90"/>
      <point x="51" y="83" type="curve" smooth="yes"/>
      <point x="29" y="81" type="line"/>
      <point x="14" y="0" type="line"/>
      <point x="310" y="0" type="line" smooth="yes"/>
      <point x="453" y="0"/>
      <point x="537" y="13"/>
      <point x="602" y="46" type="curve" smooth="yes"/>
      <point x="725" y="109"/>
      <point x="805" y="250"/>
      <point x="805" y="407" type="curve" smooth="yes"/>
      <point x="805" y="495"/>
      <point x="775" y="569"/>
      <point x="721" y="616" type="curve" smooth="yes"/>
      <point x="662" y="667"/>
      <point x="605" y="681"/>
      <point x="457" y="681" type="curve" smooth="yes"/>
      <point x="137" y="681" type="line"/>
      <point x="123" y="600" type="line"/>
      <point x="145" y="598" type="line" smooth="yes"/>
      <point x="181" y="594"/>
      <point x="198" y="579"/>
      <point x="198" y="551" type="curve" smooth="yes"/>
      <point x="198" y="541"/>
      <point x="196" y="526"/>
      <point x="194" y="512" type="curve" smooth="yes"/>
      <point x="174" y="403" type="line"/>
      <point x="87" y="403" type="line"/>
      <point x="72" y="323" type="line"/>
    </contour>
    <contour>
      <point x="348" y="403" type="line"/>
      <point x="367" y="508" type="line" smooth="yes"/>
      <point x="377" y="563"/>
      <point x="379" y="569"/>
      <point x="389" y="579" type="curve" smooth="yes"/>
      <point x="401" y="591"/>
      <point x="432" y="599"/>
      <point x="469" y="599" type="curve" smooth="yes"/>
      <point x="574" y="599"/>
      <point x="632" y="535"/>
      <point x="632" y="419" type="curve" smooth="yes"/>
      <point x="632" y="237"/>
      <point x="516" y="87"/>
      <point x="376" y="87" type="curve" smooth="yes"/>
      <point x="323" y="87"/>
      <point x="299" y="97"/>
      <point x="299" y="120" type="curve" smooth="yes"/>
      <point x="299" y="126"/>
      <point x="299" y="126"/>
      <point x="304" y="157" type="curve" smooth="yes"/>
      <point x="334" y="323" type="line"/>
      <point x="490" y="323" type="line"/>
      <point x="504" y="403" type="line"/>
    </contour>
  </outline>
</glyph>
<glyph name="Ograve" format="1">
  <advance width="760"/>
  <unicode hex="00D2"/>
  <outline>
    <contour>
      <point x="485" y="694" type="curve" smooth="yes"/>
      <point x="376" y="694"/>
      <point x="269" y="650"/>
      <point x="193" y="575" type="curve" smooth="yes"/>
      <point x="123" y="506"/>
      <point x="78" y="395"/>
      <point x="78" y="291" type="curve" smooth="yes"/>
      <point x="78" y="110"/>
      <point x="206" y="-13"/>
      <point x="394" y="-13" type="curve" smooth="yes"/>
      <point x="514" y="-13"/>
      <point x="630" y="38"/>
      <point x="704" y="123" type="curve" smooth="yes"/>
      <point x="765" y="192"/>
      <point x="806" y="297"/>
      <point x="806" y="386" type="curve" smooth="yes"/>
      <point x="806" y="571"/>
      <point x="678" y="694"/>
    </contour>
    <contour>
      <point x="473" y="602" type="curve" smooth="yes"/>
      <point x="563" y="602"/>
      <point x="613" y="533"/>
      <point x="613" y="412" type="curve" smooth="yes"/>
      <point x="613" y="339"/>
      <point x="588" y="239"/>
      <point x="557" y="187" type="curve" smooth="yes"/>
      <point x="516" y="119"/>
      <point x="461" y="83"/>
      <point x="400" y="83" type="curve" smooth="yes"/>
      <point x="317" y="83"/>
      <point x="266" y="152"/>
      <point x="266" y="265" type="curve" smooth="yes"/>
      <point x="266" y="449"/>
      <point x="360" y="602"/>
    </contour>
    <contour>
      <point x="594" y="771" type="line"/>
      <point x="560" y="816"/>
      <point x="526" y="855"/>
      <point x="498" y="881" type="curve" smooth="yes"/>
      <point x="473" y="906"/>
      <point x="456" y="914"/>
      <point x="432" y="914" type="curve" smooth="yes"/>
      <point x="393" y="914"/>
      <point x="363" y="888"/>
      <point x="363" y="854" type="curve" smooth="yes"/>
      <point x="363" y="826"/>
      <point x="381" y="802"/>
      <point x="418" y="781" type="curve" smooth="yes"/>
      <point x="444" y="767"/>
      <point x="484" y="751"/>
      <point x="553" y="727" type="curve"/>
    </contour>
  </outline>
</glyph>
<glyph name="Ocircumflex" format="1">
  <advance width="760"/>
  <unicode hex="00D4"/>
  <outline>
    <contour>
      <point x="485" y="694" type="curve" smooth="yes"/>
      <point x="376" y="694"/>
      <point x="269" y="650"/>
      <point x="193" y="575" type="curve" smooth="yes"/>
      <point x="123" y="506"/>
      <point x="78" y="395"/>
      <point x="78" y="291" type="curve" smooth="yes"/>
      <point x="78" y="110"/>
      <point x="206" y="-13"/>
      <point x="394" y="-13" type="curve" smooth="yes"/>
      <point x="514" y="-13"/>
      <point x="630" y="38"/>
      <point x="704" y="123" type="curve" smooth="yes"/>
      <point x="765" y="192"/>
      <point x="806" y="297"/>
      <point x="806" y="386" type="curve" smooth="yes"/>
      <point x="806" y="571"/>
      <point x="678" y="694"/>
    </contour>
    <contour>
      <point x="473" y="602" type="curve" smooth="yes"/>
      <point x="563" y="602"/>
      <point x="613" y="533"/>
      <point x="613" y="412" type="curve" smooth="yes"/>
      <point x="613" y="339"/>
      <point x="588" y="239"/>
      <point x="557" y="187" type="curve" smooth="yes"/>
      <point x="516" y="119"/>
      <point x="461" y="83"/>
      <point x="400" y="83" type="curve" smooth="yes"/>
      <point x="317" y="83"/>
      <point x="266" y="152"/>
      <point x="266" y="265" type="curve" smooth="yes"/>
      <point x="266" y="449"/>
      <point x="360" y="602"/>
    </contour>
    <contour>
      <point x="336" y="797" type="line"/>
      <point x="367" y="730" type="line"/>
      <point x="504" y="786" type="line"/>
      <point x="634" y="730" type="line"/>
      <point x="676" y="791" type="line"/>
      <point x="520" y="900" type="line"/>
    </contour>
  </outline>
</glyph>
<glyph name="Otilde" format="1">
  <advance width="760"/>
  <unicode hex="00D5"/>
  <outline>
    <contour>
      <point x="485" y="694" type="curve" smooth="yes"/>
      <point x="376" y="694"/>
      <point x="269" y="650"/>
      <point x="193" y="575" type="curve" smooth="yes"/>
      <point x="123" y="506"/>
      <point x="78" y="395"/>
      <point x="78" y="291" type="curve" smooth="yes"/>
      <point x="78" y="110"/>
      <point x="206" y="-13"/>
      <point x="394" y="-13" type="curve" smooth="yes"/>
      <point x="514" y="-13"/>
      <point x="630" y="38"/>
      <point x="704" y="123" type="curve" smooth="yes"/>
      <point x="765" y="192"/>
      <point x="806" y="297"/>
      <point x="806" y="386" type="curve" smooth="yes"/>
      <point x="806" y="571"/>
      <point x="678" y="694"/>
    </contour>
    <contour>
      <point x="473" y="602" type="curve" smooth="yes"/>
      <point x="563" y="602"/>
      <point x="613" y="533"/>
      <point x="613" y="412" type="curve" smooth="yes"/>
      <point x="613" y="339"/>
      <point x="588" y="239"/>
      <point x="557" y="187" type="curve" smooth="yes"/>
      <point x="516" y="119"/>
      <point x="461" y="83"/>
      <point x="400" y="83" type="curve" smooth="yes"/>
      <point x="317" y="83"/>
      <point x="266" y="152"/>
      <point x="266" y="265" type="curve" smooth="yes"/>
      <point x="266" y="449"/>
      <point x="360" y="602"/>
    </contour>
    <contour>
      <point x="654" y="859" type="line"/>
      <point x="633" y="835"/>
      <point x="625" y="831"/>
      <point x="601" y="831" type="curve" smooth="yes"/>
      <point x="586" y="831"/>
      <point x="573" y="834"/>
      <point x="545" y="845" type="curve" smooth="yes"/>
      <point x="509" y="859"/>
      <point x="489" y="863"/>
      <point x="463" y="863" type="curve" smooth="yes"/>
      <point x="409" y="863"/>
      <point x="376" y="839"/>
      <point x="345" y="780" type="curve"/>
      <point x="391" y="744" type="line"/>
      <point x="406" y="764"/>
      <point x="421" y="772"/>
      <point x="446" y="772" type="curve" smooth="yes"/>
      <point x="461" y="772"/>
      <point x="473" y="769"/>
      <point x="499" y="760" type="curve" smooth="yes"/>
      <point x="550" y="742"/>
      <point x="560" y="740"/>
      <point x="584" y="740" type="curve" smooth="yes"/>
      <point x="638" y="740"/>
      <point x="659" y="755"/>
      <point x="700" y="823" type="curve"/>
    </contour>
  </outline>
</glyph>
<glyph name="multiply" format="1">
  <advance width="600"/>
  <unicode hex="00D7"/>
  <outline>
    <contour>
      <point x="595" y="521" type="line"/>
      <point x="512" y="604" type="line"/>
      <point x="343" y="435" type="line"/>
      <point x="174" y="604" type="line"/>
      <point x="91" y="521" type="line"/>
      <point x="260" y="352" type="line"/>
      <point x="91" y="183" type="line"/>
      <point x="174" y="100" type="line"/>
      <point x="343" y="269" type="line"/>
      <point x="512" y="100" type="line"/>
      <point x="595" y="183" type="line"/>
      <point x="426" y="352" type="line"/>
    </contour>
  </outline>
</glyph>
<glyph name="Oslash" format="1">
  <advance width="760"/>
  <unicode hex="00D8"/>
  <outline>
    <contour>
      <point x="847" y="725" type="line"/>
      <point x="754" y="725" type="line"/>
      <point x="676" y="644" type="line"/>
      <point x="620" y="678"/>
      <point x="559" y="694"/>
      <point x="488" y="694" type="curve" smooth="yes"/>
      <point x="378" y="694"/>
      <point x="268" y="650"/>
      <point x="195" y="575" type="curve" smooth="yes"/>
      <point x="124" y="503"/>
      <point x="80" y="395"/>
      <point x="80" y="291" type="curve" smooth="yes"/>
      <point x="80" y="216"/>
      <point x="101" y="152"/>
      <point x="143" y="97" type="curve"/>
      <point x="21" y="-29" type="line"/>
      <point x="114" y="-29" type="line"/>
      <point x="191" y="50" type="line"/>
      <point x="249" y="8"/>
      <point x="317" y="-13"/>
      <point x="397" y="-13" type="curve" smooth="yes"/>
      <point x="516" y="-13"/>
      <point x="632" y="38"/>
      <point x="706" y="123" type="curve" smooth="yes"/>
      <point x="769" y="194"/>
      <point x="808" y="297"/>
      <point x="808" y="391" type="curve" smooth="yes"/>
      <point x="808" y="474"/>
      <point x="780" y="547"/>
      <point x="728" y="602" type="curve"/>
    </contour>
    <contour>
      <point x="609" y="480" type="line"/>
      <point x="613" y="455"/>
      <point x="615" y="438"/>
      <point x="615" y="416" type="curve" smooth="yes"/>
      <point x="615" y="340"/>
      <point x="590" y="240"/>
      <point x="558" y="187" type="curve" smooth="yes"/>
      <point x="518" y="120"/>
      <point x="463" y="83"/>
      <point x="402" y="83" type="curve" smooth="yes"/>
      <point x="351" y="83"/>
      <point x="315" y="106"/>
      <point x="291" y="152" type="curve"/>
    </contour>
    <contour>
      <point x="270" y="227" type="line"/>
      <point x="268" y="242"/>
      <point x="268" y="250"/>
      <point x="268" y="264" type="curve" smooth="yes"/>
      <point x="268" y="448"/>
      <point x="362" y="602"/>
      <point x="476" y="602" type="curve" smooth="yes"/>
      <point x="522" y="602"/>
      <point x="557" y="584"/>
      <point x="583" y="548" type="curve"/>
    </contour>
  </outline>
</glyph>
<glyph name="Ucircumflex" format="1">
  <advance width="740"/>
  <unicode hex="00DB"/>
  <outline>
    <contour>
      <point x="571" y="600" type="line"/>
      <point x="593" y="598" type="line" smooth="yes"/>
      <point x="629" y="595"/>
      <point x="646" y="580"/>
      <point x="646" y="552" type="curve" smooth="yes"/>
      <point x="646" y="543"/>
      <point x="644" y="522"/>
      <point x="642" y="513" type="curve" smooth="yes"/>
      <point x="598" y="270" type="line" smooth="yes"/>
      <point x="585" y="196"/>
      <point x="574" y="162"/>
      <point x="554" y="138" type="curve" smooth="yes"/>
      <point x="529" y="107"/>
      <point x="478" y="87"/>
      <point x="426" y="87" type="curve" smooth="yes"/>
      <point x="350" y="87"/>
      <point x="307" y="124"/>
      <point x="307" y="188" type="curve" smooth="yes"/>
      <point x="307" y="209"/>
      <point x="311" y="260"/>
      <point x="315" y="278" type="curve" smooth="yes"/>
      <point x="357" y="513" type="line" smooth="yes"/>
      <point x="370" y="576"/>
      <point x="385" y="591"/>
      <point x="438" y="598" type="curve" smooth="yes"/>
      <point x="460" y="600" type="line"/>
      <point x="475" y="681" type="line"/>
      <point x="127" y="681" type="line"/>
      <point x="112" y="600" type="line"/>
      <point x="134" y="598" type="line" smooth="yes"/>
      <point x="170" y="595"/>
      <point x="187" y="580"/>
      <point x="187" y="552" type="curve" smooth="yes"/>
      <point x="187" y="543"/>
      <point x="185" y="524"/>
      <point x="183" y="513" type="curve" smooth="yes"/>
      <point x="130" y="220" type="line" smooth="yes"/>
      <point x="126" y="195"/>
      <point x="122" y="162"/>
      <point x="122" y="147" type="curve" smooth="yes"/>
      <point x="122" y="51"/>
      <point x="218" y="-13"/>
      <point x="362" y="-13" type="curve" smooth="yes"/>
      <point x="467" y="-13"/>
      <point x="561" y="19"/>
      <point x="616" y="74" type="curve" smooth="yes"/>
      <point x="652" y="110"/>
      <point x="673" y="158"/>
      <point x="687" y="232" type="curve" smooth="yes"/>
      <point x="738" y="513" type="line" smooth="yes"/>
      <point x="750" y="576"/>
      <point x="765" y="591"/>
      <point x="818" y="598" type="curve" smooth="yes"/>
      <point x="840" y="600" type="line"/>
      <point x="855" y="681" type="line"/>
      <point x="586" y="681" type="line"/>
    </contour>
    <contour>
      <point x="360" y="797" type="line"/>
      <point x="391" y="730" type="line"/>
      <point x="528" y="786" type="line"/>
      <point x="658" y="730" type="line"/>
      <point x="700" y="791" type="line"/>
      <point x="544" y="900" type="line"/>
    </contour>
  </outline>
</glyph>
<glyph name="Thorn" format="1">
  <advance width="640"/>
  <unicode hex="00DE"/>
  <outline>
    <contour>
      <point x="383" y="153" type="line" smooth="yes"/>
      <point x="590" y="153"/>
      <point x="701" y="235"/>
      <point x="701" y="390" type="curve" smooth="yes"/>
      <point x="701" y="439"/>
      <point x="685" y="472"/>
      <point x="647" y="499" type="curve" smooth="yes"/>
      <point x="608" y="528"/>
      <point x="553" y="539"/>
      <point x="452" y="539" type="curve" smooth="yes"/>
      <point x="356" y="539" type="line"/>
      <point x="363" y="576"/>
      <point x="380" y="589"/>
      <point x="432" y="596" type="curve"/>
      <point x="456" y="598" type="line"/>
      <point x="470" y="681" type="line"/>
      <point x="114" y="681" type="line"/>
      <point x="100" y="598" type="line"/>
      <point x="119" y="596" type="line" smooth="yes"/>
      <point x="159" y="592"/>
      <point x="178" y="578"/>
      <point x="178" y="554" type="curve" smooth="yes"/>
      <point x="178" y="547"/>
      <point x="176" y="530"/>
      <point x="172" y="512" type="curve" smooth="yes"/>
      <point x="112" y="168" type="line" smooth="yes"/>
      <point x="101" y="105"/>
      <point x="88" y="92"/>
      <point x="29" y="84" type="curve" smooth="yes"/>
      <point x="8" y="82" type="line"/>
      <point x="-6" y="0" type="line"/>
      <point x="345" y="0" type="line"/>
      <point x="359" y="82" type="line"/>
      <point x="340" y="84" type="line" smooth="yes"/>
      <point x="300" y="88"/>
      <point x="282" y="101"/>
      <point x="282" y="125" type="curve" smooth="yes"/>
      <point x="282" y="132"/>
      <point x="283" y="143"/>
      <point x="285" y="153" type="curve"/>
    </contour>
    <contour>
      <point x="300" y="243" type="line"/>
      <point x="336" y="449" type="line"/>
      <point x="379" y="449" type="line" smooth="yes"/>
      <point x="462" y="449"/>
      <point x="506" y="418"/>
      <point x="506" y="361" type="curve" smooth="yes"/>
      <point x="506" y="325"/>
      <point x="490" y="291"/>
      <point x="465" y="273" type="curve" smooth="yes"/>
      <point x="439" y="254"/>
      <point x="395" y="243"/>
      <point x="343" y="243" type="curve" smooth="yes"/>
    </contour>
  </outline>
</glyph>
<glyph name="germandbls" format="1">
  <advance width="660"/>
  <unicode hex="00DF"/>
  <outline>
    <contour>
      <point x="196" y="511" type="line"/>
      <point x="121" y="511" type="line"/>
      <point x="99" y="421" type="line"/>
      <point x="176" y="421" type="line"/>
      <point x="112" y="141" type="line" smooth="yes"/>
      <point x="76" y="-17"/>
      <point x="76" y="-17"/>
      <point x="65" y="-38" type="curve" smooth="yes"/>
      <point x="42" y="-82"/>
      <point x="7" y="-108"/>
      <point x="-32" y="-108" type="curve" smooth="yes"/>
      <point x="-54" y="-108"/>
      <point x="-61" y="-104"/>
      <point x="-84" y="-78" type="curve" smooth="yes"/>
      <point x="-104" y="-57"/>
      <point x="-124" y="-47"/>
      <point x="-148" y="-47" type="curve" smooth="yes"/>
      <point x="-194" y="-47"/>
      <point x="-231" y="-82"/>
      <point x="-231" y="-126" type="curve" smooth="yes"/>
      <point x="-231" y="-179"/>
      <point x="-186" y="-208"/>
      <point x="-105" y="-208" type="curve" smooth="yes"/>
      <point x="-56" y="-208"/>
      <point x="-8" y="-199"/>
      <point x="37" y="-181" type="curve" smooth="yes"/>
      <point x="121" y="-148"/>
      <point x="181" y="-93"/>
      <point x="223" y="-11" type="curve" smooth="yes"/>
      <point x="248" y="37"/>
      <point x="248" y="37"/>
      <point x="297" y="246" type="curve" smooth="yes"/>
      <point x="362" y="515" type="line" smooth="yes"/>
      <point x="392" y="637"/>
      <point x="412" y="667"/>
      <point x="463" y="667" type="curve" smooth="yes"/>
      <point x="507" y="667"/>
      <point x="539" y="631"/>
      <point x="539" y="582" type="curve" smooth="yes"/>
      <point x="539" y="542"/>
      <point x="523" y="517"/>
      <point x="488" y="503" type="curve" smooth="yes"/>
      <point x="417" y="474"/>
      <point x="417" y="474"/>
      <point x="409" y="468" type="curve" smooth="yes"/>
      <point x="387" y="450"/>
      <point x="374" y="426"/>
      <point x="374" y="398" type="curve" smooth="yes"/>
      <point x="374" y="383"/>
      <point x="378" y="369"/>
      <point x="386" y="356" type="curve" smooth="yes"/>
      <point x="395" y="342"/>
      <point x="404" y="335"/>
      <point x="448" y="309" type="curve" smooth="yes"/>
      <point x="493" y="283"/>
      <point x="515" y="252"/>
      <point x="515" y="213" type="curve" smooth="yes"/>
      <point x="515" y="142"/>
      <point x="442" y="80"/>
      <point x="358" y="80" type="curve" smooth="yes"/>
      <point x="349" y="80"/>
      <point x="341" y="81"/>
      <point x="317" y="83" type="curve"/>
      <point x="291" y="5" type="line"/>
      <point x="340" y="-5"/>
      <point x="363" y="-8"/>
      <point x="394" y="-8" type="curve" smooth="yes"/>
      <point x="563" y="-8"/>
      <point x="702" y="103"/>
      <point x="702" y="239" type="curve" smooth="yes"/>
      <point x="702" y="306"/>
      <point x="662" y="365"/>
      <point x="599" y="389" type="curve" smooth="yes"/>
      <point x="571" y="400"/>
      <point x="561" y="407"/>
      <point x="561" y="417" type="curve" smooth="yes"/>
      <point x="561" y="427"/>
      <point x="566" y="432"/>
      <point x="592" y="449" type="curve" smooth="yes"/>
      <point x="648" y="485"/>
      <point x="671" y="523"/>
      <point x="671" y="580" type="curve" smooth="yes"/>
      <point x="671" y="674"/>
      <point x="589" y="741"/>
      <point x="475" y="741" type="curve" smooth="yes"/>
      <point x="412" y="741"/>
      <point x="346" y="722"/>
      <point x="296" y="688" type="curve" smooth="yes"/>
      <point x="249" y="657"/>
      <point x="217" y="609"/>
      <point x="204" y="551" type="curve" smooth="yes"/>
    </contour>
  </outline>
</glyph>
